<svg width="305" height="55" viewBox="0 0 305 55" fill="none" xmlns="http://www.w3.org/2000/svg">
<path d="M303.461 54.5921C203.611 52.1221 103.761 49.6521 3.91104 47.1721C4.79104 44.4721 8.46104 42.8819 7.59104 40.1619C6.85104 37.8619 2.05104 36.8518 1.13104 34.5818C-0.118962 31.4618 6.71104 29.1717 6.57104 25.9617C6.43104 22.8117 -0.308957 20.8121 0.0110427 17.6721C0.261043 15.1621 4.92105 13.7318 5.81105 11.2918C6.48105 9.47177 4.88105 7.64212 3.75105 5.90212C2.61105 4.16212 1.84104 2.06181 4.02104 0.831812C103.401 -1.50819 203.191 1.09207 302.201 8.59207C304.541 10.3121 302.701 13.4617 301.221 15.5017C299.731 17.5317 297.821 19.7219 298.741 21.9119C299.681 24.1619 303.421 25.8221 303.381 28.1321C303.321 31.1321 296.861 33.0217 297.491 36.0017C298.001 38.4217 303.051 39.9018 302.821 42.3318C302.671 43.9418 300.171 45.1017 299.831 46.6917C299.521 48.1917 301.171 49.5418 302.421 50.8518C303.671 52.1518 305.161 53.5521 303.461 54.5921Z" fill="#80D838"/>
</svg>
