<svg width="487" height="382" viewBox="0 0 487 382" fill="none" xmlns="http://www.w3.org/2000/svg">
<path d="M22.7881 17.6169C29.9695 12.2266 35.6735 11.0975 40.582 11.6609C45.739 12.2528 50.4423 14.7304 55.749 17.5828L55.751 17.5837C62.8007 21.3682 70.7957 25.7106 82.1465 25.7986V25.7996C95.8131 25.9138 102.632 23.8053 109.607 21.6306C116.689 19.4329 123.78 17.214 137.998 17.3298C152.217 17.4457 159.27 19.7789 166.312 22.0935V22.0945C173.253 24.3809 180.03 26.6046 193.697 26.7087V26.7097C207.364 26.8239 214.182 24.715 221.166 22.5408C228.236 20.3435 235.338 18.1242 249.558 18.24C263.788 18.3558 270.852 20.6892 277.893 23.0037V23.0046C284.843 25.2906 291.62 27.5147 305.297 27.6189V27.6199C318.963 27.7341 325.781 25.625 332.765 23.4509L332.766 23.4519C339.836 21.2545 346.937 19.0333 361.158 19.1492C375.389 19.2651 382.463 21.5996 389.503 23.9138V23.9148C396.454 26.201 403.24 28.4256 416.917 28.5398H416.919C428.287 28.6271 436.345 24.4268 443.47 20.7498L443.471 20.7507C448.825 17.9894 453.568 15.5892 458.735 15.0808C463.654 14.5969 469.341 15.8178 476.44 21.324V21.325C479.424 23.6413 481.105 25.8429 482.009 27.8425C482.903 29.8205 483.126 31.7989 482.891 33.8347C482.394 38.1306 479.928 42.4577 477.246 47.0417L477.245 47.0427C473.776 52.9741 469.545 60.0488 469.477 68.6208C469.391 78.9198 471.424 83.9329 473.646 89.365C475.801 94.6301 478.141 100.301 478.047 111.29V111.293C477.962 122.281 475.531 127.916 473.29 133.14L473.287 133.145C470.984 138.539 468.862 143.52 468.776 153.81C468.691 164.113 470.736 169.128 472.957 174.555C475.11 179.817 477.441 185.491 477.356 196.483C477.272 207.48 474.841 213.114 472.601 218.338C470.282 223.733 468.172 228.713 468.087 239.021V239.024C468.012 249.322 470.044 254.334 472.267 259.765L472.268 259.767C474.419 265.016 476.752 270.7 476.667 281.693C476.582 292.692 474.151 298.326 471.91 303.551C469.593 308.954 467.482 313.933 467.396 324.241V324.242C467.328 332.822 471.434 339.963 474.807 345.957L474.809 345.96C477.418 350.585 479.817 354.952 480.242 359.259C480.444 361.299 480.187 363.277 479.258 365.245C478.318 367.235 476.596 369.416 473.565 371.691H473.564C466.383 377.087 460.68 378.217 455.771 377.653C451.259 377.134 447.094 375.17 442.567 372.776L440.604 371.727C433.547 367.929 425.555 363.598 414.206 363.5H414.203C400.542 363.396 393.726 365.492 386.749 367.667C379.666 369.865 372.576 372.085 358.355 371.969C344.135 371.854 337.081 369.52 330.039 367.205H330.038C323.095 364.918 316.319 362.704 302.655 362.59C290.697 362.49 283.982 364.091 277.812 365.95L275.187 366.758C268.116 368.955 261.015 371.176 246.795 371.06C234.343 370.959 227.379 369.158 221.115 367.159L218.46 366.295C211.51 364.009 204.733 361.784 191.056 361.67C177.389 361.555 170.57 363.663 163.586 365.838C156.516 368.035 149.415 370.255 135.195 370.139H135.194C122.329 370.035 114.998 366.92 108.227 364.039H108.226C104.394 362.407 100.564 360.761 95.916 359.98C91.505 359.239 86.5276 359.295 80.0996 360.55L78.7949 360.817C68.2238 363.076 60.7961 366.772 54.5176 369.871L54.5107 369.875C48.5984 372.808 43.8512 375.104 38.6553 375.391C33.6858 375.666 27.8138 374.09 19.9219 367.965L19.377 367.531C16.7282 365.373 15.1969 363.321 14.3496 361.447C13.4558 359.47 13.2322 357.492 13.4678 355.458C13.965 351.164 16.433 346.84 19.1152 342.26C22.6011 336.317 26.8057 329.25 26.8857 320.682V320.678C26.9712 310.381 24.9383 305.367 22.7041 299.932H22.7051C20.5518 294.679 18.2124 289.008 18.3066 278.019V278.016C18.3915 267.028 20.8229 261.394 23.0635 256.17C25.3782 250.772 27.5009 245.8 27.5762 235.499C27.651 226.486 26.1029 221.521 24.2178 216.779L23.3936 214.749C21.2399 209.485 18.9019 203.815 18.9961 192.83V192.827C19.0809 181.842 21.511 176.208 23.751 170.984C26.0806 165.576 28.1909 160.587 28.2764 150.289C28.3619 139.987 26.3167 134.972 24.0957 129.544L24.0928 129.537L23.2803 127.54C21.3886 122.789 19.6127 117.236 19.6865 107.62C19.7808 96.6187 22.213 90.9726 24.4531 85.7488L24.4521 85.7478C26.7804 80.3429 28.8911 75.3629 28.9766 65.0583V65.0574C29.0451 56.4777 24.9395 49.3368 21.5664 43.3435V43.3425L20.6025 41.6189C18.3924 37.6246 16.51 33.8091 16.1357 30.0398C15.9331 27.9985 16.1884 26.0218 17.1143 24.0554C18.0503 22.0675 19.767 19.8896 22.7891 17.6179L22.7881 17.6169Z" stroke="white" stroke-width="7"/>
<path d="M38.373 17.5535C41.6275 17.5477 44.8384 18.7094 48.8467 20.7244C56.6132 24.6286 66.8602 31.6941 82.1387 31.8201C96.7372 31.9404 104.227 29.6251 111.438 27.3816C118.207 25.275 124.697 23.2398 137.988 23.3494C151.279 23.459 157.734 25.6012 164.468 27.8191C171.639 30.1813 179.09 32.6196 193.688 32.74C208.287 32.8604 215.78 30.5449 222.992 28.3015C229.765 26.1949 236.258 24.1597 249.549 24.2693C262.85 24.3789 269.31 26.5212 276.047 28.739C283.222 31.101 290.675 33.5395 305.278 33.6599C319.882 33.7803 327.375 31.4655 334.587 29.2205C341.359 27.1125 347.848 25.0738 361.139 25.1785V25.1794C374.445 25.2891 380.908 27.4312 387.649 29.6492C394.828 32.0112 402.286 34.4497 416.898 34.5701C432.186 34.696 442.549 27.8046 450.383 24.0291C454.425 22.0808 457.658 20.9715 460.917 21.03C464.052 21.0864 467.814 22.2461 472.777 26.0955C476.264 28.8033 476.935 30.8432 476.979 32.3845C477.036 34.3354 476.153 36.751 474.191 40.324C470.62 46.8273 463.588 56.4668 463.485 68.5818V68.5837C463.394 80.0838 465.822 86.0612 468.111 91.6511C470.197 96.7431 472.144 101.449 472.065 111.244C471.987 121.038 469.963 125.708 467.794 130.763C465.412 136.314 462.883 142.251 462.786 153.752V153.754C462.694 165.258 465.122 171.238 467.411 176.83C469.497 181.923 471.444 186.629 471.366 196.424C471.288 206.223 469.264 210.897 467.094 215.956C464.712 221.51 462.183 227.451 462.086 238.962V238.964C461.994 250.468 464.422 256.448 466.711 262.041C468.796 267.135 470.744 271.842 470.666 281.641C470.583 291.442 468.558 296.12 466.39 301.185C464.01 306.744 461.488 312.689 461.396 324.202C461.293 336.324 468.171 346.082 471.638 352.647C473.542 356.254 474.386 358.686 474.297 360.638C474.227 362.182 473.521 364.216 469.984 366.871L469.983 366.872C464.968 370.639 461.194 371.736 458.063 371.741C454.809 371.746 451.597 370.583 447.588 368.568C439.819 364.663 429.57 357.601 414.292 357.48H414.293C399.694 357.36 392.203 359.674 384.993 361.918C378.223 364.024 371.733 366.06 358.442 365.95C345.151 365.84 338.696 363.698 331.963 361.48C324.792 359.118 317.341 356.681 302.743 356.56C288.14 356.44 280.647 358.754 273.436 360.998C266.664 363.104 260.174 365.14 246.883 365.03C233.581 364.92 227.121 362.778 220.384 360.56C213.209 358.198 205.756 355.76 191.153 355.639C176.555 355.519 169.061 357.834 161.849 360.078C155.076 362.184 148.584 364.22 135.293 364.11C122.33 364.003 115.739 360.59 108.384 357.536C104.623 355.974 100.571 354.475 95.5664 353.818C90.8653 353.201 85.5296 353.352 78.9238 354.645L77.5859 354.919C62.0302 358.239 51.7801 364.936 44.9521 367.703C41.4059 369.14 38.5825 369.713 35.6104 369.268C32.5739 368.814 28.8159 367.209 23.6455 363.195L23.6436 363.194C20.1563 360.488 19.487 358.449 19.4424 356.909C19.386 354.958 20.2684 352.543 22.2305 348.969C25.8019 342.465 32.8332 332.823 32.9355 320.708C33.0328 309.207 30.6045 303.228 28.3135 297.637C26.2268 292.545 24.2776 287.841 24.3555 278.048C24.4383 268.258 26.4619 263.586 28.6309 258.528C31.0118 252.976 33.5375 247.038 33.6348 235.538C33.732 224.032 31.3047 218.051 29.0137 212.459C26.927 207.365 24.9778 202.661 25.0557 192.868C25.1384 183.073 27.1643 178.399 29.335 173.337C31.7175 167.78 34.2428 161.837 34.335 150.328C34.4322 138.822 32.0049 132.841 29.7139 127.248C27.6271 122.153 25.6769 117.446 25.7549 107.647C25.8377 97.8416 27.8634 93.1642 30.0322 88.1033C32.4131 82.5476 34.9379 76.6066 35.0352 65.0974C35.1374 52.9765 28.2635 43.2187 24.7979 36.6531C22.894 33.0462 22.0502 30.6133 22.1387 28.6599C22.2088 27.1152 22.9142 25.0822 26.4482 22.4275C31.4671 18.6571 35.2426 17.559 38.373 17.5535Z" stroke="#FFD95F" stroke-width="9"/>
<path d="M447.536 281.44C447.556 278.88 447.436 277.36 447.096 275.86C446.946 275.18 446.276 274.76 445.596 274.92C445.016 275.05 444.616 275.57 444.616 276.14C444.616 276.21 444.616 276.28 444.636 276.35C444.776 276.95 444.876 277.56 444.936 278.27C445.016 279.13 445.046 280.14 445.036 281.43C445.026 282.12 445.586 282.69 446.276 282.7C446.966 282.7 447.526 282.14 447.536 281.44ZM443.546 266.6C443.546 266.45 443.526 266.3 443.466 266.15C442.856 264.49 442.366 263.03 441.926 261.55C441.726 260.89 441.026 260.51 440.366 260.71C439.826 260.87 439.476 261.37 439.466 261.9C439.466 262.01 439.476 262.13 439.506 262.24C439.756 263.06 439.996 263.85 440.256 264.61C440.536 265.45 440.826 266.25 441.106 267.02C441.346 267.68 442.076 268.01 442.716 267.77C443.236 267.59 443.546 267.11 443.546 266.6ZM439.856 252.29C439.856 252.23 439.856 252.16 439.846 252.1C439.596 250.45 439.406 248.88 439.276 247.26C439.226 246.58 438.616 246.06 437.916 246.13C437.266 246.19 436.766 246.74 436.766 247.38C436.766 247.38 436.766 247.4 436.766 247.41C436.846 248.29 436.926 249.15 437.026 249.98C437.026 250.01 437.026 250.03 437.036 250.05C437.136 250.88 437.246 251.69 437.356 252.48C437.456 253.16 438.096 253.63 438.776 253.54C439.396 253.43 439.846 252.9 439.856 252.29ZM439.216 232.53C439.226 231.88 438.726 231.33 438.066 231.28C437.376 231.22 436.766 231.74 436.706 232.43C436.696 232.51 436.696 232.6 436.686 232.69C436.686 232.72 436.686 232.76 436.676 232.79C436.676 232.8 436.676 232.8 436.676 232.8C436.626 233.48 436.586 234.16 436.556 234.86C436.536 235.28 436.516 235.7 436.506 236.12C436.486 236.59 436.476 237.06 436.466 237.53C436.496 238.18 437.026 238.71 437.696 238.72C438.386 238.73 438.966 238.19 438.976 237.49C439.016 235.76 439.096 234.12 439.216 232.61C439.216 232.59 439.216 232.56 439.216 232.53ZM441.696 217.94C441.696 217.39 441.336 216.88 440.776 216.72C440.136 216.54 439.466 216.9 439.246 217.52C439.156 217.85 439.066 218.18 438.976 218.51C438.646 219.76 438.336 221.07 438.056 222.48C438.036 222.56 438.026 222.64 438.026 222.72C438.016 223.31 438.436 223.83 439.026 223.96C439.706 224.1 440.366 223.66 440.506 222.98C440.836 221.39 441.216 219.79 441.646 218.27C441.676 218.17 441.696 218.05 441.696 217.94ZM446.926 203.98C446.926 203.48 446.626 203 446.136 202.8C445.496 202.54 444.766 202.86 444.506 203.5C444.466 203.6 444.416 203.7 444.376 203.81C444.226 204.18 444.056 204.58 443.876 205.01C443.836 205.1 443.806 205.18 443.766 205.27C443.686 205.46 443.596 205.66 443.516 205.86C443.196 206.6 442.866 207.38 442.516 208.22C442.476 208.34 442.456 208.47 442.456 208.59C442.446 209.08 442.746 209.56 443.236 209.77C443.876 210.04 444.606 209.73 444.876 209.09C445.206 208.3 445.526 207.56 445.826 206.86L446.076 206.24C446.366 205.55 446.616 204.97 446.836 204.42C446.896 204.28 446.926 204.13 446.926 203.98ZM448.186 193.56C448.186 193.53 448.186 193.5 448.186 193.47C448.046 191.18 447.616 189.67 446.916 187.85C446.666 187.2 445.946 186.88 445.296 187.13C444.796 187.32 444.486 187.79 444.486 188.3C444.486 188.43 444.506 188.55 444.546 188.68C444.766 189.26 444.956 189.78 445.106 190.28V190.29C445.116 190.31 445.126 190.34 445.136 190.37C445.436 191.39 445.606 192.35 445.686 193.62C445.726 194.32 446.326 194.84 447.016 194.8C447.666 194.75 448.176 194.21 448.186 193.56ZM443.406 178.99C443.406 178.85 443.386 178.72 443.346 178.59C442.806 176.98 442.356 175.46 441.966 173.94C441.796 173.27 441.116 172.87 440.446 173.04C439.886 173.18 439.506 173.69 439.506 174.24C439.506 174.34 439.516 174.45 439.546 174.56C439.716 175.2 439.876 175.83 440.056 176.43C440.066 176.45 440.066 176.47 440.076 176.5C440.076 176.51 440.086 176.53 440.086 176.54C440.386 177.57 440.696 178.55 441.006 179.48C441.256 180.07 441.936 180.38 442.556 180.18C443.066 180 443.396 179.5 443.406 178.99ZM440.216 164.55C440.216 164.5 440.216 164.45 440.206 164.4C440.016 162.8 439.876 161.17 439.786 159.53C439.746 158.84 439.156 158.31 438.466 158.35C437.796 158.39 437.286 158.94 437.286 159.59C437.286 159.62 437.286 159.65 437.286 159.67C437.306 160.1 437.336 160.52 437.366 160.94C437.366 161 437.376 161.05 437.376 161.11C437.376 161.14 437.376 161.18 437.386 161.22C437.416 161.63 437.456 162.04 437.486 162.44C437.556 163.2 437.636 163.95 437.716 164.68C437.786 165.38 438.416 165.87 439.096 165.79C439.746 165.71 440.206 165.18 440.216 164.55ZM440.136 144.78C440.136 144.14 439.666 143.6 439.006 143.53C438.316 143.45 437.696 143.96 437.626 144.65C437.496 145.94 437.376 147.28 437.296 148.67C437.276 149.01 437.256 149.36 437.246 149.7C437.236 150.37 437.766 150.94 438.446 150.97C439.136 151.01 439.726 150.47 439.756 149.78C439.846 148.15 439.966 146.5 440.126 144.91C440.136 144.86 440.136 144.82 440.136 144.78ZM443.116 130.29C443.116 129.75 442.776 129.26 442.236 129.09C441.576 128.88 440.866 129.25 440.656 129.9C440.176 131.39 439.726 133.01 439.316 134.74C439.286 134.84 439.276 134.93 439.276 135.02C439.276 135.59 439.656 136.11 440.236 136.25C440.906 136.41 441.586 135.99 441.746 135.32C442.116 133.8 442.536 132.27 443.046 130.66C443.096 130.53 443.116 130.41 443.116 130.29ZM448.476 116.13C448.476 115.55 448.086 115.03 447.506 114.89C446.826 114.73 446.156 115.16 446.006 115.83C445.996 115.86 445.986 115.9 445.976 115.93C445.966 115.96 445.966 115.99 445.956 116.01V116.02C445.856 116.44 445.726 116.85 445.586 117.28C445.576 117.3 445.566 117.32 445.566 117.35C445.556 117.36 445.556 117.38 445.546 117.39C445.236 118.29 444.806 119.27 444.246 120.58C444.196 120.72 444.166 120.86 444.166 121C444.166 121.49 444.446 121.97 444.936 122.17C445.566 122.44 446.316 122.15 446.576 121.5C447.476 119.38 448.076 117.98 448.446 116.38C448.466 116.31 448.476 116.22 448.476 116.13ZM448.476 105.56C448.476 105.46 448.466 105.35 448.436 105.25C448.226 104.4 447.946 103.57 447.586 102.65C447.606 102.64 447.626 102.63 447.646 102.62C447.976 102.48 448.106 102.35 448.106 102.21C448.106 101.88 447.416 101.5 446.956 100.87C446.936 100.69 446.836 100.5 446.666 100.33L446.646 100.28L446.616 100.21C446.346 99.5797 445.606 99.2497 444.966 99.5197C444.476 99.6997 444.186 100.16 444.186 100.64C444.186 100.8 444.216 100.96 444.286 101.12C444.296 101.14 444.306 101.17 444.306 101.17C444.316 101.19 444.326 101.22 444.336 101.24C444.336 101.25 444.346 101.27 444.356 101.28H444.366C444.366 101.29 444.366 101.28 444.376 101.29C444.376 101.29 444.366 101.29 444.366 101.28C444.376 101.3 444.386 101.32 444.396 101.34C445.196 103.31 445.706 104.56 446.016 105.82C446.176 106.5 446.866 106.91 447.536 106.74C448.086 106.63 448.476 106.12 448.476 105.56ZM443.336 91.3496C443.336 91.2296 443.326 91.1097 443.286 90.9897C442.806 89.3797 442.416 87.8398 442.096 86.2998C441.956 85.6198 441.286 85.1898 440.606 85.3298C440.026 85.4598 439.626 85.9798 439.616 86.5598C439.616 86.6498 439.626 86.7398 439.646 86.8198C439.826 87.6898 440.036 88.5198 440.236 89.3198C440.246 89.3398 440.246 89.3696 440.256 89.3896C440.266 89.3996 440.266 89.4197 440.266 89.4397C440.476 90.2397 440.686 91.0197 440.906 91.7697C441.136 92.3897 441.806 92.7298 442.436 92.5398C442.976 92.3898 443.326 91.8896 443.336 91.3496ZM440.666 76.7998C440.666 76.7598 440.666 76.7197 440.666 76.6797C440.526 75.1697 440.436 73.5298 440.396 71.7998C440.386 71.1098 439.806 70.5696 439.116 70.5896C438.436 70.6096 437.896 71.1696 437.886 71.8396C437.886 71.8496 437.886 71.8596 437.886 71.8796C437.936 73.6296 438.026 75.2996 438.166 76.8896C438.226 77.5796 438.836 78.0898 439.526 78.0298C440.166 77.9898 440.656 77.4398 440.666 76.7998ZM441.566 57.1696C441.566 56.5796 441.166 56.0597 440.566 55.9397C439.916 55.7997 439.256 56.1996 439.086 56.8496C439.016 57.1696 438.956 57.4998 438.886 57.8298C438.716 58.7298 438.566 59.6398 438.426 60.5698C438.426 60.5798 438.426 60.6096 438.416 60.6196C438.416 60.6296 438.416 60.6296 438.416 60.6296C438.356 61.0596 438.296 61.5097 438.246 61.9497C438.246 61.9697 438.246 61.9797 438.246 61.9997C438.246 62.6297 438.716 63.1897 439.356 63.2697C440.046 63.3497 440.666 62.8697 440.756 62.1797C440.956 60.5997 441.216 58.9897 441.536 57.4297C441.556 57.3297 441.566 57.2496 441.566 57.1696ZM430.436 57.9297C430.436 57.8597 430.426 57.7797 430.416 57.6997C430.296 57.0197 429.646 56.5597 428.966 56.6897C427.396 56.9497 425.776 57.1696 424.166 57.3396C423.526 57.4096 423.046 57.9498 423.036 58.5798C423.036 58.6298 423.036 58.6697 423.046 58.7197C423.116 59.4097 423.726 59.8998 424.416 59.8298C424.906 59.7798 425.396 59.7296 425.886 59.6696C427.096 59.5196 428.286 59.3496 429.436 59.1396C430.026 59.0196 430.436 58.5097 430.436 57.9297ZM415.676 58.9096C415.686 58.2196 415.136 57.6596 414.456 57.6396C412.786 57.6096 411.136 57.5397 409.526 57.4497C408.836 57.4097 408.246 57.9396 408.206 58.6296C408.206 58.6496 408.206 58.6697 408.206 58.6897C408.196 59.3497 408.726 59.9097 409.386 59.9397C410.986 60.0297 412.646 60.1096 414.396 60.1396C415.096 60.1596 415.666 59.6096 415.676 58.9196C415.676 58.9296 415.676 58.9196 415.676 58.9096ZM400.816 57.7097C400.826 57.0897 400.366 56.5497 399.736 56.4597C398.126 56.2197 396.556 55.9496 394.916 55.6296C394.236 55.4996 393.576 55.9396 393.446 56.6196C393.436 56.6896 393.426 56.7696 393.426 56.8496C393.426 57.4096 393.786 57.9198 394.336 58.0698C395.936 58.3898 397.626 58.6897 399.436 58.9497C400.106 59.0097 400.716 58.5496 400.816 57.8796C400.816 57.8196 400.816 57.7697 400.816 57.7097ZM386.326 54.4297C386.326 53.8797 385.976 53.3797 385.436 53.2197C383.666 52.6697 382.046 52.1497 380.706 51.7097C380.046 51.4897 379.336 51.8497 379.126 52.5097C379.086 52.6297 379.066 52.7696 379.066 52.8896C379.056 53.3996 379.366 53.8798 379.856 54.0698C380.506 54.2898 381.176 54.5097 381.856 54.7297C382.766 55.0197 383.716 55.3296 384.696 55.6196C385.366 55.8296 386.066 55.4498 386.266 54.7898C386.306 54.6598 386.326 54.5397 386.326 54.4297ZM371.696 50.2397C371.696 49.6297 371.256 49.0897 370.636 48.9897C369.036 48.7197 367.326 48.5497 365.386 48.4397C364.696 48.3897 364.096 48.9196 364.066 49.6096C364.066 49.6296 364.066 49.6496 364.066 49.6696C364.066 50.2996 364.526 50.8397 365.146 50.9297C365.796 50.9697 366.416 51.0098 367.016 51.0598C368.096 51.1498 369.076 51.2796 370.006 51.4196C370.096 51.4296 370.186 51.4497 370.276 51.4597C370.956 51.5597 371.586 51.0896 371.696 50.4196C371.686 50.3596 371.696 50.2997 371.696 50.2397ZM356.386 49.6997C356.386 49.6697 356.386 49.6396 356.386 49.6096C356.336 48.9096 355.736 48.3897 355.056 48.4397C353.186 48.5597 351.456 48.7598 349.776 49.0698C349.176 49.1798 348.756 49.6998 348.746 50.2998C348.746 50.3798 348.756 50.4598 348.766 50.5298C348.886 51.2198 349.546 51.6598 350.226 51.5298C351.716 51.2598 353.326 51.0697 355.216 50.9397C355.866 50.8997 356.376 50.3497 356.386 49.6997ZM341.426 52.9997C341.426 52.8697 341.406 52.7496 341.366 52.6196C341.166 51.9496 340.456 51.5898 339.796 51.7898C338.006 52.3498 336.496 52.7897 335.066 53.1897C334.516 53.3397 334.146 53.8496 334.146 54.3996C334.146 54.5096 334.156 54.6197 334.186 54.7397C334.376 55.4097 335.056 55.7996 335.726 55.5996C337.426 55.1296 339.026 54.6497 340.536 54.1897C341.076 54.0197 341.426 53.5297 341.426 52.9997ZM326.976 56.5598C326.976 56.4898 326.966 56.4096 326.956 56.3396C326.846 55.6496 326.196 55.1898 325.506 55.3098C323.946 55.5698 322.316 55.7897 320.666 55.9897C320.036 56.0697 319.566 56.5997 319.556 57.2197C319.556 57.2697 319.556 57.3296 319.566 57.3896C319.646 58.0796 320.266 58.5697 320.956 58.4797C322.696 58.2797 324.336 58.0398 325.896 57.7898C325.906 57.7898 325.926 57.7798 325.946 57.7798C326.536 57.6698 326.966 57.1498 326.976 56.5598ZM312.156 57.9697C312.156 57.9497 312.156 57.9397 312.156 57.9297C312.136 57.2397 311.556 56.6897 310.856 56.7097C309.186 56.7597 307.516 56.7798 305.926 56.7798C305.236 56.7798 304.676 57.3398 304.666 58.0298C304.666 58.0398 304.666 58.0398 304.666 58.0398C304.656 58.6998 305.176 59.2498 305.836 59.2898C307.646 59.2998 309.376 59.2697 311.036 59.2197C311.656 59.1397 312.156 58.6097 312.156 57.9697ZM297.226 57.6596C297.226 57.0196 296.726 56.4596 296.066 56.4096C294.396 56.2896 292.746 56.1297 291.176 55.9497C290.486 55.8797 289.866 56.3698 289.786 57.0598C289.786 57.0998 289.776 57.1497 289.776 57.1897C289.776 57.8197 290.246 58.3697 290.886 58.4397C292.466 58.6197 294.126 58.7896 295.886 58.9096C296.576 58.9696 297.176 58.4497 297.226 57.7497C297.226 57.7197 297.226 57.6896 297.226 57.6596ZM282.506 55.5598C282.506 54.9798 282.116 54.4598 281.516 54.3298C279.966 53.9898 278.416 53.5996 276.776 53.1496C276.106 52.9696 275.416 53.3598 275.226 54.0298C275.196 54.1398 275.186 54.2496 275.186 54.3596C275.186 54.8996 275.536 55.4098 276.066 55.5698C276.146 55.5898 276.216 55.6196 276.296 55.6396C277.766 56.0296 279.326 56.4298 280.976 56.7898C281.656 56.9398 282.326 56.5098 282.476 55.8298C282.496 55.7398 282.506 55.6498 282.506 55.5598ZM268.166 51.3996C268.166 50.8596 267.836 50.3697 267.306 50.1897C265.496 49.5997 263.946 49.1297 262.296 48.7297C261.626 48.5697 260.946 48.9796 260.776 49.6596C260.756 49.7596 260.746 49.8497 260.736 49.9397C260.736 50.5097 261.116 51.0196 261.696 51.1596C262.136 51.2696 262.556 51.3797 262.986 51.4897C264.166 51.8197 265.336 52.1896 266.596 52.5896C267.236 52.7496 267.896 52.3897 268.096 51.7497C268.146 51.6397 268.166 51.5096 268.166 51.3996ZM253.056 48.6897C253.056 48.0097 252.526 47.4496 251.836 47.4196C251.056 47.3896 250.216 47.3896 249.346 47.3796C248.406 47.3796 247.536 47.3796 246.696 47.3896C246.016 47.4096 245.466 47.9496 245.466 48.6296C245.466 48.6396 245.466 48.6496 245.466 48.6596C245.476 49.3296 246.006 49.8696 246.666 49.8896C247.496 49.8796 248.376 49.8696 249.326 49.8796C249.766 49.8796 250.196 49.8896 250.616 49.8996C251.006 49.9096 251.386 49.9096 251.756 49.9196C252.446 49.9496 253.026 49.4097 253.056 48.7097C253.046 48.7097 253.046 48.6997 253.056 48.6897ZM237.736 49.7898C237.736 49.6898 237.726 49.5897 237.706 49.4897C237.546 48.8097 236.876 48.3998 236.206 48.5498C234.426 48.9698 232.746 49.4697 231.206 49.9397C230.676 50.1097 230.326 50.5996 230.316 51.1296C230.316 51.2496 230.336 51.3797 230.366 51.5097C230.566 52.1697 231.276 52.5496 231.926 52.3496C233.136 51.9696 234.266 51.6396 235.396 51.3396C235.866 51.2196 236.326 51.0997 236.806 50.9997C237.356 50.8497 237.726 50.3498 237.736 49.7898ZM223.236 53.9697C223.236 53.8597 223.226 53.7596 223.196 53.6396C223.016 52.9696 222.336 52.5697 221.666 52.7397C220.106 53.1397 218.506 53.5096 216.896 53.8396C216.306 53.9596 215.896 54.4798 215.896 55.0598C215.896 55.1498 215.906 55.2398 215.926 55.3198C216.066 55.9998 216.726 56.4398 217.406 56.2898C217.566 56.2598 217.726 56.2297 217.886 56.1897C218.836 55.9997 219.746 55.7998 220.626 55.5798C221.196 55.4498 221.756 55.2996 222.296 55.1596C222.856 55.0296 223.236 54.5297 223.236 53.9697ZM208.606 56.5398C208.606 56.4998 208.606 56.4496 208.596 56.3996C208.526 55.7196 207.916 55.2098 207.236 55.2798C205.536 55.4398 203.936 55.5596 202.326 55.6496C201.666 55.6796 201.146 56.2396 201.136 56.8996C201.136 56.9196 201.136 56.9497 201.136 56.9697C201.176 57.6597 201.766 58.1896 202.456 58.1496C204.216 58.0496 205.886 57.9297 207.466 57.7697C208.116 57.7097 208.606 57.1798 208.606 56.5398ZM193.696 57.0996C193.696 56.4196 193.156 55.8596 192.466 55.8396C190.756 55.8096 189.106 55.7497 187.526 55.6797C186.836 55.6497 186.246 56.1896 186.216 56.8796C186.216 56.8996 186.216 56.9197 186.216 56.9297C186.216 57.5797 186.706 58.1297 187.356 58.1797C187.486 58.1897 187.606 58.1897 187.736 58.1997C188.986 58.2497 190.276 58.2898 191.606 58.3298C191.916 58.3298 192.226 58.3396 192.526 58.3496C193.176 58.3096 193.696 57.7796 193.706 57.1196C193.696 57.1096 193.696 57.1096 193.696 57.0996ZM178.826 56.0498C178.836 55.4298 178.376 54.8798 177.746 54.7998C176.016 54.5598 174.396 54.2998 172.906 54.0298C172.226 53.8998 171.566 54.3498 171.436 55.0298C171.426 55.0998 171.416 55.1797 171.416 55.2597C171.406 55.8397 171.796 56.3397 172.366 56.4797C173.616 56.7197 174.936 56.9296 176.316 57.1396C176.326 57.1396 176.326 57.1396 176.336 57.1396C176.376 57.1496 176.426 57.1496 176.466 57.1496C176.776 57.1996 177.096 57.2398 177.406 57.2798C178.086 57.3798 178.726 56.8897 178.816 56.2097C178.826 56.1597 178.826 56.0998 178.826 56.0498ZM164.296 52.9397C164.296 52.3897 163.946 51.8897 163.396 51.7297C161.716 51.2297 160.136 50.7297 158.686 50.2497C158.036 50.0397 157.316 50.3998 157.106 51.0598C157.066 51.1898 157.046 51.3197 157.046 51.4397C157.046 51.9797 157.376 52.4696 157.906 52.6396C158.006 52.6696 158.106 52.6997 158.196 52.7397C158.886 52.9597 159.586 53.1796 160.306 53.4096C161.076 53.6496 161.866 53.8896 162.696 54.1396C163.356 54.3396 164.056 53.9598 164.246 53.2898C164.276 53.1698 164.296 53.0497 164.296 52.9397ZM149.746 48.6196C149.746 48.0196 149.326 47.4896 148.726 47.3796C147.036 47.0596 145.326 46.8297 143.476 46.6897C142.786 46.6397 142.186 47.1496 142.126 47.8496C142.126 47.8696 142.126 47.8997 142.126 47.9297C142.116 48.5497 142.576 49.0997 143.196 49.1897C145.116 49.3397 146.756 49.5596 148.266 49.8496C148.936 49.9796 149.586 49.5296 149.726 48.8496C149.736 48.7696 149.746 48.6896 149.746 48.6196ZM134.446 47.8098C134.446 47.7898 134.446 47.7697 134.446 47.7397C134.416 47.0497 133.826 46.5098 133.136 46.5398C131.216 46.6198 129.496 46.7898 127.866 47.0298C127.246 47.1298 126.806 47.6497 126.806 48.2497C126.806 48.3197 126.806 48.3797 126.816 48.4497C126.916 49.1397 127.566 49.6197 128.246 49.5097C128.346 49.4997 128.446 49.4897 128.556 49.4597C129.976 49.2597 131.536 49.1198 133.346 49.0398C133.966 48.9598 134.436 48.4298 134.446 47.8098ZM119.406 50.8198C119.406 50.6898 119.386 50.5697 119.346 50.4397C119.136 49.7797 118.436 49.4096 117.766 49.6196C116.316 50.0696 114.726 50.5598 113.026 51.0498C112.476 51.2098 112.116 51.7097 112.116 52.2497C112.116 52.3597 112.126 52.4796 112.166 52.5996C112.346 53.2496 113.006 53.6297 113.646 53.4797C113.946 53.3897 114.246 53.3097 114.546 53.2297C115.226 53.0297 115.886 52.8296 116.536 52.6296C117.236 52.4196 117.926 52.2097 118.596 51.9997C119.096 51.7997 119.406 51.3298 119.406 50.8198ZM104.976 54.5197C104.976 54.4397 104.966 54.3698 104.956 54.2898C104.836 53.6098 104.176 53.1498 103.496 53.2798C101.936 53.5698 100.316 53.8098 98.6559 54.0398C98.0259 54.1298 97.566 54.6598 97.566 55.2798C97.566 55.3398 97.5663 55.3997 97.5763 55.4597C97.6663 56.1397 98.2962 56.6198 98.9762 56.5298C100.506 56.3298 101.966 56.1096 103.336 55.8696C103.556 55.8296 103.766 55.7897 103.976 55.7597C104.566 55.6097 104.976 55.0997 104.976 54.5197ZM90.1759 56.0996C90.1759 56.0796 90.1759 56.0598 90.1759 56.0398C90.1459 55.3398 89.5563 54.8096 88.8663 54.8396C87.3263 54.8896 85.7062 54.9397 83.9362 54.9497C83.2462 54.9597 82.7059 55.5097 82.6959 56.1897C82.6959 56.1997 82.6959 56.2097 82.6959 56.2197C82.6959 56.8797 83.2061 57.4197 83.8561 57.4597C84.2361 57.4597 84.6062 57.4497 84.9762 57.4497C86.3562 57.4297 87.6862 57.3996 88.9762 57.3396C89.6462 57.3096 90.1659 56.7596 90.1759 56.0996ZM75.3361 55.6897C75.3461 55.0697 74.876 54.5197 74.236 54.4397C72.606 54.2397 70.9862 53.9897 69.4562 53.6797C68.7762 53.5497 68.116 53.9996 67.986 54.6696C67.976 54.7496 67.966 54.8196 67.966 54.8996C67.966 55.4896 68.3762 56.0296 68.9762 56.1396C70.2662 56.3896 71.5862 56.6098 72.9562 56.7998C72.9962 56.7998 73.026 56.8098 73.066 56.8198C73.076 56.8198 73.0961 56.8198 73.1061 56.8198C73.4061 56.8598 73.7162 56.8997 74.0162 56.9397C74.6762 56.9697 75.2563 56.4898 75.3263 55.8298C75.3363 55.7898 75.3361 55.7397 75.3361 55.6897ZM60.3761 59.1997C60.3761 59.1497 60.3763 59.0998 60.3663 59.0498C60.1863 57.3398 59.9559 55.6798 59.6559 54.0698C59.5359 53.3898 58.8859 52.9398 58.1959 53.0698C57.5959 53.1698 57.1761 53.6998 57.1661 54.2898C57.1661 54.3598 57.1762 54.4497 57.1862 54.5197C57.4762 56.1297 57.6961 57.7398 57.8561 59.2998C57.9261 59.9898 58.546 60.4896 59.236 60.4196C59.886 60.3596 60.3661 59.8297 60.3761 59.1997ZM60.5563 69.0197C60.5563 68.3597 60.0261 67.7897 59.3561 67.7697C58.6561 67.7397 58.0663 68.2697 58.0363 68.9697C57.9663 70.5697 57.8459 72.2096 57.6759 73.8396C57.6759 73.8796 57.6661 73.9097 57.6661 73.9497C57.6561 74.5997 58.146 75.1497 58.796 75.2197C59.456 75.2797 60.0459 74.8297 60.1559 74.1797C60.3459 72.5497 60.4763 70.8197 60.5563 69.0197ZM58.546 83.6997C58.546 83.1197 58.1661 82.5997 57.5861 82.4597C56.9061 82.2997 56.236 82.7196 56.066 83.3896C55.696 84.9496 55.276 86.4798 54.776 88.0698C54.736 88.1998 54.7262 88.3197 54.7262 88.4297C54.7262 88.9797 55.0661 89.4796 55.6061 89.6496C56.2661 89.8596 56.9759 89.4898 57.1759 88.8298C57.3559 88.2798 57.5262 87.7096 57.6862 87.1196C57.9862 86.0896 58.2663 85.0196 58.5363 83.8896C58.5463 83.8296 58.546 83.7597 58.546 83.6997ZM53.6862 97.7297C53.6962 97.2397 53.4059 96.7698 52.9259 96.5598C52.2859 96.2898 51.546 96.5797 51.276 97.2097C50.366 99.3197 49.7659 100.72 49.3859 102.29C49.3659 102.39 49.3561 102.49 49.3561 102.58C49.3561 103.15 49.736 103.67 50.316 103.81C50.986 103.97 51.6663 103.56 51.8263 102.88C51.8463 102.79 51.8761 102.69 51.8961 102.59C52.2261 101.34 52.7561 100.11 53.5861 98.1897C53.5961 98.1497 53.6161 98.1196 53.6261 98.0896C53.6661 97.9796 53.6862 97.8597 53.6862 97.7297ZM53.6261 118.26C53.6261 118.16 53.6161 118.06 53.5861 117.95C53.5261 117.8 53.4659 117.65 53.4059 117.51C53.3959 117.48 53.3863 117.45 53.3663 117.41C53.3563 117.41 53.3561 117.41 53.3561 117.4C53.3061 117.28 53.2562 117.15 53.2062 117.03C52.7962 116.03 52.4762 115.22 52.2062 114.48C52.1962 114.46 52.1962 114.44 52.1862 114.42C51.9962 113.88 51.856 113.38 51.736 112.87C51.586 112.2 50.916 111.78 50.236 111.93C49.656 112.07 49.266 112.58 49.256 113.15C49.256 113.24 49.2663 113.34 49.2863 113.43C49.6363 114.94 50.186 116.29 51.026 118.34L51.066 118.44C51.106 118.55 51.1762 118.69 51.2662 118.86C51.6262 119.45 52.4062 119.65 52.9962 119.3C53.4062 119.09 53.6261 118.68 53.6261 118.26ZM58.1661 132.18C58.1661 132.11 58.1661 132.03 58.1461 131.96C57.7561 130.17 57.3161 128.51 56.8561 126.98C56.6361 126.35 55.9663 126 55.3263 126.19C54.7763 126.35 54.4259 126.85 54.4259 127.39C54.4259 127.51 54.4362 127.63 54.4762 127.75C54.9362 129.29 55.3362 130.87 55.6862 132.44C55.8362 133.12 56.5062 133.54 57.1862 133.4C57.7562 133.26 58.1561 132.75 58.1661 132.18ZM59.9161 146.88C59.9161 146.87 59.9161 146.85 59.9161 146.84C59.8561 145.09 59.7661 143.42 59.6261 141.83C59.5661 141.14 58.9562 140.63 58.2662 140.69C57.6162 140.75 57.1263 141.29 57.1163 141.94C57.1163 141.98 57.1161 142.01 57.1261 142.05C57.2661 143.58 57.3559 145.23 57.4059 146.92C57.4259 147.62 58.0059 148.16 58.6959 148.14C59.3759 148.11 59.9161 147.55 59.9161 146.88ZM59.6959 156.78C59.7059 156.13 59.1963 155.57 58.5363 155.52C57.8463 155.47 57.2459 155.99 57.1959 156.68C57.0759 158.29 56.9062 159.91 56.6862 161.53C56.6762 161.58 56.6759 161.64 56.6759 161.69C56.6659 162.31 57.1262 162.86 57.7662 162.94C58.4562 163.03 59.0859 162.55 59.1759 161.86C59.3959 160.28 59.5759 158.62 59.6959 156.87C59.6959 156.85 59.6959 156.81 59.6959 156.78ZM57.216 171.37C57.216 170.81 56.846 170.3 56.296 170.15C55.626 169.97 54.936 170.35 54.756 171.03C54.316 172.59 53.846 174.11 53.296 175.65C53.256 175.78 53.2262 175.92 53.2262 176.05C53.2262 176.58 53.546 177.07 54.066 177.25C54.716 177.48 55.4259 177.14 55.6559 176.49C56.1859 175 56.7059 173.38 57.1959 171.62C57.2059 171.54 57.216 171.46 57.216 171.37ZM51.986 185.34C51.986 184.84 51.6959 184.36 51.1959 184.16C50.5559 183.9 49.826 184.22 49.566 184.86C48.746 186.92 48.406 188.4 48.256 190.48C48.256 190.5 48.256 190.53 48.256 190.55C48.246 191.21 48.7559 191.77 49.4259 191.82C50.1159 191.86 50.716 191.35 50.756 190.65C50.806 189.91 50.8962 189.28 50.9962 188.69C51.1962 187.69 51.4862 186.79 51.9362 185.67C51.9662 185.57 51.986 185.46 51.986 185.34ZM53.816 205.69C53.816 205.57 53.8062 205.44 53.7662 205.31C53.5662 204.82 53.3762 204.34 53.1862 203.88C53.1162 203.72 53.056 203.57 52.986 203.42C52.976 203.37 52.9562 203.32 52.9362 203.28C52.8562 203.09 52.7862 202.91 52.7062 202.73C52.3462 201.86 52.046 201.12 51.796 200.46C51.526 199.88 50.836 199.59 50.216 199.82C49.716 200.01 49.4159 200.48 49.4059 200.98C49.4059 201.13 49.4362 201.29 49.4962 201.44C49.7162 202.06 49.9963 202.72 50.3263 203.51L50.3961 203.69L50.6759 204.37C50.9059 204.94 51.1459 205.52 51.3859 206.14C51.6459 206.78 52.386 207.1 53.026 206.85C53.506 206.65 53.806 206.18 53.816 205.69ZM57.966 219.89C57.966 219.81 57.9559 219.73 57.9459 219.65C57.6759 218.15 57.3663 216.74 57.0363 215.4C56.9763 215.16 56.9161 214.93 56.8561 214.69C56.6661 214.05 55.9961 213.67 55.3361 213.84C54.7761 213.98 54.3961 214.49 54.3961 215.05C54.3961 215.16 54.4062 215.27 54.4362 215.38C54.8362 216.9 55.186 218.49 55.486 220.11C55.616 220.79 56.2659 221.25 56.9459 221.12C57.5459 221 57.966 220.48 57.966 219.89ZM59.256 234.65C59.256 234.65 59.256 234.64 59.256 234.63C59.246 233.34 59.2259 232.1 59.1759 230.88C59.1559 230.43 59.1361 229.97 59.1061 229.53C59.0261 228.88 58.456 228.39 57.776 228.42C57.116 228.46 56.5961 229.01 56.5861 229.67C56.5861 229.69 56.5863 229.72 56.5963 229.74C56.6763 231.35 56.726 233 56.736 234.64C56.746 235.34 57.296 235.9 58.006 235.89C58.696 235.89 59.256 235.34 59.256 234.65ZM58.776 244.53C58.786 243.9 58.2961 243.35 57.6461 243.28C56.9661 243.2 56.346 243.71 56.276 244.39C56.106 246.03 55.8863 247.65 55.6163 249.21C55.6063 249.28 55.6061 249.34 55.6061 249.41C55.6061 250.02 56.0359 250.56 56.6559 250.66C57.3059 250.77 57.9461 250.35 58.0861 249.7C58.1461 249.35 58.2062 249 58.2662 248.64C58.4562 247.37 58.626 246.05 58.776 244.65C58.766 244.61 58.766 244.57 58.776 244.53ZM55.7863 259.01C55.7863 258.48 55.4459 257.98 54.9059 257.81C54.2459 257.6 53.5363 257.97 53.3263 258.63C52.8763 260.07 52.3362 261.57 51.7062 263.21C51.6462 263.36 51.6161 263.51 51.6261 263.66C51.6161 264.16 51.9261 264.64 52.4161 264.84C53.0361 265.08 53.726 264.81 54.006 264.22C54.106 263.95 54.2163 263.68 54.3263 263.39C54.7863 262.15 55.2662 260.82 55.7262 259.39C55.7762 259.26 55.7863 259.14 55.7863 259.01ZM50.4259 273.19C50.4359 272.62 50.0359 272.09 49.4459 271.96C48.7659 271.8 48.0959 272.23 47.9459 272.9C47.6159 274.3 47.4959 275.76 47.4659 278.24V278.44C47.4559 279.14 48.0259 279.71 48.7159 279.71C49.3759 279.71 49.9162 279.21 49.9762 278.56C49.9762 278.46 49.9762 278.36 49.9762 278.26C49.9962 276.03 50.1059 274.66 50.4059 273.36C50.4159 273.3 50.4259 273.24 50.4259 273.19ZM54.0363 293.29C54.0363 293.17 54.026 293.04 53.986 292.92C53.326 291.12 52.6663 289.52 52.0763 288.08C51.7863 287.49 51.086 287.22 50.486 287.47C49.996 287.67 49.7062 288.14 49.7062 288.63C49.7062 288.79 49.726 288.95 49.796 289.11C50.436 290.67 50.9961 292.08 51.6061 293.71C51.8561 294.36 52.576 294.7 53.216 294.46C53.716 294.26 54.0363 293.79 54.0363 293.29ZM57.6862 307.6C57.6862 307.56 57.6862 307.51 57.6862 307.47C57.5362 306.44 57.3662 305.46 57.1862 304.5C57.0562 303.8 56.9162 303.12 56.7662 302.46C56.6262 301.78 55.956 301.35 55.276 301.5C54.696 301.63 54.2863 302.14 54.2863 302.72C54.2863 302.81 54.2963 302.9 54.3063 302.99C54.6663 304.62 54.9459 306.18 55.1759 307.77C55.2759 308.46 55.9261 308.93 56.6061 308.82C57.2461 308.74 57.6862 308.21 57.6862 307.6ZM58.5563 320.92C58.5563 320.78 58.5563 320.65 58.5563 320.51C58.5563 320.4 58.5563 320.29 58.5563 320.18C58.5563 320.17 58.5563 320.15 58.5563 320.14C58.5563 319.19 58.5462 318.25 58.5162 317.34C58.4562 316.69 57.8962 316.17 57.2262 316.19C56.5562 316.21 56.016 316.76 56.006 317.42C56.006 317.44 56.006 317.46 56.006 317.47C56.036 318.69 56.0463 319.82 56.0363 320.91C56.0363 321.38 56.016 321.86 56.006 322.34C56.006 322.34 56.006 322.35 56.006 322.36C55.996 323.04 56.5362 323.62 57.2262 323.64C57.8962 323.66 58.446 323.18 58.506 322.52C58.516 322.36 58.516 322.18 58.526 322.02C58.536 321.73 58.546 321.45 58.546 321.17C58.556 321.08 58.5663 321 58.5563 320.92ZM61.236 334.59C61.236 334.45 61.2161 334.31 61.1661 334.17C60.9361 333.52 60.226 333.17 59.566 333.4C59.326 333.48 59.0963 333.56 58.8663 333.64C58.3163 333.83 57.786 334.02 57.256 334.22C57.236 334.22 57.2159 334.23 57.1959 334.24C57.0659 334.29 56.926 334.34 56.796 334.39C56.926 333.8 57.0762 333.19 57.2062 332.58C57.2262 332.51 57.236 332.42 57.256 332.35C57.266 332.27 57.276 332.2 57.276 332.12C57.286 331.54 56.876 331.01 56.276 330.89C55.606 330.75 54.9363 331.19 54.7863 331.86C54.6363 332.52 54.4961 333.17 54.3361 333.82C54.2961 334.01 54.276 334.18 54.276 334.37C54.266 335.09 54.5759 335.79 55.1359 336.28C55.8259 336.9 56.8059 337.08 57.6759 336.76C58.4559 336.47 59.3161 336.15 60.3961 335.78C60.9061 335.59 61.226 335.11 61.236 334.59ZM75.5861 330.72C75.5861 330.64 75.576 330.55 75.566 330.47C75.436 329.82 74.8259 329.38 74.1759 329.45C73.7259 329.54 73.2763 329.63 72.8263 329.72C72.8163 329.73 72.7963 329.73 72.7863 329.73C72.7163 329.75 72.646 329.76 72.566 329.78C72.446 329.8 72.3262 329.83 72.2062 329.86C71.1662 330.08 70.1659 330.32 69.1759 330.56C68.6059 330.7 68.2262 331.21 68.2262 331.77C68.2262 331.87 68.2362 331.98 68.2662 332.08C68.4262 332.75 69.1163 333.16 69.7863 333C70.7963 332.75 71.7662 332.52 72.7262 332.32C73.3462 332.2 73.956 332.06 74.566 331.94C75.176 331.81 75.5861 331.3 75.5861 330.72ZM90.3263 329.13C90.3263 329.12 90.3263 329.12 90.3263 329.11C90.3163 328.44 89.7961 327.9 89.1261 327.87C88.5461 327.87 87.9761 327.89 87.3961 327.91C87.3461 327.91 87.2962 327.91 87.2462 327.91C87.1262 327.91 86.9961 327.92 86.8761 327.93C86.7861 327.93 86.6961 327.94 86.6061 327.94C86.5661 327.94 86.526 327.95 86.486 327.94C86.316 327.95 86.136 327.96 85.966 327.97C85.946 327.97 85.9361 327.97 85.9161 327.97C85.2961 328 84.6663 328.05 84.0363 328.09C83.3863 328.14 82.8859 328.68 82.8859 329.33C82.8859 329.37 82.8861 329.4 82.8961 329.44C82.9461 330.13 83.5562 330.65 84.2462 330.59C85.9362 330.46 87.5563 330.38 89.0963 330.36C89.7763 330.37 90.3263 329.81 90.3263 329.13ZM105.026 330.53C105.036 329.97 104.666 329.47 104.116 329.31C103.726 329.23 103.336 329.15 102.926 329.06C101.686 328.83 100.406 328.61 99.066 328.44C98.376 328.35 97.7559 328.83 97.6559 329.52C97.6459 329.57 97.6461 329.63 97.6461 329.68C97.6361 330.3 98.096 330.85 98.736 330.93C100.306 331.14 101.916 331.41 103.496 331.74C104.176 331.89 104.846 331.45 104.986 330.77C105.016 330.69 105.026 330.61 105.026 330.53ZM119.116 335.09C119.116 334.61 118.846 334.15 118.386 333.94C116.906 333.32 115.316 332.68 113.606 332.06C112.966 331.86 112.276 332.2 112.046 332.83C111.996 332.97 111.966 333.11 111.966 333.24C111.966 333.76 112.276 334.24 112.796 334.43C114.576 335.08 116.166 335.72 117.376 336.23C118.016 336.5 118.756 336.19 119.016 335.55C119.086 335.41 119.116 335.24 119.116 335.09ZM133.806 339.62C133.816 338.97 133.316 338.42 132.656 338.36C131.426 338.26 130.326 338.11 129.296 337.91C129.276 337.9 129.246 337.9 129.226 337.9C129.216 337.9 129.216 337.9 129.206 337.9C128.686 337.8 128.186 337.68 127.686 337.54C127.026 337.36 126.336 337.76 126.156 338.43C126.126 338.54 126.116 338.63 126.116 338.74C126.116 339.31 126.486 339.82 127.046 339.96C128.806 340.42 130.526 340.72 132.456 340.86C133.146 340.91 133.756 340.4 133.806 339.71C133.806 339.68 133.806 339.65 133.806 339.62ZM149.156 338.67C149.156 338.58 149.146 338.49 149.126 338.4C148.976 337.72 148.316 337.3 147.636 337.45C147.246 337.54 146.846 337.62 146.446 337.69C145.246 337.92 143.986 338.1 142.566 338.23C141.966 338.34 141.526 338.86 141.526 339.46C141.526 339.5 141.526 339.55 141.536 339.59C141.606 340.28 142.216 340.78 142.906 340.72C144.746 340.54 146.476 340.27 148.166 339.9C148.756 339.77 149.156 339.25 149.156 338.67ZM163.686 334.51C163.686 334.4 163.676 334.29 163.646 334.18C163.476 333.51 162.786 333.12 162.116 333.29C160.406 333.74 158.806 334.19 157.286 334.66C156.746 334.82 156.396 335.31 156.396 335.84C156.396 335.96 156.406 336.09 156.446 336.21C156.646 336.87 157.356 337.25 158.016 337.05C159.696 336.54 161.246 336.1 162.746 335.71C163.306 335.57 163.676 335.06 163.686 334.51ZM178.316 331.88C178.316 331.84 178.316 331.79 178.306 331.74C178.236 331.05 177.616 330.55 176.926 330.62C175.176 330.79 173.516 331.01 171.956 331.25C171.336 331.34 170.886 331.86 170.886 332.47C170.886 332.53 170.886 332.6 170.896 332.67C170.996 333.36 171.636 333.82 172.326 333.73C173.886 333.49 175.526 333.28 177.196 333.1C177.836 333.05 178.306 332.51 178.316 331.88ZM193.216 331.27C193.226 330.58 192.666 330.01 191.966 330C191.766 330 191.556 330 191.356 329.99C189.836 329.98 188.366 329.98 186.956 330.01C186.276 330.02 185.736 330.58 185.726 331.26C185.726 331.27 185.726 331.28 185.726 331.29C185.736 331.98 186.306 332.54 187.006 332.52C188.386 332.49 189.836 332.49 191.336 332.5H191.956C192.646 332.53 193.206 331.97 193.216 331.27ZM208.086 332.27C208.086 331.66 207.666 331.14 207.066 331.02C206.146 330.9 205.196 330.78 204.216 330.69C203.496 330.61 202.746 330.54 201.986 330.48C201.296 330.42 200.696 330.93 200.626 331.63C200.626 331.66 200.626 331.69 200.626 331.72C200.616 332.37 201.116 332.93 201.776 332.98C203.396 333.11 204.986 333.28 206.666 333.5C207.356 333.6 207.986 333.11 208.076 332.42C208.086 332.37 208.096 332.32 208.086 332.27ZM222.636 335.33C222.646 334.78 222.276 334.27 221.726 334.11C221.196 333.96 220.656 333.8 220.096 333.65C219.216 333.41 218.306 333.17 217.356 332.94C217.196 332.9 217.036 332.87 216.876 332.83C216.196 332.66 215.526 333.08 215.366 333.75C215.346 333.84 215.336 333.93 215.336 334.03C215.326 334.61 215.716 335.12 216.296 335.26C217.836 335.63 219.386 336.04 221.036 336.51C221.706 336.71 222.396 336.32 222.596 335.66C222.616 335.54 222.636 335.43 222.636 335.33ZM237.156 339.68C237.166 339.12 236.796 338.61 236.246 338.45C235.066 338.22 233.966 337.94 232.856 337.62C232.346 337.48 231.826 337.32 231.306 337.16C230.636 336.95 229.936 337.32 229.736 337.98C229.696 338.1 229.676 338.23 229.676 338.34C229.676 338.88 230.016 339.38 230.556 339.54C232.496 340.15 234.076 340.56 235.656 340.88C236.336 341.02 236.996 340.59 237.136 339.9C237.146 339.84 237.156 339.76 237.156 339.68ZM252.446 340.6C252.446 340.59 252.446 340.57 252.446 340.55C252.426 339.88 251.876 339.35 251.206 339.33C250.276 339.36 249.266 339.39 248.186 339.39C248.176 339.4 248.166 339.4 248.146 339.4C248.066 339.4 247.986 339.4 247.896 339.4C247.886 339.4 247.876 339.4 247.866 339.4C247.796 339.4 247.736 339.4 247.666 339.4C247.636 339.4 247.596 339.4 247.556 339.4C247.516 339.4 247.466 339.4 247.416 339.41C247.376 339.41 247.336 339.41 247.296 339.41C247.216 339.41 247.136 339.41 247.056 339.41C246.896 339.41 246.726 339.41 246.576 339.41C246.416 339.41 246.266 339.41 246.116 339.4C245.416 339.39 244.846 339.95 244.846 340.64C244.846 341.34 245.396 341.91 246.096 341.91L246.536 341.92H247.036C248.456 341.93 249.826 341.92 251.216 341.86C251.916 341.82 252.446 341.27 252.446 340.6ZM267.556 337.75C267.556 337.6 267.536 337.44 267.476 337.29C267.226 336.67 266.526 336.32 265.886 336.49C265.876 336.49 265.866 336.5 265.846 336.5C265.856 336.5 265.866 336.5 265.866 336.49C265.846 336.5 265.836 336.5 265.816 336.5C265.826 336.5 265.836 336.5 265.836 336.49L265.826 336.5C265.816 336.5 265.816 336.5 265.806 336.5C265.776 336.51 265.746 336.52 265.726 336.53C265.696 336.54 265.676 336.55 265.646 336.56C264.946 336.78 264.286 336.98 263.636 337.18C262.726 337.45 261.846 337.71 260.966 337.94C260.456 338.12 260.126 338.59 260.126 339.11C260.126 339.22 260.136 339.34 260.166 339.44C260.346 340.12 261.026 340.52 261.696 340.34C263.226 339.94 264.696 339.49 266.406 338.96L266.536 338.92C266.566 338.91 266.596 338.9 266.616 338.89C266.656 338.87 266.686 338.86 266.716 338.85C267.236 338.68 267.556 338.24 267.556 337.75ZM281.946 333.95C281.946 333.88 281.946 333.79 281.926 333.72C281.806 333.04 281.156 332.58 280.476 332.7C280.416 332.71 280.346 332.72 280.276 332.74C279.586 332.87 278.906 333 278.256 333.14C277.306 333.34 276.396 333.55 275.516 333.76C274.966 333.91 274.586 334.41 274.586 334.96C274.586 335.05 274.596 335.16 274.616 335.26C274.776 335.93 275.456 336.35 276.126 336.19C277.746 335.8 279.306 335.46 280.906 335.17C281.516 335.06 281.946 334.54 281.946 333.95ZM296.736 332.31C296.736 332.29 296.736 332.27 296.736 332.25C296.706 331.59 296.166 331.06 295.516 331.04C295.136 331.06 294.766 331.08 294.396 331.09C293.006 331.17 291.686 331.26 290.406 331.38C289.756 331.43 289.266 331.98 289.256 332.62C289.256 332.66 289.256 332.7 289.256 332.74C289.316 333.43 289.926 333.94 290.616 333.88C292.126 333.74 293.776 333.63 295.526 333.56C296.206 333.52 296.726 332.97 296.736 332.31ZM311.656 332.43C311.656 331.77 311.146 331.21 310.476 331.17C309.926 331.14 309.376 331.1 308.816 331.07C308.176 331.04 307.526 331.02 306.856 330.99C306.396 330.97 305.936 330.96 305.466 330.95C304.766 330.93 304.196 331.49 304.186 332.18C304.186 332.19 304.186 332.2 304.186 332.2C304.176 332.88 304.726 333.45 305.416 333.47C307.036 333.5 308.686 333.58 310.336 333.67C311.026 333.71 311.626 333.19 311.666 332.49C311.656 332.47 311.656 332.45 311.656 332.43ZM326.426 334.3C326.426 333.71 326.016 333.19 325.416 333.07C323.906 332.77 322.316 332.48 320.616 332.22C320.566 332.21 320.506 332.2 320.456 332.19C319.776 332.1 319.146 332.57 319.046 333.25C319.036 333.31 319.036 333.36 319.036 333.42C319.026 334.04 319.476 334.58 320.106 334.68C321.726 334.91 323.296 335.2 324.926 335.52C325.606 335.66 326.276 335.21 326.406 334.54C326.416 334.46 326.426 334.38 326.426 334.3ZM340.776 338.3C340.786 337.77 340.446 337.28 339.916 337.1C338.406 336.6 336.826 336.08 335.136 335.56C334.466 335.35 333.766 335.73 333.566 336.39C333.526 336.51 333.516 336.63 333.516 336.75C333.516 337.29 333.866 337.8 334.406 337.96C336.086 338.48 337.656 339 339.126 339.49C339.786 339.71 340.496 339.35 340.716 338.69C340.756 338.56 340.776 338.44 340.776 338.3ZM355.796 341.45C355.796 340.81 355.326 340.27 354.696 340.18C354.006 340.15 353.356 340.1 352.746 340.05C352.736 340.05 352.726 340.05 352.726 340.05C352.696 340.04 352.666 340.04 352.636 340.04C351.546 339.95 350.546 339.82 349.616 339.68C348.936 339.57 348.286 340.04 348.186 340.72C348.176 340.78 348.176 340.84 348.176 340.91C348.176 341.52 348.616 342.06 349.236 342.15C350.866 342.4 352.576 342.57 354.486 342.67C355.176 342.71 355.776 342.19 355.806 341.5C355.796 341.49 355.796 341.47 355.796 341.45ZM371.116 340.75C371.116 340.67 371.116 340.59 371.096 340.51C370.966 339.87 370.376 339.44 369.736 339.5C368.186 339.8 366.526 340.02 364.576 340.15C363.956 340.23 363.486 340.77 363.486 341.39C363.486 341.42 363.486 341.45 363.486 341.49C363.536 342.18 364.146 342.71 364.826 342.65C366.716 342.52 368.446 342.3 370.096 341.98C370.696 341.86 371.116 341.34 371.116 340.75ZM385.706 336.64C385.706 336.53 385.696 336.41 385.666 336.3C385.486 335.63 384.796 335.23 384.126 335.41C383.716 335.52 383.316 335.63 382.906 335.75C382.266 335.93 381.646 336.11 381.026 336.29C380.436 336.47 379.866 336.64 379.296 336.82C378.756 336.98 378.406 337.48 378.406 338.01C378.406 338.14 378.426 338.26 378.456 338.39C378.656 339.05 379.366 339.43 380.026 339.22C381.416 338.8 383.036 338.31 384.766 337.84C385.326 337.69 385.696 337.19 385.706 336.64ZM400.296 333.84C400.296 333.79 400.296 333.73 400.286 333.67C400.206 333.02 399.646 332.54 398.996 332.57C397.176 332.78 395.466 333.02 393.846 333.29C393.276 333.42 392.876 333.93 392.866 334.5C392.866 334.57 392.876 334.65 392.886 334.72C392.996 335.4 393.636 335.86 394.326 335.76C395.896 335.5 397.526 335.27 399.176 335.07C399.816 335 400.296 334.46 400.296 333.84ZM415.186 333.09C415.196 332.4 414.636 331.83 413.936 331.83C412.186 331.82 410.506 331.84 408.916 331.89C408.236 331.91 407.696 332.46 407.696 333.13C407.696 333.14 407.696 333.16 407.696 333.18C407.716 333.87 408.296 334.42 408.986 334.4C410.606 334.35 412.256 334.33 413.916 334.34C414.616 334.34 415.186 333.79 415.186 333.09ZM429.886 334.66C429.886 334.07 429.486 333.55 428.886 333.42C427.296 333.08 425.646 332.78 423.946 332.54C423.256 332.44 422.626 332.93 422.526 333.61C422.516 333.66 422.516 333.72 422.516 333.78C422.506 334.4 422.966 334.94 423.596 335.03C425.156 335.25 426.716 335.52 428.376 335.88C429.056 336.02 429.726 335.59 429.866 334.91C429.876 334.83 429.886 334.74 429.886 334.66ZM439.026 333.59C439.026 333.52 439.016 333.45 439.006 333.38C438.726 331.7 438.536 330.14 438.426 328.62C438.376 327.93 437.766 327.41 437.076 327.46C436.416 327.51 435.926 328.06 435.916 328.71C435.916 328.74 435.916 328.78 435.916 328.81C435.946 329.23 435.986 329.65 436.026 330.06C436.026 330.09 436.036 330.13 436.036 330.16C436.046 330.22 436.046 330.28 436.056 330.34C436.076 330.57 436.106 330.8 436.136 331.02C436.236 331.84 436.346 332.66 436.476 333.47V333.48C436.476 333.49 436.476 333.5 436.476 333.5C436.496 333.6 436.506 333.7 436.526 333.8C436.656 334.47 437.286 334.92 437.966 334.82C438.576 334.72 439.016 334.2 439.026 333.59ZM438.876 313.92C438.886 313.3 438.416 312.75 437.776 312.67C437.086 312.58 436.466 313.07 436.376 313.76C436.216 315.02 436.096 316.33 435.986 317.7C435.956 318.08 435.936 318.46 435.906 318.84C435.906 319.5 436.416 320.05 437.086 320.1C437.776 320.14 438.376 319.62 438.426 318.92C438.526 317.26 438.676 315.63 438.866 314.07C438.876 314.02 438.886 313.97 438.876 313.92ZM442.116 299.5C442.126 298.98 441.796 298.49 441.266 298.31C440.626 298.09 439.936 298.42 439.686 299.04C439.466 299.68 439.256 300.34 439.046 301.01C439.046 301.02 439.036 301.04 439.036 301.05C439.026 301.09 439.006 301.14 438.996 301.17C438.976 301.24 438.956 301.31 438.936 301.37C438.936 301.39 438.926 301.4 438.926 301.41C438.866 301.61 438.806 301.8 438.756 302C438.746 302.03 438.746 302.05 438.736 302.07C438.716 302.12 438.706 302.18 438.696 302.23C438.536 302.8 438.376 303.38 438.216 303.98C438.206 304.06 438.196 304.12 438.196 304.2C438.186 304.76 438.566 305.28 439.136 305.43C439.806 305.61 440.496 305.2 440.666 304.53C441.076 302.97 441.536 301.41 442.046 299.89C442.096 299.76 442.116 299.63 442.116 299.5ZM447.336 285.14C447.346 284.52 446.876 283.97 446.246 283.89C445.556 283.8 444.926 284.29 444.836 284.97C444.686 286.14 444.426 287.08 443.996 288.21C443.806 288.71 443.586 289.25 443.336 289.86C443.296 289.98 443.276 290.1 443.276 290.22C443.266 290.71 443.556 291.19 444.036 291.39C444.676 291.66 445.416 291.36 445.676 290.72C446.566 288.61 447.076 287.18 447.316 285.28C447.336 285.24 447.336 285.19 447.336 285.14Z" fill="#B9D142"/>
</svg>
