<svg width="497" height="389" viewBox="0 0 497 389" fill="none" xmlns="http://www.w3.org/2000/svg">
<rect x="10" y="10.0908" width="477" height="368" stroke="white" stroke-width="20"/>
<path d="M18.8506 15.6167C25.5743 10.5696 30.4672 9.79318 34.375 10.2417C38.8144 10.7513 43.0002 12.8964 48.5791 15.895L48.583 15.897C55.8256 19.785 64.8148 24.7146 77.5537 24.814V24.8149C92.1803 24.9372 99.6289 22.6468 107.002 20.3481C114.1 18.1453 120.963 15.9846 135.021 16.0991C149.083 16.2137 155.909 18.4854 162.966 20.8052V20.8062C170.299 23.2216 177.704 25.6378 192.331 25.7495V25.7505C206.955 25.8727 214.402 23.5837 221.781 21.2866L221.782 21.2876C228.869 19.0851 235.742 16.9211 249.808 17.0356C263.883 17.1502 270.719 19.4232 277.775 21.7427V21.7437C285.116 24.1582 292.521 26.5742 307.158 26.686V26.687C321.785 26.8093 329.234 24.5198 336.614 22.2222L336.613 22.2212C343.478 20.0879 350.143 17.9931 363.338 17.9683L364.636 17.9722C378.713 18.0868 385.56 20.36 392.615 22.6792C399.957 25.0941 407.37 27.511 422.007 27.6333L422.012 27.6343C434.765 27.7322 443.823 22.9654 451.147 19.1851L451.148 19.186C456.779 16.282 460.999 14.2049 465.449 13.7671C469.366 13.3818 474.249 14.2372 480.896 19.3931V19.3921C483.579 21.4757 484.847 23.2658 485.461 24.6235C486.053 25.9351 486.22 27.2481 486.048 28.7358C485.648 32.1925 483.605 35.921 480.748 40.8042L480.747 40.8052C477.268 46.7536 472.302 54.918 472.221 64.9429C472.127 76.2745 474.423 81.9818 476.802 87.7964C478.934 93.0078 481.129 98.2867 481.038 108.845V108.852C480.957 119.411 478.676 124.655 476.459 129.825L476.454 129.835C473.992 135.602 471.594 141.273 471.5 152.597C471.406 163.935 473.716 169.646 476.092 175.451C478.221 180.655 480.41 185.939 480.328 196.505C480.247 207.072 477.967 212.317 475.751 217.484C473.267 223.264 470.884 228.933 470.79 240.272V240.28C470.708 251.607 473.003 257.311 475.382 263.125L475.384 263.129C477.511 268.318 479.7 273.612 479.618 284.18C479.537 294.75 477.256 299.995 475.039 305.164C472.558 310.95 470.174 316.618 470.08 327.957V327.958C470 337.989 474.82 346.23 478.205 352.245L478.209 352.251C480.989 357.179 482.974 360.939 483.316 364.403C483.464 365.894 483.274 367.207 482.657 368.514C482.018 369.868 480.714 371.644 477.985 373.693L477.983 373.695C471.26 378.746 466.369 379.522 462.463 379.073C458.578 378.626 454.888 376.925 450.287 374.498L448.257 373.415C441 369.509 432.018 364.595 419.284 364.485H419.276C404.657 364.374 397.213 366.65 389.834 368.951C382.736 371.153 375.874 373.314 361.815 373.2C347.752 373.085 340.927 370.813 333.869 368.493H333.87C326.53 366.075 319.129 363.671 304.506 363.548C289.881 363.426 282.433 365.715 275.054 368.012C267.967 370.215 261.093 372.378 247.028 372.263C232.952 372.149 226.117 369.875 219.06 367.555H219.061C211.719 365.141 204.316 362.724 189.678 362.602C175.053 362.48 167.605 364.768 160.226 367.065C153.139 369.267 146.266 371.431 132.201 371.317H132.2C119.737 371.216 112.761 368.25 105.948 365.351H105.949C102.054 363.692 97.7062 361.809 92.4004 360.917C87.3133 360.063 81.713 360.159 74.7363 361.521L73.3223 361.81C61.9315 364.244 53.9125 368.244 47.4316 371.443L47.4258 371.447L47.4189 371.45C41.1935 374.538 37.031 376.482 32.6221 376.726C28.6986 376.943 23.5576 375.8 15.9531 369.898L15.9512 369.896L15.4639 369.509C13.1076 367.59 11.956 365.937 11.3809 364.665C10.7886 363.354 10.6229 362.043 10.7949 360.557C11.1949 357.104 13.2388 353.38 16.0957 348.502C19.5998 342.528 24.5324 334.379 24.626 324.364V324.356C24.72 313.023 22.424 307.314 20.0303 301.492H20.0293C17.9 296.297 15.7083 291.019 15.7988 280.464V280.458C15.8804 269.899 18.16 264.655 20.377 259.485C22.8529 253.711 25.2535 248.048 25.3369 236.712C25.4309 225.386 23.1351 219.678 20.7432 213.859H20.7441C18.612 208.648 16.4173 203.369 16.5078 192.81V192.804C16.5893 182.253 18.8666 177.008 21.082 171.842C23.5788 166.046 25.9626 160.366 26.0566 149.038C26.1507 137.7 23.8402 131.989 21.4648 126.184L21.4619 126.177L21.458 126.169L20.6611 124.211C18.8149 119.585 17.1472 114.378 17.2178 105.135C17.3084 94.5612 19.5907 89.3026 21.8066 84.1353C24.8575 77.044 24.5501 69.4726 24.626 60.3149V60.312C24.6984 51.254 22.827 44.4735 18.6514 37.0542V37.0532L17.6484 35.2573C15.4043 31.1878 13.8473 27.9284 13.5459 24.894C13.3976 23.4009 13.5855 22.0872 14.2002 20.7817C14.8362 19.4311 16.1338 17.6597 18.8506 15.6167Z" stroke="white" stroke-width="15"/>
<path d="M38.6152 17.5535C41.8697 17.5477 45.0806 18.7094 49.0889 20.7244C56.8553 24.6286 67.1024 31.6941 82.3809 31.8201C96.9794 31.9404 104.47 29.6251 111.68 27.3816C118.45 25.275 124.939 23.2398 138.23 23.3494C151.522 23.459 157.976 25.6012 164.71 27.8191C171.881 30.1813 179.332 32.6196 193.931 32.74C208.529 32.8604 216.022 30.5449 223.234 28.3015C230.007 26.1949 236.5 24.1597 249.791 24.2693C263.092 24.3789 269.552 26.5212 276.289 28.739C283.464 31.101 290.917 33.5395 305.521 33.6599C320.124 33.7803 327.617 31.4655 334.829 29.2205C341.601 27.1125 348.091 25.0738 361.381 25.1785V25.1794C374.687 25.2891 381.15 27.4312 387.892 29.6492C395.07 32.0112 402.528 34.4497 417.141 34.5701C432.428 34.696 442.791 27.8046 450.625 24.0291C454.668 22.0808 457.9 20.9715 461.159 21.03C464.294 21.0864 468.056 22.2461 473.02 26.0955C476.506 28.8033 477.177 30.8432 477.222 32.3845C477.278 34.3354 476.396 36.751 474.434 40.324C470.862 46.8273 463.83 56.4668 463.728 68.5818V68.5837C463.636 80.0838 466.064 86.0612 468.354 91.6511C470.439 96.7431 472.386 101.449 472.308 111.244C472.229 121.038 470.206 125.708 468.036 130.763C465.654 136.314 463.126 142.251 463.028 153.752V153.754C462.936 165.258 465.364 171.238 467.653 176.83C469.739 181.923 471.687 186.629 471.608 196.424C471.53 206.223 469.506 210.897 467.336 215.956C464.954 221.51 462.425 227.451 462.328 238.962V238.964C462.236 250.468 464.664 256.448 466.953 262.041C469.038 267.135 470.986 271.842 470.908 281.641C470.825 291.442 468.8 296.12 466.632 301.185C464.252 306.744 461.73 312.689 461.638 324.202C461.535 336.324 468.413 346.082 471.88 352.647C473.784 356.254 474.628 358.686 474.539 360.638C474.469 362.182 473.763 364.216 470.227 366.871L470.226 366.872C465.21 370.639 461.436 371.736 458.306 371.741C455.051 371.746 451.84 370.583 447.83 368.568C440.061 364.663 429.813 357.601 414.534 357.48H414.535C399.936 357.36 392.445 359.674 385.235 361.918C378.466 364.024 371.976 366.06 358.685 365.95C345.393 365.84 338.938 363.698 332.205 361.48C325.034 359.118 317.584 356.681 302.985 356.56C288.382 356.44 280.889 358.754 273.678 360.998C266.906 363.104 260.416 365.14 247.125 365.03C233.823 364.92 227.363 362.778 220.626 360.56C213.451 358.198 205.999 355.76 191.396 355.639C176.797 355.519 169.303 357.834 162.091 360.078C155.318 362.184 148.826 364.22 135.535 364.11C122.572 364.003 115.981 360.59 108.626 357.536C104.865 355.974 100.813 354.475 95.8086 353.818C91.1075 353.201 85.7718 353.352 79.166 354.645L77.8281 354.919C62.2724 358.239 52.0223 364.936 45.1943 367.703C41.648 369.14 38.8247 369.713 35.8525 369.268C32.8161 368.814 29.0581 367.209 23.8877 363.195L23.8857 363.194C20.3985 360.488 19.7292 358.449 19.6846 356.909C19.6282 354.958 20.5106 352.543 22.4727 348.969C26.0441 342.465 33.0754 332.823 33.1777 320.708C33.275 309.207 30.8467 303.228 28.5557 297.637C26.469 292.545 24.5197 287.841 24.5977 278.048C24.6805 268.258 26.7041 263.586 28.873 258.528C31.254 252.976 33.7797 247.038 33.877 235.538C33.9742 224.032 31.5469 218.051 29.2559 212.459C27.1692 207.365 25.22 202.661 25.2979 192.868C25.3806 183.073 27.4065 178.399 29.5771 173.337C31.9597 167.78 34.485 161.837 34.5771 150.328C34.6744 138.822 32.2471 132.841 29.9561 127.248C27.8693 122.153 25.9191 117.446 25.9971 107.647C26.0799 97.8416 28.1055 93.1642 30.2744 88.1033C32.6553 82.5476 35.1801 76.6066 35.2773 65.0974C35.3795 52.9765 28.5057 43.2187 25.04 36.6531C23.1362 33.0462 22.2924 30.6133 22.3809 28.6599C22.4509 27.1152 23.1564 25.0822 26.6904 22.4275C31.7093 18.6571 35.4848 17.559 38.6152 17.5535Z" stroke="#FFD95F" stroke-width="9"/>
<path d="M447.778 281.44C447.798 278.88 447.679 277.36 447.339 275.86C447.189 275.18 446.519 274.76 445.839 274.92C445.259 275.05 444.859 275.57 444.859 276.14C444.859 276.21 444.858 276.28 444.878 276.35C445.018 276.95 445.118 277.56 445.178 278.27C445.258 279.13 445.288 280.14 445.278 281.43C445.268 282.12 445.828 282.69 446.518 282.7C447.208 282.7 447.768 282.14 447.778 281.44ZM443.788 266.6C443.788 266.45 443.768 266.3 443.708 266.15C443.098 264.49 442.608 263.03 442.168 261.55C441.968 260.89 441.269 260.51 440.609 260.71C440.069 260.87 439.718 261.37 439.708 261.9C439.708 262.01 439.718 262.13 439.748 262.24C439.998 263.06 440.238 263.85 440.498 264.61C440.778 265.45 441.068 266.25 441.348 267.02C441.588 267.68 442.318 268.01 442.958 267.77C443.478 267.59 443.788 267.11 443.788 266.6ZM440.098 252.29C440.098 252.23 440.099 252.16 440.089 252.1C439.839 250.45 439.648 248.88 439.518 247.26C439.468 246.58 438.858 246.06 438.158 246.13C437.508 246.19 437.008 246.74 437.008 247.38C437.008 247.38 437.008 247.4 437.008 247.41C437.088 248.29 437.168 249.15 437.268 249.98C437.268 250.01 437.268 250.03 437.278 250.05C437.378 250.88 437.488 251.69 437.598 252.48C437.698 253.16 438.338 253.63 439.018 253.54C439.638 253.43 440.088 252.9 440.098 252.29ZM439.458 232.53C439.468 231.88 438.968 231.33 438.308 231.28C437.618 231.22 437.008 231.74 436.948 232.43C436.938 232.51 436.938 232.6 436.928 232.69C436.928 232.72 436.928 232.76 436.918 232.79C436.918 232.8 436.918 232.8 436.918 232.8C436.868 233.48 436.828 234.16 436.798 234.86C436.778 235.28 436.758 235.7 436.748 236.12C436.728 236.59 436.718 237.06 436.708 237.53C436.738 238.18 437.268 238.71 437.938 238.72C438.628 238.73 439.208 238.19 439.218 237.49C439.258 235.76 439.338 234.12 439.458 232.61C439.458 232.59 439.458 232.56 439.458 232.53ZM441.938 217.94C441.938 217.39 441.578 216.88 441.018 216.72C440.378 216.54 439.708 216.9 439.488 217.52C439.398 217.85 439.308 218.18 439.218 218.51C438.888 219.76 438.578 221.07 438.298 222.48C438.278 222.56 438.268 222.64 438.268 222.72C438.258 223.31 438.678 223.83 439.268 223.96C439.948 224.1 440.608 223.66 440.748 222.98C441.078 221.39 441.458 219.79 441.888 218.27C441.918 218.17 441.938 218.05 441.938 217.94ZM447.168 203.98C447.168 203.48 446.868 203 446.378 202.8C445.738 202.54 445.008 202.86 444.748 203.5C444.708 203.6 444.658 203.7 444.618 203.81C444.468 204.18 444.298 204.58 444.118 205.01C444.078 205.1 444.048 205.18 444.008 205.27C443.928 205.46 443.838 205.66 443.758 205.86C443.438 206.6 443.108 207.38 442.758 208.22C442.718 208.34 442.698 208.47 442.698 208.59C442.688 209.08 442.988 209.56 443.478 209.77C444.118 210.04 444.848 209.73 445.118 209.09C445.448 208.3 445.768 207.56 446.068 206.86L446.318 206.24C446.608 205.55 446.858 204.97 447.078 204.42C447.138 204.28 447.168 204.13 447.168 203.98ZM448.428 193.56C448.428 193.53 448.428 193.5 448.428 193.47C448.288 191.18 447.858 189.67 447.158 187.85C446.908 187.2 446.188 186.88 445.538 187.13C445.038 187.32 444.728 187.79 444.728 188.3C444.728 188.43 444.748 188.55 444.788 188.68C445.008 189.26 445.198 189.78 445.348 190.28V190.29C445.358 190.31 445.368 190.34 445.378 190.37C445.678 191.39 445.848 192.35 445.928 193.62C445.968 194.32 446.568 194.84 447.258 194.8C447.908 194.75 448.418 194.21 448.428 193.56ZM443.648 178.99C443.648 178.85 443.629 178.72 443.589 178.59C443.049 176.98 442.598 175.46 442.208 173.94C442.038 173.27 441.358 172.87 440.688 173.04C440.128 173.18 439.748 173.69 439.748 174.24C439.748 174.34 439.758 174.45 439.788 174.56C439.958 175.2 440.118 175.83 440.298 176.43C440.308 176.45 440.308 176.47 440.318 176.5C440.318 176.51 440.328 176.53 440.328 176.54C440.628 177.57 440.938 178.55 441.248 179.48C441.498 180.07 442.178 180.38 442.798 180.18C443.308 180 443.638 179.5 443.648 178.99ZM440.458 164.55C440.458 164.5 440.458 164.45 440.448 164.4C440.258 162.8 440.118 161.17 440.028 159.53C439.988 158.84 439.398 158.31 438.708 158.35C438.038 158.39 437.528 158.94 437.528 159.59C437.528 159.62 437.528 159.65 437.528 159.67C437.548 160.1 437.579 160.52 437.609 160.94C437.609 161 437.618 161.05 437.618 161.11C437.618 161.14 437.618 161.18 437.628 161.22C437.658 161.63 437.698 162.04 437.728 162.44C437.798 163.2 437.878 163.95 437.958 164.68C438.028 165.38 438.659 165.87 439.339 165.79C439.989 165.71 440.448 165.18 440.458 164.55ZM440.378 144.78C440.378 144.14 439.908 143.6 439.248 143.53C438.558 143.45 437.938 143.96 437.868 144.65C437.738 145.94 437.618 147.28 437.538 148.67C437.518 149.01 437.498 149.36 437.488 149.7C437.478 150.37 438.008 150.94 438.688 150.97C439.378 151.01 439.968 150.47 439.998 149.78C440.088 148.15 440.208 146.5 440.368 144.91C440.378 144.86 440.378 144.82 440.378 144.78ZM443.359 130.29C443.359 129.75 443.018 129.26 442.478 129.09C441.818 128.88 441.108 129.25 440.898 129.9C440.418 131.39 439.968 133.01 439.558 134.74C439.528 134.84 439.518 134.93 439.518 135.02C439.518 135.59 439.898 136.11 440.478 136.25C441.148 136.41 441.828 135.99 441.988 135.32C442.358 133.8 442.778 132.27 443.288 130.66C443.338 130.53 443.359 130.41 443.359 130.29ZM448.718 116.13C448.718 115.55 448.328 115.03 447.748 114.89C447.068 114.73 446.398 115.16 446.248 115.83C446.238 115.86 446.228 115.9 446.218 115.93C446.208 115.96 446.208 115.99 446.198 116.01V116.02C446.098 116.44 445.968 116.85 445.828 117.28C445.818 117.3 445.808 117.32 445.808 117.35C445.798 117.36 445.798 117.38 445.788 117.39C445.478 118.29 445.048 119.27 444.488 120.58C444.438 120.72 444.408 120.86 444.408 121C444.408 121.49 444.688 121.97 445.178 122.17C445.808 122.44 446.558 122.15 446.818 121.5C447.718 119.38 448.318 117.98 448.688 116.38C448.708 116.31 448.718 116.22 448.718 116.13ZM448.718 105.56C448.718 105.46 448.708 105.35 448.678 105.25C448.468 104.4 448.188 103.57 447.828 102.65C447.848 102.64 447.868 102.63 447.888 102.62C448.218 102.48 448.348 102.35 448.348 102.21C448.348 101.88 447.658 101.5 447.198 100.87C447.178 100.69 447.078 100.5 446.908 100.33L446.888 100.28L446.859 100.21C446.589 99.5797 445.848 99.2497 445.208 99.5197C444.718 99.6997 444.428 100.16 444.428 100.64C444.428 100.8 444.458 100.96 444.528 101.12C444.538 101.14 444.548 101.17 444.548 101.17C444.558 101.19 444.568 101.22 444.578 101.24C444.578 101.25 444.588 101.27 444.598 101.28H444.609C444.609 101.29 444.608 101.28 444.618 101.29C444.618 101.29 444.609 101.29 444.609 101.28C444.619 101.3 444.628 101.32 444.638 101.34C445.438 103.31 445.948 104.56 446.258 105.82C446.418 106.5 447.108 106.91 447.778 106.74C448.328 106.63 448.718 106.12 448.718 105.56ZM443.578 91.3496C443.578 91.2296 443.568 91.1097 443.528 90.9897C443.048 89.3797 442.659 87.8398 442.339 86.2998C442.199 85.6198 441.528 85.1898 440.848 85.3298C440.268 85.4598 439.869 85.9798 439.859 86.5598C439.859 86.6498 439.868 86.7398 439.888 86.8198C440.068 87.6898 440.278 88.5198 440.478 89.3198C440.488 89.3398 440.488 89.3696 440.498 89.3896C440.508 89.3996 440.508 89.4197 440.508 89.4397C440.718 90.2397 440.928 91.0197 441.148 91.7697C441.378 92.3897 442.048 92.7298 442.678 92.5398C443.218 92.3898 443.568 91.8896 443.578 91.3496ZM440.908 76.7998C440.908 76.7598 440.908 76.7197 440.908 76.6797C440.768 75.1697 440.678 73.5298 440.638 71.7998C440.628 71.1098 440.049 70.5696 439.359 70.5896C438.679 70.6096 438.138 71.1696 438.128 71.8396C438.128 71.8496 438.128 71.8596 438.128 71.8796C438.178 73.6296 438.268 75.2996 438.408 76.8896C438.468 77.5796 439.078 78.0898 439.768 78.0298C440.408 77.9898 440.898 77.4398 440.908 76.7998ZM441.808 57.1696C441.808 56.5796 441.408 56.0597 440.808 55.9397C440.158 55.7997 439.498 56.1996 439.328 56.8496C439.258 57.1696 439.198 57.4998 439.128 57.8298C438.958 58.7298 438.808 59.6398 438.668 60.5698C438.668 60.5798 438.668 60.6096 438.658 60.6196C438.658 60.6296 438.658 60.6296 438.658 60.6296C438.598 61.0596 438.538 61.5097 438.488 61.9497C438.488 61.9697 438.488 61.9797 438.488 61.9997C438.488 62.6297 438.958 63.1897 439.598 63.2697C440.288 63.3497 440.908 62.8697 440.998 62.1797C441.198 60.5997 441.458 58.9897 441.778 57.4297C441.798 57.3297 441.808 57.2496 441.808 57.1696ZM430.678 57.9297C430.678 57.8597 430.668 57.7797 430.658 57.6997C430.538 57.0197 429.888 56.5597 429.208 56.6897C427.638 56.9497 426.018 57.1696 424.408 57.3396C423.768 57.4096 423.288 57.9498 423.278 58.5798C423.278 58.6298 423.278 58.6697 423.288 58.7197C423.358 59.4097 423.968 59.8998 424.658 59.8298C425.148 59.7798 425.638 59.7296 426.128 59.6696C427.338 59.5196 428.528 59.3496 429.678 59.1396C430.268 59.0196 430.678 58.5097 430.678 57.9297ZM415.918 58.9096C415.928 58.2196 415.378 57.6596 414.698 57.6396C413.028 57.6096 411.378 57.5397 409.768 57.4497C409.078 57.4097 408.488 57.9396 408.448 58.6296C408.448 58.6496 408.448 58.6697 408.448 58.6897C408.438 59.3497 408.968 59.9097 409.628 59.9397C411.228 60.0297 412.888 60.1096 414.638 60.1396C415.338 60.1596 415.908 59.6096 415.918 58.9196C415.918 58.9296 415.918 58.9196 415.918 58.9096ZM401.058 57.7097C401.068 57.0897 400.608 56.5497 399.978 56.4597C398.368 56.2197 396.798 55.9496 395.158 55.6296C394.478 55.4996 393.818 55.9396 393.688 56.6196C393.678 56.6896 393.668 56.7696 393.668 56.8496C393.668 57.4096 394.028 57.9198 394.578 58.0698C396.178 58.3898 397.868 58.6897 399.678 58.9497C400.348 59.0097 400.958 58.5496 401.058 57.8796C401.058 57.8196 401.058 57.7697 401.058 57.7097ZM386.568 54.4297C386.568 53.8797 386.218 53.3797 385.678 53.2197C383.908 52.6697 382.288 52.1497 380.948 51.7097C380.288 51.4897 379.578 51.8497 379.368 52.5097C379.328 52.6297 379.308 52.7696 379.308 52.8896C379.298 53.3996 379.608 53.8798 380.098 54.0698C380.748 54.2898 381.418 54.5097 382.098 54.7297C383.008 55.0197 383.958 55.3296 384.938 55.6196C385.608 55.8296 386.308 55.4498 386.508 54.7898C386.548 54.6598 386.568 54.5397 386.568 54.4297ZM371.938 50.2397C371.938 49.6297 371.498 49.0897 370.878 48.9897C369.278 48.7197 367.568 48.5497 365.628 48.4397C364.938 48.3897 364.338 48.9196 364.308 49.6096C364.308 49.6296 364.308 49.6496 364.308 49.6696C364.308 50.2996 364.768 50.8397 365.388 50.9297C366.038 50.9697 366.658 51.0098 367.258 51.0598C368.338 51.1498 369.318 51.2796 370.248 51.4196C370.338 51.4296 370.428 51.4497 370.518 51.4597C371.198 51.5597 371.828 51.0896 371.938 50.4196C371.928 50.3596 371.938 50.2997 371.938 50.2397ZM356.628 49.6997C356.628 49.6697 356.628 49.6396 356.628 49.6096C356.578 48.9096 355.978 48.3897 355.298 48.4397C353.428 48.5597 351.698 48.7598 350.018 49.0698C349.418 49.1798 348.998 49.6998 348.988 50.2998C348.988 50.3798 348.998 50.4598 349.008 50.5298C349.128 51.2198 349.788 51.6598 350.468 51.5298C351.958 51.2598 353.568 51.0697 355.458 50.9397C356.108 50.8997 356.618 50.3497 356.628 49.6997ZM341.668 52.9997C341.668 52.8697 341.649 52.7496 341.609 52.6196C341.409 51.9496 340.698 51.5898 340.038 51.7898C338.248 52.3498 336.738 52.7897 335.308 53.1897C334.758 53.3397 334.388 53.8496 334.388 54.3996C334.388 54.5096 334.398 54.6197 334.428 54.7397C334.618 55.4097 335.298 55.7996 335.968 55.5996C337.668 55.1296 339.268 54.6497 340.778 54.1897C341.318 54.0197 341.668 53.5297 341.668 52.9997ZM327.218 56.5598C327.218 56.4898 327.208 56.4096 327.198 56.3396C327.088 55.6496 326.438 55.1898 325.748 55.3098C324.188 55.5698 322.558 55.7897 320.908 55.9897C320.278 56.0697 319.808 56.5997 319.798 57.2197C319.798 57.2697 319.798 57.3296 319.808 57.3896C319.888 58.0796 320.508 58.5697 321.198 58.4797C322.938 58.2797 324.578 58.0398 326.138 57.7898C326.148 57.7898 326.168 57.7798 326.188 57.7798C326.778 57.6698 327.208 57.1498 327.218 56.5598ZM312.398 57.9697C312.398 57.9497 312.398 57.9397 312.398 57.9297C312.378 57.2397 311.798 56.6897 311.098 56.7097C309.428 56.7597 307.758 56.7798 306.168 56.7798C305.478 56.7798 304.918 57.3398 304.908 58.0298C304.908 58.0398 304.908 58.0398 304.908 58.0398C304.898 58.6998 305.418 59.2498 306.078 59.2898C307.888 59.2998 309.618 59.2697 311.278 59.2197C311.898 59.1397 312.398 58.6097 312.398 57.9697ZM297.468 57.6596C297.468 57.0196 296.968 56.4596 296.308 56.4096C294.638 56.2896 292.988 56.1297 291.418 55.9497C290.728 55.8797 290.108 56.3698 290.028 57.0598C290.028 57.0998 290.018 57.1497 290.018 57.1897C290.018 57.8197 290.488 58.3697 291.128 58.4397C292.708 58.6197 294.368 58.7896 296.128 58.9096C296.818 58.9696 297.418 58.4497 297.468 57.7497C297.468 57.7197 297.468 57.6896 297.468 57.6596ZM282.748 55.5598C282.748 54.9798 282.358 54.4598 281.758 54.3298C280.208 53.9898 278.658 53.5996 277.018 53.1496C276.348 52.9696 275.658 53.3598 275.468 54.0298C275.438 54.1398 275.428 54.2496 275.428 54.3596C275.428 54.8996 275.778 55.4098 276.308 55.5698C276.388 55.5898 276.458 55.6196 276.538 55.6396C278.008 56.0296 279.568 56.4298 281.218 56.7898C281.898 56.9398 282.568 56.5098 282.718 55.8298C282.738 55.7398 282.748 55.6498 282.748 55.5598ZM268.408 51.3996C268.408 50.8596 268.078 50.3697 267.548 50.1897C265.738 49.5997 264.188 49.1297 262.538 48.7297C261.868 48.5697 261.188 48.9796 261.018 49.6596C260.998 49.7596 260.988 49.8497 260.978 49.9397C260.978 50.5097 261.358 51.0196 261.938 51.1596C262.378 51.2696 262.798 51.3797 263.228 51.4897C264.408 51.8197 265.579 52.1896 266.839 52.5896C267.479 52.7496 268.139 52.3897 268.339 51.7497C268.389 51.6397 268.408 51.5096 268.408 51.3996ZM253.298 48.6897C253.298 48.0097 252.768 47.4496 252.078 47.4196C251.298 47.3896 250.459 47.3896 249.589 47.3796C248.649 47.3796 247.778 47.3796 246.938 47.3896C246.258 47.4096 245.708 47.9496 245.708 48.6296C245.708 48.6396 245.708 48.6496 245.708 48.6596C245.718 49.3296 246.248 49.8696 246.908 49.8896C247.738 49.8796 248.618 49.8696 249.568 49.8796C250.008 49.8796 250.439 49.8896 250.859 49.8996C251.249 49.9096 251.628 49.9096 251.998 49.9196C252.688 49.9496 253.268 49.4097 253.298 48.7097C253.288 48.7097 253.288 48.6997 253.298 48.6897ZM237.978 49.7898C237.978 49.6898 237.968 49.5897 237.948 49.4897C237.788 48.8097 237.118 48.3998 236.448 48.5498C234.668 48.9698 232.988 49.4697 231.448 49.9397C230.918 50.1097 230.568 50.5996 230.558 51.1296C230.558 51.2496 230.579 51.3797 230.609 51.5097C230.809 52.1697 231.518 52.5496 232.168 52.3496C233.378 51.9696 234.508 51.6396 235.638 51.3396C236.108 51.2196 236.568 51.0997 237.048 50.9997C237.598 50.8497 237.968 50.3498 237.978 49.7898ZM223.478 53.9697C223.478 53.8597 223.468 53.7596 223.438 53.6396C223.258 52.9696 222.578 52.5697 221.908 52.7397C220.348 53.1397 218.748 53.5096 217.138 53.8396C216.548 53.9596 216.138 54.4798 216.138 55.0598C216.138 55.1498 216.148 55.2398 216.168 55.3198C216.308 55.9998 216.968 56.4398 217.648 56.2898C217.808 56.2598 217.968 56.2297 218.128 56.1897C219.078 55.9997 219.988 55.7998 220.868 55.5798C221.438 55.4498 221.998 55.2996 222.538 55.1596C223.098 55.0296 223.478 54.5297 223.478 53.9697ZM208.848 56.5398C208.848 56.4998 208.849 56.4496 208.839 56.3996C208.769 55.7196 208.158 55.2098 207.478 55.2798C205.778 55.4398 204.178 55.5596 202.568 55.6496C201.908 55.6796 201.388 56.2396 201.378 56.8996C201.378 56.9196 201.378 56.9497 201.378 56.9697C201.418 57.6597 202.008 58.1896 202.698 58.1496C204.458 58.0496 206.128 57.9297 207.708 57.7697C208.358 57.7097 208.848 57.1798 208.848 56.5398ZM193.938 57.0996C193.938 56.4196 193.398 55.8596 192.708 55.8396C190.998 55.8096 189.348 55.7497 187.768 55.6797C187.078 55.6497 186.488 56.1896 186.458 56.8796C186.458 56.8996 186.458 56.9197 186.458 56.9297C186.458 57.5797 186.948 58.1297 187.598 58.1797C187.728 58.1897 187.848 58.1897 187.978 58.1997C189.228 58.2497 190.518 58.2898 191.848 58.3298C192.158 58.3298 192.468 58.3396 192.768 58.3496C193.418 58.3096 193.938 57.7796 193.948 57.1196C193.938 57.1096 193.938 57.1096 193.938 57.0996ZM179.068 56.0498C179.078 55.4298 178.618 54.8798 177.988 54.7998C176.258 54.5598 174.638 54.2998 173.148 54.0298C172.468 53.8998 171.808 54.3498 171.678 55.0298C171.668 55.0998 171.658 55.1797 171.658 55.2597C171.648 55.8397 172.039 56.3397 172.609 56.4797C173.859 56.7197 175.178 56.9296 176.558 57.1396C176.568 57.1396 176.568 57.1396 176.578 57.1396C176.618 57.1496 176.668 57.1496 176.708 57.1496C177.018 57.1996 177.338 57.2398 177.648 57.2798C178.328 57.3798 178.968 56.8897 179.058 56.2097C179.068 56.1597 179.068 56.0998 179.068 56.0498ZM164.538 52.9397C164.538 52.3897 164.188 51.8897 163.638 51.7297C161.958 51.2297 160.378 50.7297 158.928 50.2497C158.278 50.0397 157.558 50.3998 157.348 51.0598C157.308 51.1898 157.288 51.3197 157.288 51.4397C157.288 51.9797 157.618 52.4696 158.148 52.6396C158.248 52.6696 158.348 52.6997 158.438 52.7397C159.128 52.9597 159.828 53.1796 160.548 53.4096C161.318 53.6496 162.108 53.8896 162.938 54.1396C163.598 54.3396 164.298 53.9598 164.488 53.2898C164.518 53.1698 164.538 53.0497 164.538 52.9397ZM149.988 48.6196C149.988 48.0196 149.568 47.4896 148.968 47.3796C147.278 47.0596 145.568 46.8297 143.718 46.6897C143.028 46.6397 142.428 47.1496 142.368 47.8496C142.368 47.8696 142.368 47.8997 142.368 47.9297C142.358 48.5497 142.818 49.0997 143.438 49.1897C145.358 49.3397 146.998 49.5596 148.508 49.8496C149.178 49.9796 149.828 49.5296 149.968 48.8496C149.978 48.7696 149.988 48.6896 149.988 48.6196ZM134.688 47.8098C134.688 47.7898 134.688 47.7697 134.688 47.7397C134.658 47.0497 134.068 46.5098 133.378 46.5398C131.458 46.6198 129.739 46.7898 128.109 47.0298C127.489 47.1298 127.048 47.6497 127.048 48.2497C127.048 48.3197 127.048 48.3797 127.058 48.4497C127.158 49.1397 127.808 49.6197 128.488 49.5097C128.588 49.4997 128.688 49.4897 128.798 49.4597C130.218 49.2597 131.779 49.1198 133.589 49.0398C134.209 48.9598 134.678 48.4298 134.688 47.8098ZM119.648 50.8198C119.648 50.6898 119.629 50.5697 119.589 50.4397C119.379 49.7797 118.678 49.4096 118.008 49.6196C116.558 50.0696 114.968 50.5598 113.268 51.0498C112.718 51.2098 112.359 51.7097 112.359 52.2497C112.359 52.3597 112.368 52.4796 112.408 52.5996C112.588 53.2496 113.248 53.6297 113.888 53.4797C114.188 53.3897 114.488 53.3097 114.788 53.2297C115.468 53.0297 116.128 52.8296 116.778 52.6296C117.478 52.4196 118.169 52.2097 118.839 51.9997C119.339 51.7997 119.648 51.3298 119.648 50.8198ZM105.218 54.5197C105.218 54.4397 105.208 54.3698 105.198 54.2898C105.078 53.6098 104.418 53.1498 103.738 53.2798C102.178 53.5698 100.558 53.8098 98.8981 54.0398C98.2681 54.1298 97.8082 54.6598 97.8082 55.2798C97.8082 55.3398 97.8085 55.3997 97.8185 55.4597C97.9085 56.1397 98.5384 56.6198 99.2184 56.5298C100.748 56.3298 102.208 56.1096 103.578 55.8696C103.798 55.8296 104.008 55.7897 104.218 55.7597C104.808 55.6097 105.218 55.0997 105.218 54.5197ZM90.4181 56.0996C90.4181 56.0796 90.4181 56.0598 90.4181 56.0398C90.3881 55.3398 89.7985 54.8096 89.1085 54.8396C87.5685 54.8896 85.9484 54.9397 84.1784 54.9497C83.4884 54.9597 82.9481 55.5097 82.9381 56.1897C82.9381 56.1997 82.9381 56.2097 82.9381 56.2197C82.9381 56.8797 83.4483 57.4197 84.0983 57.4597C84.4783 57.4597 84.8484 57.4497 85.2184 57.4497C86.5984 57.4297 87.9284 57.3996 89.2184 57.3396C89.8884 57.3096 90.4081 56.7596 90.4181 56.0996ZM75.5783 55.6897C75.5883 55.0697 75.1182 54.5197 74.4782 54.4397C72.8482 54.2397 71.2284 53.9897 69.6984 53.6797C69.0184 53.5497 68.3582 53.9996 68.2282 54.6696C68.2182 54.7496 68.2081 54.8196 68.2081 54.8996C68.2081 55.4896 68.6184 56.0296 69.2184 56.1396C70.5084 56.3896 71.8284 56.6098 73.1984 56.7998C73.2384 56.7998 73.2682 56.8098 73.3082 56.8198C73.3182 56.8198 73.3383 56.8198 73.3483 56.8198C73.6483 56.8598 73.9584 56.8997 74.2584 56.9397C74.9184 56.9697 75.4985 56.4898 75.5685 55.8298C75.5785 55.7898 75.5783 55.7397 75.5783 55.6897ZM60.6183 59.1997C60.6183 59.1497 60.6185 59.0998 60.6085 59.0498C60.4285 57.3398 60.1981 55.6798 59.8981 54.0698C59.7781 53.3898 59.1281 52.9398 58.4381 53.0698C57.8381 53.1698 57.4183 53.6998 57.4083 54.2898C57.4083 54.3598 57.4184 54.4497 57.4284 54.5197C57.7184 56.1297 57.9383 57.7398 58.0983 59.2998C58.1683 59.9898 58.7882 60.4896 59.4782 60.4196C60.1282 60.3596 60.6083 59.8297 60.6183 59.1997ZM60.7985 69.0197C60.7985 68.3597 60.2683 67.7897 59.5983 67.7697C58.8983 67.7397 58.3085 68.2697 58.2785 68.9697C58.2085 70.5697 58.0881 72.2096 57.9181 73.8396C57.9181 73.8796 57.9083 73.9097 57.9083 73.9497C57.8983 74.5997 58.3882 75.1497 59.0382 75.2197C59.6982 75.2797 60.2881 74.8297 60.3981 74.1797C60.5881 72.5497 60.7185 70.8197 60.7985 69.0197ZM58.7882 83.6997C58.7882 83.1197 58.4083 82.5997 57.8283 82.4597C57.1483 82.2997 56.4782 82.7196 56.3082 83.3896C55.9382 84.9496 55.5182 86.4798 55.0182 88.0698C54.9782 88.1998 54.9684 88.3197 54.9684 88.4297C54.9684 88.9797 55.3083 89.4796 55.8483 89.6496C56.5083 89.8596 57.2181 89.4898 57.4181 88.8298C57.5981 88.2798 57.7684 87.7096 57.9284 87.1196C58.2284 86.0896 58.5085 85.0196 58.7785 83.8896C58.7885 83.8296 58.7882 83.7597 58.7882 83.6997ZM53.9284 97.7297C53.9384 97.2397 53.6481 96.7698 53.1681 96.5598C52.5281 96.2898 51.7882 96.5797 51.5182 97.2097C50.6082 99.3197 50.0081 100.72 49.6281 102.29C49.6081 102.39 49.5983 102.49 49.5983 102.58C49.5983 103.15 49.9782 103.67 50.5582 103.81C51.2282 103.97 51.9085 103.56 52.0685 102.88C52.0885 102.79 52.1183 102.69 52.1383 102.59C52.4683 101.34 52.9983 100.11 53.8283 98.1897C53.8383 98.1497 53.8583 98.1196 53.8683 98.0896C53.9083 97.9796 53.9284 97.8597 53.9284 97.7297ZM53.8683 118.26C53.8683 118.16 53.8583 118.06 53.8283 117.95C53.7683 117.8 53.7081 117.65 53.6481 117.51C53.6381 117.48 53.6285 117.45 53.6085 117.41C53.5985 117.41 53.5983 117.41 53.5983 117.4C53.5483 117.28 53.4984 117.15 53.4484 117.03C53.0384 116.03 52.7184 115.22 52.4484 114.48C52.4384 114.46 52.4384 114.44 52.4284 114.42C52.2384 113.88 52.0982 113.38 51.9782 112.87C51.8282 112.2 51.1582 111.78 50.4782 111.93C49.8982 112.07 49.5082 112.58 49.4982 113.15C49.4982 113.24 49.5084 113.34 49.5284 113.43C49.8784 114.94 50.4282 116.29 51.2682 118.34L51.3082 118.44C51.3482 118.55 51.4184 118.69 51.5084 118.86C51.8684 119.45 52.6484 119.65 53.2384 119.3C53.6484 119.09 53.8683 118.68 53.8683 118.26ZM58.4083 132.18C58.4083 132.11 58.4083 132.03 58.3883 131.96C57.9983 130.17 57.5583 128.51 57.0983 126.98C56.8783 126.35 56.2085 126 55.5685 126.19C55.0185 126.35 54.6681 126.85 54.6681 127.39C54.6681 127.51 54.6784 127.63 54.7184 127.75C55.1784 129.29 55.5784 130.87 55.9284 132.44C56.0784 133.12 56.7484 133.54 57.4284 133.4C57.9984 133.26 58.3983 132.75 58.4083 132.18ZM60.1583 146.88C60.1583 146.87 60.1583 146.85 60.1583 146.84C60.0983 145.09 60.0083 143.42 59.8683 141.83C59.8083 141.14 59.1984 140.63 58.5084 140.69C57.8584 140.75 57.3685 141.29 57.3585 141.94C57.3585 141.98 57.3583 142.01 57.3683 142.05C57.5083 143.58 57.5981 145.23 57.6481 146.92C57.6681 147.62 58.2481 148.16 58.9381 148.14C59.6181 148.11 60.1583 147.55 60.1583 146.88ZM59.9381 156.78C59.9481 156.13 59.4385 155.57 58.7785 155.52C58.0885 155.47 57.4881 155.99 57.4381 156.68C57.3181 158.29 57.1484 159.91 56.9284 161.53C56.9184 161.58 56.9181 161.64 56.9181 161.69C56.9081 162.31 57.3684 162.86 58.0084 162.94C58.6984 163.03 59.3281 162.55 59.4181 161.86C59.6381 160.28 59.8181 158.62 59.9381 156.87C59.9381 156.85 59.9381 156.81 59.9381 156.78ZM57.4581 171.37C57.4581 170.81 57.0882 170.3 56.5382 170.15C55.8682 169.97 55.1782 170.35 54.9982 171.03C54.5582 172.59 54.0882 174.11 53.5382 175.65C53.4982 175.78 53.4684 175.92 53.4684 176.05C53.4684 176.58 53.7882 177.07 54.3082 177.25C54.9582 177.48 55.6681 177.14 55.8981 176.49C56.4281 175 56.9481 173.38 57.4381 171.62C57.4481 171.54 57.4581 171.46 57.4581 171.37ZM52.2282 185.34C52.2282 184.84 51.9381 184.36 51.4381 184.16C50.7981 183.9 50.0682 184.22 49.8082 184.86C48.9882 186.92 48.6482 188.4 48.4982 190.48C48.4982 190.5 48.4982 190.53 48.4982 190.55C48.4882 191.21 48.9981 191.77 49.6681 191.82C50.3581 191.86 50.9582 191.35 50.9982 190.65C51.0482 189.91 51.1384 189.28 51.2384 188.69C51.4384 187.69 51.7284 186.79 52.1784 185.67C52.2084 185.57 52.2282 185.46 52.2282 185.34ZM54.0582 205.69C54.0582 205.57 54.0484 205.44 54.0084 205.31C53.8084 204.82 53.6184 204.34 53.4284 203.88C53.3584 203.72 53.2982 203.57 53.2282 203.42C53.2182 203.37 53.1984 203.32 53.1784 203.28C53.0984 203.09 53.0284 202.91 52.9484 202.73C52.5884 201.86 52.2882 201.12 52.0382 200.46C51.7682 199.88 51.0781 199.59 50.4581 199.82C49.9581 200.01 49.6581 200.48 49.6481 200.98C49.6481 201.13 49.6784 201.29 49.7384 201.44C49.9584 202.06 50.2385 202.72 50.5685 203.51L50.6383 203.69L50.9181 204.37C51.1481 204.94 51.3881 205.52 51.6281 206.14C51.8881 206.78 52.6282 207.1 53.2682 206.85C53.7482 206.65 54.0482 206.18 54.0582 205.69ZM58.2081 219.89C58.2081 219.81 58.1981 219.73 58.1881 219.65C57.9181 218.15 57.6085 216.74 57.2785 215.4C57.2185 215.16 57.1583 214.93 57.0983 214.69C56.9083 214.05 56.2383 213.67 55.5783 213.84C55.0183 213.98 54.6383 214.49 54.6383 215.05C54.6383 215.16 54.6484 215.27 54.6784 215.38C55.0784 216.9 55.4282 218.49 55.7282 220.11C55.8582 220.79 56.5081 221.25 57.1881 221.12C57.7881 221 58.2081 220.48 58.2081 219.89ZM59.4982 234.65C59.4982 234.65 59.4982 234.64 59.4982 234.63C59.4882 233.34 59.4681 232.1 59.4181 230.88C59.3981 230.43 59.3783 229.97 59.3483 229.53C59.2683 228.88 58.6982 228.39 58.0182 228.42C57.3582 228.46 56.8383 229.01 56.8283 229.67C56.8283 229.69 56.8285 229.72 56.8385 229.74C56.9185 231.35 56.9682 233 56.9782 234.64C56.9882 235.34 57.5382 235.9 58.2482 235.89C58.9382 235.89 59.4982 235.34 59.4982 234.65ZM59.0182 244.53C59.0282 243.9 58.5383 243.35 57.8883 243.28C57.2083 243.2 56.5882 243.71 56.5182 244.39C56.3482 246.03 56.1285 247.65 55.8585 249.21C55.8485 249.28 55.8483 249.34 55.8483 249.41C55.8483 250.02 56.2781 250.56 56.8981 250.66C57.5481 250.77 58.1883 250.35 58.3283 249.7C58.3883 249.35 58.4484 249 58.5084 248.64C58.6984 247.37 58.8682 246.05 59.0182 244.65C59.0082 244.61 59.0082 244.57 59.0182 244.53ZM56.0285 259.01C56.0285 258.48 55.6881 257.98 55.1481 257.81C54.4881 257.6 53.7785 257.97 53.5685 258.63C53.1185 260.07 52.5784 261.57 51.9484 263.21C51.8884 263.36 51.8583 263.51 51.8683 263.66C51.8583 264.16 52.1683 264.64 52.6583 264.84C53.2783 265.08 53.9682 264.81 54.2482 264.22C54.3482 263.95 54.4585 263.68 54.5685 263.39C55.0285 262.15 55.5084 260.82 55.9684 259.39C56.0184 259.26 56.0285 259.14 56.0285 259.01ZM50.6681 273.19C50.6781 272.62 50.2781 272.09 49.6881 271.96C49.0081 271.8 48.3381 272.23 48.1881 272.9C47.8581 274.3 47.7381 275.76 47.7081 278.24V278.44C47.6981 279.14 48.2681 279.71 48.9581 279.71C49.6181 279.71 50.1584 279.21 50.2184 278.56C50.2184 278.46 50.2184 278.36 50.2184 278.26C50.2384 276.03 50.3481 274.66 50.6481 273.36C50.6581 273.3 50.6681 273.24 50.6681 273.19ZM54.2785 293.29C54.2785 293.17 54.2682 293.04 54.2282 292.92C53.5682 291.12 52.9085 289.52 52.3185 288.08C52.0285 287.49 51.3282 287.22 50.7282 287.47C50.2382 287.67 49.9484 288.14 49.9484 288.63C49.9484 288.79 49.9682 288.95 50.0382 289.11C50.6782 290.67 51.2383 292.08 51.8483 293.71C52.0983 294.36 52.8181 294.7 53.4581 294.46C53.9581 294.26 54.2785 293.79 54.2785 293.29ZM57.9284 307.6C57.9284 307.56 57.9284 307.51 57.9284 307.47C57.7784 306.44 57.6084 305.46 57.4284 304.5C57.2984 303.8 57.1584 303.12 57.0084 302.46C56.8684 301.78 56.1982 301.35 55.5182 301.5C54.9382 301.63 54.5285 302.14 54.5285 302.72C54.5285 302.81 54.5385 302.9 54.5485 302.99C54.9085 304.62 55.1881 306.18 55.4181 307.77C55.5181 308.46 56.1683 308.93 56.8483 308.82C57.4883 308.74 57.9284 308.21 57.9284 307.6ZM58.7985 320.92C58.7985 320.78 58.7985 320.65 58.7985 320.51C58.7985 320.4 58.7985 320.29 58.7985 320.18C58.7985 320.17 58.7985 320.15 58.7985 320.14C58.7985 319.19 58.7884 318.25 58.7584 317.34C58.6984 316.69 58.1384 316.17 57.4684 316.19C56.7984 316.21 56.2582 316.76 56.2482 317.42C56.2482 317.44 56.2482 317.46 56.2482 317.47C56.2782 318.69 56.2885 319.82 56.2785 320.91C56.2785 321.38 56.2582 321.86 56.2482 322.34C56.2482 322.34 56.2482 322.35 56.2482 322.36C56.2382 323.04 56.7784 323.62 57.4684 323.64C58.1384 323.66 58.6882 323.18 58.7482 322.52C58.7582 322.36 58.7582 322.18 58.7682 322.02C58.7782 321.73 58.7882 321.45 58.7882 321.17C58.7982 321.08 58.8085 321 58.7985 320.92ZM61.4782 334.59C61.4782 334.45 61.4583 334.31 61.4083 334.17C61.1783 333.52 60.4682 333.17 59.8082 333.4C59.5682 333.48 59.3385 333.56 59.1085 333.64C58.5585 333.83 58.0282 334.02 57.4982 334.22C57.4782 334.22 57.4581 334.23 57.4381 334.24C57.3081 334.29 57.1682 334.34 57.0382 334.39C57.1682 333.8 57.3184 333.19 57.4484 332.58C57.4684 332.51 57.4782 332.42 57.4982 332.35C57.5082 332.27 57.5182 332.2 57.5182 332.12C57.5282 331.54 57.1182 331.01 56.5182 330.89C55.8482 330.75 55.1785 331.19 55.0285 331.86C54.8785 332.52 54.7383 333.17 54.5783 333.82C54.5383 334.01 54.5182 334.18 54.5182 334.37C54.5082 335.09 54.8181 335.79 55.3781 336.28C56.0681 336.9 57.0481 337.08 57.9181 336.76C58.6981 336.47 59.5583 336.15 60.6383 335.78C61.1483 335.59 61.4682 335.11 61.4782 334.59ZM75.8283 330.72C75.8283 330.64 75.8182 330.55 75.8082 330.47C75.6782 329.82 75.0681 329.38 74.4181 329.45C73.9681 329.54 73.5185 329.63 73.0685 329.72C73.0585 329.73 73.0385 329.73 73.0285 329.73C72.9585 329.75 72.8882 329.76 72.8082 329.78C72.6882 329.8 72.5684 329.83 72.4484 329.86C71.4084 330.08 70.4081 330.32 69.4181 330.56C68.8481 330.7 68.4684 331.21 68.4684 331.77C68.4684 331.87 68.4784 331.98 68.5084 332.08C68.6684 332.75 69.3584 333.16 70.0285 333C71.0385 332.75 72.0084 332.52 72.9684 332.32C73.5884 332.2 74.1982 332.06 74.8082 331.94C75.4182 331.81 75.8283 331.3 75.8283 330.72ZM90.5685 329.13C90.5685 329.12 90.5685 329.12 90.5685 329.11C90.5585 328.44 90.0383 327.9 89.3683 327.87C88.7883 327.87 88.2183 327.89 87.6383 327.91C87.5883 327.91 87.5384 327.91 87.4884 327.91C87.3684 327.91 87.2383 327.92 87.1183 327.93C87.0283 327.93 86.9383 327.94 86.8483 327.94C86.8083 327.94 86.7682 327.95 86.7282 327.94C86.5582 327.95 86.3781 327.96 86.2081 327.97C86.1881 327.97 86.1783 327.97 86.1583 327.97C85.5383 328 84.9085 328.05 84.2785 328.09C83.6285 328.14 83.1281 328.68 83.1281 329.33C83.1281 329.37 83.1283 329.4 83.1383 329.44C83.1883 330.13 83.7984 330.65 84.4884 330.59C86.1784 330.46 87.7985 330.38 89.3385 330.36C90.0185 330.37 90.5685 329.81 90.5685 329.13ZM105.268 330.53C105.278 329.97 104.909 329.47 104.359 329.31C103.969 329.23 103.578 329.15 103.168 329.06C101.928 328.83 100.648 328.61 99.3082 328.44C98.6182 328.35 97.9981 328.83 97.8981 329.52C97.8881 329.57 97.8883 329.63 97.8883 329.68C97.8783 330.3 98.3382 330.85 98.9782 330.93C100.548 331.14 102.158 331.41 103.738 331.74C104.418 331.89 105.088 331.45 105.228 330.77C105.258 330.69 105.268 330.61 105.268 330.53ZM119.359 335.09C119.359 334.61 119.088 334.15 118.628 333.94C117.148 333.32 115.558 332.68 113.848 332.06C113.208 331.86 112.518 332.2 112.288 332.83C112.238 332.97 112.208 333.11 112.208 333.24C112.208 333.76 112.518 334.24 113.038 334.43C114.818 335.08 116.408 335.72 117.618 336.23C118.258 336.5 118.998 336.19 119.258 335.55C119.328 335.41 119.359 335.24 119.359 335.09ZM134.048 339.62C134.058 338.97 133.558 338.42 132.898 338.36C131.668 338.26 130.568 338.11 129.538 337.91C129.518 337.9 129.488 337.9 129.468 337.9C129.458 337.9 129.458 337.9 129.448 337.9C128.928 337.8 128.428 337.68 127.928 337.54C127.268 337.36 126.578 337.76 126.398 338.43C126.368 338.54 126.359 338.63 126.359 338.74C126.359 339.31 126.728 339.82 127.288 339.96C129.048 340.42 130.768 340.72 132.698 340.86C133.388 340.91 133.998 340.4 134.048 339.71C134.048 339.68 134.048 339.65 134.048 339.62ZM149.398 338.67C149.398 338.58 149.388 338.49 149.368 338.4C149.218 337.72 148.558 337.3 147.878 337.45C147.488 337.54 147.088 337.62 146.688 337.69C145.488 337.92 144.228 338.1 142.808 338.23C142.208 338.34 141.768 338.86 141.768 339.46C141.768 339.5 141.768 339.55 141.778 339.59C141.848 340.28 142.458 340.78 143.148 340.72C144.988 340.54 146.718 340.27 148.408 339.9C148.998 339.77 149.398 339.25 149.398 338.67ZM163.928 334.51C163.928 334.4 163.918 334.29 163.888 334.18C163.718 333.51 163.029 333.12 162.359 333.29C160.649 333.74 159.048 334.19 157.528 334.66C156.988 334.82 156.638 335.31 156.638 335.84C156.638 335.96 156.648 336.09 156.688 336.21C156.888 336.87 157.598 337.25 158.258 337.05C159.938 336.54 161.488 336.1 162.988 335.71C163.548 335.57 163.918 335.06 163.928 334.51ZM178.558 331.88C178.558 331.84 178.558 331.79 178.548 331.74C178.478 331.05 177.858 330.55 177.168 330.62C175.418 330.79 173.758 331.01 172.198 331.25C171.578 331.34 171.128 331.86 171.128 332.47C171.128 332.53 171.128 332.6 171.138 332.67C171.238 333.36 171.878 333.82 172.568 333.73C174.128 333.49 175.768 333.28 177.438 333.1C178.078 333.05 178.548 332.51 178.558 331.88ZM193.458 331.27C193.468 330.58 192.908 330.01 192.208 330C192.008 330 191.798 330 191.598 329.99C190.078 329.98 188.608 329.98 187.198 330.01C186.518 330.02 185.978 330.58 185.968 331.26C185.968 331.27 185.968 331.28 185.968 331.29C185.978 331.98 186.548 332.54 187.248 332.52C188.628 332.49 190.078 332.49 191.578 332.5H192.198C192.888 332.53 193.448 331.97 193.458 331.27ZM208.328 332.27C208.328 331.66 207.908 331.14 207.308 331.02C206.388 330.9 205.438 330.78 204.458 330.69C203.738 330.61 202.988 330.54 202.228 330.48C201.538 330.42 200.938 330.93 200.868 331.63C200.868 331.66 200.868 331.69 200.868 331.72C200.858 332.37 201.358 332.93 202.018 332.98C203.638 333.11 205.228 333.28 206.908 333.5C207.598 333.6 208.228 333.11 208.318 332.42C208.328 332.37 208.338 332.32 208.328 332.27ZM222.878 335.33C222.888 334.78 222.518 334.27 221.968 334.11C221.438 333.96 220.899 333.8 220.339 333.65C219.459 333.41 218.548 333.17 217.598 332.94C217.438 332.9 217.278 332.87 217.118 332.83C216.438 332.66 215.769 333.08 215.609 333.75C215.589 333.84 215.578 333.93 215.578 334.03C215.568 334.61 215.958 335.12 216.538 335.26C218.078 335.63 219.628 336.04 221.278 336.51C221.948 336.71 222.639 336.32 222.839 335.66C222.859 335.54 222.878 335.43 222.878 335.33ZM237.398 339.68C237.408 339.12 237.038 338.61 236.488 338.45C235.308 338.22 234.208 337.94 233.098 337.62C232.588 337.48 232.068 337.32 231.548 337.16C230.878 336.95 230.178 337.32 229.978 337.98C229.938 338.1 229.918 338.23 229.918 338.34C229.918 338.88 230.258 339.38 230.798 339.54C232.738 340.15 234.318 340.56 235.898 340.88C236.578 341.02 237.238 340.59 237.378 339.9C237.388 339.84 237.398 339.76 237.398 339.68ZM252.688 340.6C252.688 340.59 252.688 340.57 252.688 340.55C252.668 339.88 252.118 339.35 251.448 339.33C250.518 339.36 249.508 339.39 248.428 339.39C248.418 339.4 248.408 339.4 248.388 339.4C248.308 339.4 248.228 339.4 248.138 339.4C248.128 339.4 248.119 339.4 248.109 339.4C248.039 339.4 247.978 339.4 247.908 339.4C247.878 339.4 247.838 339.4 247.798 339.4C247.758 339.4 247.708 339.4 247.658 339.41C247.618 339.41 247.578 339.41 247.538 339.41C247.458 339.41 247.378 339.41 247.298 339.41C247.138 339.41 246.968 339.41 246.818 339.41C246.658 339.41 246.509 339.41 246.359 339.4C245.659 339.39 245.089 339.95 245.089 340.64C245.089 341.34 245.639 341.91 246.339 341.91L246.778 341.92H247.278C248.698 341.93 250.068 341.92 251.458 341.86C252.158 341.82 252.688 341.27 252.688 340.6ZM267.798 337.75C267.798 337.6 267.778 337.44 267.718 337.29C267.468 336.67 266.768 336.32 266.128 336.49C266.118 336.49 266.109 336.5 266.089 336.5C266.099 336.5 266.109 336.5 266.109 336.49C266.089 336.5 266.078 336.5 266.058 336.5C266.068 336.5 266.078 336.5 266.078 336.49L266.068 336.5C266.058 336.5 266.058 336.5 266.048 336.5C266.018 336.51 265.988 336.52 265.968 336.53C265.938 336.54 265.918 336.55 265.888 336.56C265.188 336.78 264.528 336.98 263.878 337.18C262.968 337.45 262.088 337.71 261.208 337.94C260.698 338.12 260.368 338.59 260.368 339.11C260.368 339.22 260.378 339.34 260.408 339.44C260.588 340.12 261.268 340.52 261.938 340.34C263.468 339.94 264.938 339.49 266.648 338.96L266.778 338.92C266.808 338.91 266.839 338.9 266.859 338.89C266.899 338.87 266.928 338.86 266.958 338.85C267.478 338.68 267.798 338.24 267.798 337.75ZM282.188 333.95C282.188 333.88 282.188 333.79 282.168 333.72C282.048 333.04 281.398 332.58 280.718 332.7C280.658 332.71 280.588 332.72 280.518 332.74C279.828 332.87 279.148 333 278.498 333.14C277.548 333.34 276.638 333.55 275.758 333.76C275.208 333.91 274.828 334.41 274.828 334.96C274.828 335.05 274.839 335.16 274.859 335.26C275.019 335.93 275.698 336.35 276.368 336.19C277.988 335.8 279.548 335.46 281.148 335.17C281.758 335.06 282.188 334.54 282.188 333.95ZM296.978 332.31C296.978 332.29 296.978 332.27 296.978 332.25C296.948 331.59 296.408 331.06 295.758 331.04C295.378 331.06 295.008 331.08 294.638 331.09C293.248 331.17 291.928 331.26 290.648 331.38C289.998 331.43 289.508 331.98 289.498 332.62C289.498 332.66 289.498 332.7 289.498 332.74C289.558 333.43 290.169 333.94 290.859 333.88C292.369 333.74 294.018 333.63 295.768 333.56C296.448 333.52 296.968 332.97 296.978 332.31ZM311.898 332.43C311.898 331.77 311.388 331.21 310.718 331.17C310.168 331.14 309.618 331.1 309.058 331.07C308.418 331.04 307.768 331.02 307.098 330.99C306.638 330.97 306.178 330.96 305.708 330.95C305.008 330.93 304.438 331.49 304.428 332.18C304.428 332.19 304.428 332.2 304.428 332.2C304.418 332.88 304.968 333.45 305.658 333.47C307.278 333.5 308.928 333.58 310.578 333.67C311.268 333.71 311.868 333.19 311.908 332.49C311.898 332.47 311.898 332.45 311.898 332.43ZM326.668 334.3C326.668 333.71 326.258 333.19 325.658 333.07C324.148 332.77 322.559 332.48 320.859 332.22C320.809 332.21 320.748 332.2 320.698 332.19C320.018 332.1 319.388 332.57 319.288 333.25C319.278 333.31 319.278 333.36 319.278 333.42C319.268 334.04 319.718 334.58 320.348 334.68C321.968 334.91 323.538 335.2 325.168 335.52C325.848 335.66 326.518 335.21 326.648 334.54C326.658 334.46 326.668 334.38 326.668 334.3ZM341.018 338.3C341.028 337.77 340.688 337.28 340.158 337.1C338.648 336.6 337.068 336.08 335.378 335.56C334.708 335.35 334.008 335.73 333.808 336.39C333.768 336.51 333.758 336.63 333.758 336.75C333.758 337.29 334.108 337.8 334.648 337.96C336.328 338.48 337.898 339 339.368 339.49C340.028 339.71 340.738 339.35 340.958 338.69C340.998 338.56 341.018 338.44 341.018 338.3ZM356.038 341.45C356.038 340.81 355.568 340.27 354.938 340.18C354.248 340.15 353.598 340.1 352.988 340.05C352.978 340.05 352.968 340.05 352.968 340.05C352.938 340.04 352.908 340.04 352.878 340.04C351.788 339.95 350.789 339.82 349.859 339.68C349.179 339.57 348.528 340.04 348.428 340.72C348.418 340.78 348.418 340.84 348.418 340.91C348.418 341.52 348.858 342.06 349.478 342.15C351.108 342.4 352.818 342.57 354.728 342.67C355.418 342.71 356.018 342.19 356.048 341.5C356.038 341.49 356.038 341.47 356.038 341.45ZM371.359 340.75C371.359 340.67 371.359 340.59 371.339 340.51C371.209 339.87 370.618 339.44 369.978 339.5C368.428 339.8 366.768 340.02 364.818 340.15C364.198 340.23 363.728 340.77 363.728 341.39C363.728 341.42 363.728 341.45 363.728 341.49C363.778 342.18 364.388 342.71 365.068 342.65C366.958 342.52 368.689 342.3 370.339 341.98C370.939 341.86 371.359 341.34 371.359 340.75ZM385.948 336.64C385.948 336.53 385.938 336.41 385.908 336.3C385.728 335.63 385.038 335.23 384.368 335.41C383.958 335.52 383.558 335.63 383.148 335.75C382.508 335.93 381.888 336.11 381.268 336.29C380.678 336.47 380.108 336.64 379.538 336.82C378.998 336.98 378.648 337.48 378.648 338.01C378.648 338.14 378.668 338.26 378.698 338.39C378.898 339.05 379.608 339.43 380.268 339.22C381.658 338.8 383.278 338.31 385.008 337.84C385.568 337.69 385.938 337.19 385.948 336.64ZM400.538 333.84C400.538 333.79 400.538 333.73 400.528 333.67C400.448 333.02 399.888 332.54 399.238 332.57C397.418 332.78 395.709 333.02 394.089 333.29C393.519 333.42 393.119 333.93 393.109 334.5C393.109 334.57 393.118 334.65 393.128 334.72C393.238 335.4 393.878 335.86 394.568 335.76C396.138 335.5 397.768 335.27 399.418 335.07C400.058 335 400.538 334.46 400.538 333.84ZM415.428 333.09C415.438 332.4 414.878 331.83 414.178 331.83C412.428 331.82 410.748 331.84 409.158 331.89C408.478 331.91 407.938 332.46 407.938 333.13C407.938 333.14 407.938 333.16 407.938 333.18C407.958 333.87 408.538 334.42 409.228 334.4C410.848 334.35 412.498 334.33 414.158 334.34C414.858 334.34 415.428 333.79 415.428 333.09ZM430.128 334.66C430.128 334.07 429.728 333.55 429.128 333.42C427.538 333.08 425.888 332.78 424.188 332.54C423.498 332.44 422.868 332.93 422.768 333.61C422.758 333.66 422.758 333.72 422.758 333.78C422.748 334.4 423.209 334.94 423.839 335.03C425.399 335.25 426.958 335.52 428.618 335.88C429.298 336.02 429.969 335.59 430.109 334.91C430.119 334.83 430.128 334.74 430.128 334.66ZM439.268 333.59C439.268 333.52 439.258 333.45 439.248 333.38C438.968 331.7 438.778 330.14 438.668 328.62C438.618 327.93 438.008 327.41 437.318 327.46C436.658 327.51 436.168 328.06 436.158 328.71C436.158 328.74 436.158 328.78 436.158 328.81C436.188 329.23 436.228 329.65 436.268 330.06C436.268 330.09 436.278 330.13 436.278 330.16C436.288 330.22 436.288 330.28 436.298 330.34C436.318 330.57 436.348 330.8 436.378 331.02C436.478 331.84 436.588 332.66 436.718 333.47V333.48C436.718 333.49 436.718 333.5 436.718 333.5C436.738 333.6 436.748 333.7 436.768 333.8C436.898 334.47 437.528 334.92 438.208 334.82C438.818 334.72 439.258 334.2 439.268 333.59ZM439.118 313.92C439.128 313.3 438.658 312.75 438.018 312.67C437.328 312.58 436.708 313.07 436.618 313.76C436.458 315.02 436.338 316.33 436.228 317.7C436.198 318.08 436.178 318.46 436.148 318.84C436.148 319.5 436.658 320.05 437.328 320.1C438.018 320.14 438.618 319.62 438.668 318.92C438.768 317.26 438.919 315.63 439.109 314.07C439.119 314.02 439.128 313.97 439.118 313.92ZM442.359 299.5C442.369 298.98 442.038 298.49 441.508 298.31C440.868 298.09 440.178 298.42 439.928 299.04C439.708 299.68 439.498 300.34 439.288 301.01C439.288 301.02 439.278 301.04 439.278 301.05C439.268 301.09 439.248 301.14 439.238 301.17C439.218 301.24 439.198 301.31 439.178 301.37C439.178 301.39 439.168 301.4 439.168 301.41C439.108 301.61 439.048 301.8 438.998 302C438.988 302.03 438.988 302.05 438.978 302.07C438.958 302.12 438.948 302.18 438.938 302.23C438.778 302.8 438.618 303.38 438.458 303.98C438.448 304.06 438.438 304.12 438.438 304.2C438.428 304.76 438.808 305.28 439.378 305.43C440.048 305.61 440.738 305.2 440.908 304.53C441.318 302.97 441.778 301.41 442.288 299.89C442.338 299.76 442.359 299.63 442.359 299.5ZM447.578 285.14C447.588 284.52 447.118 283.97 446.488 283.89C445.798 283.8 445.168 284.29 445.078 284.97C444.928 286.14 444.668 287.08 444.238 288.21C444.048 288.71 443.828 289.25 443.578 289.86C443.538 289.98 443.518 290.1 443.518 290.22C443.508 290.71 443.798 291.19 444.278 291.39C444.918 291.66 445.658 291.36 445.918 290.72C446.808 288.61 447.318 287.18 447.558 285.28C447.578 285.24 447.578 285.19 447.578 285.14Z" fill="#B9D142"/>
</svg>
