<svg width="341" height="73" viewBox="0 0 341 73" fill="none" xmlns="http://www.w3.org/2000/svg">
<path d="M339.918 72.5298C228.268 71.5398 116.608 70.5498 4.95831 69.5598C5.88831 65.6898 9.95852 63.3498 8.92852 59.4998C8.05852 56.2498 2.66844 54.9398 1.59844 51.7298C0.138445 47.3298 7.72811 43.8899 7.50811 39.3399C7.29811 34.8599 -0.281887 32.1997 0.00811257 27.7197C0.238113 24.1497 5.41821 21.9898 6.35821 18.4898C7.06821 15.8798 5.24805 13.3197 3.94805 10.8697C2.63805 8.41965 1.72825 5.45968 4.14825 3.64968C115.188 -2.19032 226.778 -1.02032 337.588 7.14968C340.238 9.53968 338.248 14.0698 336.628 16.9998C335.008 19.9298 332.918 23.0797 333.978 26.1797C335.068 29.3497 339.288 31.6197 339.288 34.9097C339.278 39.1797 332.098 42.0198 332.868 46.2498C333.488 49.6798 339.158 51.6596 338.958 55.1096C338.818 57.3996 336.048 59.1097 335.708 61.3897C335.388 63.5297 337.268 65.4098 338.688 67.2398C340.108 69.0698 341.798 70.9998 339.918 72.5298Z" fill="#FFD45F"/>
</svg>
