<svg width="607" height="284" viewBox="0 0 607 284" fill="none" xmlns="http://www.w3.org/2000/svg">
<path d="M93.2675 32.8198C148.627 32.0598 318.057 30.1302 463.277 32.7602C471.697 32.9102 477.288 41.56 473.908 49.27C464.688 70.36 445.388 109.53 413.798 151.36C406.658 160.82 395.567 166.5 383.717 166.71C328.227 167.68 156.747 170.17 11.5675 166.82C2.90748 166.62 -2.61252 157.51 1.25748 149.76C12.2475 127.74 34.0675 87.0905 63.1675 48.0405C70.2475 38.5305 81.4175 32.9798 93.2675 32.8198Z" fill="#FFD45F"/>
<path d="M359.637 121.609C389.617 120.799 469.607 119.309 596.527 121.739C603.767 121.879 608.577 129.299 605.707 135.949C596.797 156.599 576.897 197.62 543.417 241C538.267 247.67 530.387 251.67 521.957 251.96C491.707 252.99 409.927 254.96 282.857 251.84C275.427 251.66 270.647 243.83 273.947 237.17C284.617 215.62 307.267 172.99 337.777 132.83C342.987 125.97 351.027 121.839 359.637 121.609Z" fill="#52A191"/>
<path d="M471.167 99.9697L538.507 22.4492L560.347 50.9697L471.167 99.9697Z" fill="#52A191"/>
<path d="M483.297 66.7393L519.097 6.67969L493.617 0L483.297 66.7393Z" fill="#FFD45F"/>
<path d="M501.197 99.9697L571.877 81.9092V108L501.197 99.9697Z" fill="#FFD45F"/>
<path d="M263.667 193.55L179.938 239.05L200.567 263.93L263.667 193.55Z" fill="#52A191"/>
<path d="M244.257 186.96L167.807 193.55L173.267 216.02L244.257 186.96Z" fill="#FFD45F"/>
<path d="M263.667 213.569L221.807 276.67L244.257 283.949L263.667 213.569Z" fill="#FFD45F"/>
<path d="M60.7274 242.21C60.7274 242.21 51.7174 235.26 41.7474 227.22C34.3074 221.24 26.3174 214.64 21.1274 209.88C21.1274 209.88 45.7974 192.52 67.1974 180.46C67.1974 180.46 50.8474 164.779 45.4274 158.189C45.4274 158.189 87.7774 147.879 118.827 146.359C118.827 146.359 112.407 191.739 107.207 216.409C107.207 216.409 92.9974 204.9 85.7674 198.76C85.7774 198.75 69.6874 228.17 60.7274 242.21Z" fill="#FF9B5F"/>
<path d="M84.7652 109.821C83.8879 109.821 83.2299 109.32 82.7912 108.317C82.3526 107.314 82.1332 105.889 82.1332 104.04C82.1332 102.411 82.3212 100.562 82.6972 98.494C83.1046 96.426 83.7156 94.0603 84.5302 91.397C84.4676 90.363 84.3579 89.4073 84.2012 88.53C84.0759 87.6213 83.8722 86.6656 83.5902 85.663C83.3396 84.6603 82.9792 83.5166 82.5092 82.232C82.1019 81.198 81.9922 80.4146 82.1802 79.882C82.3996 79.3493 82.9322 79.083 83.7782 79.083C84.7809 79.083 85.6426 79.6783 86.3632 80.869C87.1152 82.0596 87.6322 84.0806 87.9142 86.932L86.7392 87.214C87.9299 84.582 89.2772 82.4356 90.7812 80.775C92.3166 79.083 93.9772 77.8453 95.7632 77.062C97.5492 76.2473 99.4136 75.84 101.356 75.84C102.704 75.84 103.879 76.0436 104.881 76.451C105.884 76.8583 106.699 77.4223 107.325 78.143C107.952 78.8323 108.406 79.647 108.688 80.587C109.002 81.527 109.158 82.5453 109.158 83.642C109.158 84.864 108.908 86.1016 108.406 87.355C107.905 88.6083 107.043 89.8773 105.821 91.162C104.631 92.4153 103.001 93.653 100.933 94.875C98.8652 96.0656 96.2646 97.2093 93.1312 98.306C94.6352 99.5593 96.6092 100.844 99.0532 102.16C101.529 103.476 104.27 104.62 107.278 105.591C108.438 105.936 109.205 106.28 109.581 106.625C109.957 106.97 110.145 107.346 110.145 107.753C110.145 108.411 109.926 108.912 109.487 109.257C109.049 109.602 108.359 109.774 107.419 109.774C106.699 109.774 105.696 109.57 104.411 109.163C103.127 108.756 101.717 108.207 100.181 107.518C98.6772 106.829 97.1576 106.045 95.6222 105.168C94.1182 104.259 92.7239 103.319 91.4392 102.348C90.1859 101.377 89.1832 100.405 88.4312 99.434C88.0866 98.9326 87.8986 98.4313 87.8672 97.93C87.8359 97.4286 87.9769 96.9743 88.2902 96.567C88.6036 96.1596 89.0892 95.8463 89.7472 95.627C92.6299 94.6556 95.0426 93.653 96.9852 92.619C98.9279 91.585 100.479 90.551 101.638 89.517C102.798 88.483 103.628 87.4803 104.129 86.509C104.631 85.5376 104.881 84.6133 104.881 83.736C104.881 82.6706 104.568 81.762 103.941 81.01C103.346 80.258 102.328 79.882 100.886 79.882C99.5702 79.882 98.3012 80.1953 97.0792 80.822C95.8572 81.4486 94.6979 82.3416 93.6012 83.501C92.5359 84.6603 91.5646 86.039 90.6872 87.637C89.8099 89.235 89.0422 91.021 88.3842 92.995C87.7576 94.9376 87.2562 97.0056 86.8802 99.199C86.5356 101.392 86.3632 103.68 86.3632 106.061C86.3632 107.095 86.3162 107.894 86.2222 108.458C86.1282 108.991 85.9716 109.351 85.7522 109.539C85.5329 109.727 85.2039 109.821 84.7652 109.821ZM123.214 109.68C121.428 109.68 119.893 109.429 118.608 108.928C117.355 108.427 116.305 107.706 115.459 106.766C114.645 105.826 114.034 104.729 113.626 103.476C113.25 102.223 113.062 100.844 113.062 99.34C113.062 97.742 113.344 96.144 113.908 94.546C114.504 92.9166 115.35 91.444 116.446 90.128C117.543 88.7806 118.859 87.6996 120.394 86.885C121.93 86.0703 123.653 85.663 125.564 85.663C127.037 85.663 128.322 85.9293 129.418 86.462C130.515 86.9946 131.361 87.7936 131.956 88.859C132.583 89.893 132.896 91.209 132.896 92.807C132.896 94.0916 132.599 95.2196 132.003 96.191C131.408 97.1623 130.578 97.9926 129.512 98.682C128.478 99.34 127.256 99.857 125.846 100.233C124.436 100.578 122.917 100.75 121.287 100.75C119.407 100.75 118.091 100.499 117.339 99.998C116.587 99.4653 116.211 98.8856 116.211 98.259C116.211 97.883 116.305 97.6166 116.493 97.46C116.681 97.272 116.995 97.178 117.433 97.178C117.778 97.178 118.201 97.2406 118.702 97.366C119.235 97.46 119.987 97.507 120.958 97.507C122.525 97.507 123.888 97.319 125.047 96.943C126.238 96.5356 127.178 95.9716 127.867 95.251C128.557 94.5303 128.901 93.7 128.901 92.76C128.901 91.6946 128.635 90.8956 128.102 90.363C127.57 89.8303 126.692 89.564 125.47 89.564C124.248 89.564 123.12 89.846 122.086 90.41C121.084 90.974 120.206 91.7416 119.454 92.713C118.734 93.6843 118.17 94.7966 117.762 96.05C117.355 97.272 117.151 98.5566 117.151 99.904C117.151 101.032 117.339 102.05 117.715 102.959C118.091 103.836 118.702 104.557 119.548 105.121C120.394 105.654 121.538 105.92 122.979 105.92C124.671 105.92 126.081 105.716 127.209 105.309C128.369 104.902 129.324 104.447 130.076 103.946C130.828 103.413 131.455 102.959 131.956 102.583C132.489 102.176 132.975 101.972 133.413 101.972C133.852 101.972 134.15 102.097 134.306 102.348C134.463 102.599 134.541 103.006 134.541 103.57C134.541 104.197 134.228 104.87 133.601 105.591C133.006 106.28 132.176 106.938 131.11 107.565C130.045 108.192 128.839 108.709 127.491 109.116C126.144 109.492 124.718 109.68 123.214 109.68ZM154.316 121.43C151.997 121.43 150.023 121.164 148.394 120.631C146.764 120.098 145.464 119.393 144.493 118.516C143.553 117.639 142.863 116.699 142.425 115.696C141.986 114.725 141.767 113.816 141.767 112.97C141.767 112.155 141.986 111.466 142.425 110.902C142.863 110.338 143.412 110.056 144.07 110.056C144.602 110.056 144.978 110.181 145.198 110.432C145.417 110.714 145.527 111.106 145.527 111.607C145.527 112.766 145.887 113.785 146.608 114.662C147.328 115.539 148.315 116.213 149.569 116.683C150.822 117.184 152.279 117.435 153.94 117.435C155.82 117.435 157.104 116.887 157.794 115.79C158.483 114.725 158.828 113.189 158.828 111.184C158.828 109.461 158.718 107.894 158.499 106.484C158.279 105.074 157.997 103.742 157.653 102.489C157.339 101.236 157.042 99.998 156.76 98.776C156.478 97.554 156.258 96.2536 156.102 94.875L157.888 95.345C157.606 97.0996 157.151 98.6193 156.525 99.904C155.898 101.157 155.115 102.191 154.175 103.006C153.266 103.821 152.232 104.432 151.073 104.839C149.945 105.215 148.754 105.403 147.501 105.403C145.746 105.403 144.211 105.074 142.895 104.416C141.579 103.758 140.56 102.802 139.84 101.549C139.15 100.296 138.806 98.7446 138.806 96.896C138.806 95.392 139.103 93.9663 139.699 92.619C140.294 91.2716 141.109 90.081 142.143 89.047C143.208 87.9816 144.399 87.1513 145.715 86.556C147.031 85.9606 148.409 85.663 149.851 85.663C151.449 85.663 152.702 85.9136 153.611 86.415C154.551 86.885 155.224 87.496 155.632 88.248C156.039 89 156.243 89.7676 156.243 90.551C156.243 90.9896 156.117 91.4126 155.867 91.82C155.616 92.2273 155.318 92.431 154.974 92.431C154.535 92.431 154.19 92.29 153.94 92.008C153.72 91.726 153.485 91.4126 153.235 91.068C153.015 90.692 152.702 90.363 152.295 90.081C151.887 89.799 151.292 89.658 150.509 89.658C149.161 89.658 147.908 90.0183 146.749 90.739C145.621 91.4283 144.712 92.337 144.023 93.465C143.333 94.5616 142.989 95.721 142.989 96.943C142.989 98.3843 143.349 99.4966 144.07 100.28C144.79 101.032 145.934 101.408 147.501 101.408C148.973 101.408 150.305 101.016 151.496 100.233C152.718 99.4183 153.673 98.1336 154.363 96.379C155.083 94.6243 155.444 92.3213 155.444 89.47C155.444 88.7493 155.553 88.2323 155.773 87.919C156.023 87.5743 156.478 87.402 157.136 87.402C158.044 87.402 158.718 87.7623 159.157 88.483C159.627 89.2036 159.893 90.0183 159.956 90.927C160.112 92.8696 160.347 94.6243 160.661 96.191C161.005 97.7263 161.35 99.246 161.695 100.75C162.071 102.223 162.368 103.836 162.588 105.591C162.838 107.314 162.964 109.335 162.964 111.654C162.964 114.693 162.212 117.075 160.708 118.798C159.204 120.553 157.073 121.43 154.316 121.43ZM171.494 109.727C170.961 109.727 170.522 109.602 170.178 109.351C169.833 109.1 169.567 108.709 169.379 108.176C169.222 107.643 169.144 107.017 169.144 106.296C169.144 103.852 169.144 101.768 169.144 100.045C169.144 98.3216 169.128 96.8333 169.097 95.58C169.097 94.2953 169.097 93.1046 169.097 92.008C169.097 90.9113 169.097 89.752 169.097 88.53C169.097 87.966 169.175 87.4803 169.332 87.073C169.488 86.6656 169.739 86.3366 170.084 86.086C170.428 85.8353 170.867 85.71 171.4 85.71C172.089 85.71 172.653 85.945 173.092 86.415C173.562 86.885 173.812 87.6056 173.844 88.577C173.844 89.2663 173.828 90.2533 173.797 91.538C173.765 92.7913 173.718 94.1856 173.656 95.721C173.624 97.2563 173.593 98.8073 173.562 100.374C173.53 101.909 173.499 103.319 173.468 104.604C173.436 105.889 173.421 106.907 173.421 107.659C173.421 108.254 173.264 108.756 172.951 109.163C172.637 109.539 172.152 109.727 171.494 109.727ZM171.917 81.715C170.757 81.715 169.786 81.3703 169.003 80.681C168.219 79.9916 167.828 79.1613 167.828 78.19C167.828 77.344 168.125 76.6546 168.721 76.122C169.347 75.558 170.131 75.276 171.071 75.276C171.854 75.276 172.528 75.464 173.092 75.84C173.687 76.216 174.126 76.7016 174.408 77.297C174.69 77.861 174.831 78.4563 174.831 79.083C174.831 79.6783 174.596 80.2736 174.126 80.869C173.687 81.433 172.951 81.715 171.917 81.715ZM185.625 109.68C184.247 109.68 183.087 109.508 182.147 109.163C181.207 108.818 180.502 108.38 180.032 107.847C179.594 107.314 179.374 106.766 179.374 106.202C179.374 105.732 179.515 105.34 179.797 105.027C180.079 104.714 180.487 104.557 181.019 104.557C181.333 104.557 181.583 104.62 181.771 104.745C181.991 104.87 182.226 105.011 182.476 105.168C182.758 105.325 183.134 105.466 183.604 105.591C184.074 105.685 184.717 105.732 185.531 105.732C187.537 105.732 189.291 105.497 190.795 105.027C192.331 104.526 193.38 103.68 193.944 102.489C193.725 101.8 193.239 101.251 192.487 100.844C191.767 100.437 190.889 100.092 189.855 99.81C188.821 99.4966 187.74 99.1833 186.612 98.87C185.516 98.5253 184.497 98.1336 183.557 97.695C182.617 97.2563 181.834 96.661 181.207 95.909C180.612 95.157 180.314 94.2013 180.314 93.042C180.314 91.9453 180.659 90.9426 181.348 90.034C182.038 89.094 182.946 88.295 184.074 87.637C185.234 86.9476 186.503 86.4306 187.881 86.086C189.26 85.7413 190.654 85.569 192.064 85.569C192.91 85.569 193.615 85.71 194.179 85.992C194.743 86.274 195.166 86.6186 195.448 87.026C195.762 87.402 195.918 87.7936 195.918 88.201C195.918 88.671 195.777 89.047 195.495 89.329C195.245 89.611 194.853 89.752 194.32 89.752C194.132 89.752 193.944 89.7363 193.756 89.705C193.568 89.6736 193.333 89.658 193.051 89.658C192.801 89.6266 192.487 89.611 192.111 89.611C190.231 89.611 188.586 89.9086 187.176 90.504C185.798 91.068 184.764 91.9296 184.074 93.089C184.231 93.7156 184.67 94.2326 185.39 94.64C186.142 95.0473 187.035 95.392 188.069 95.674C189.135 95.956 190.231 96.2693 191.359 96.614C192.487 96.9273 193.537 97.319 194.508 97.789C195.511 98.2276 196.326 98.823 196.952 99.575C197.579 100.327 197.892 101.283 197.892 102.442C197.892 103.695 197.563 104.776 196.905 105.685C196.247 106.594 195.339 107.346 194.179 107.941C193.051 108.536 191.751 108.975 190.278 109.257C188.806 109.539 187.255 109.68 185.625 109.68ZM212.77 109.821C210.357 109.821 208.43 109.241 206.989 108.082C205.547 106.923 204.498 105.293 203.84 103.194C203.213 101.095 202.9 98.6506 202.9 95.862C202.9 94.17 202.978 92.6503 203.135 91.303C203.323 89.9556 203.526 88.671 203.746 87.449C203.965 86.227 204.137 85.005 204.263 83.783C204.419 82.3103 204.513 81.1196 204.545 80.211C204.607 79.271 204.67 78.4093 204.733 77.626C204.795 77.1873 204.952 76.7956 205.203 76.451C205.453 76.1063 205.876 75.934 206.472 75.934C207.474 75.934 208.132 76.5293 208.446 77.72C208.759 78.8793 208.79 80.6496 208.54 83.031C208.383 84.2843 208.211 85.3966 208.023 86.368C207.866 87.3393 207.709 88.295 207.553 89.235C207.427 90.1436 207.302 91.115 207.177 92.149C207.083 93.1516 207.036 94.3266 207.036 95.674C207.036 98.1806 207.255 100.17 207.694 101.643C208.132 103.116 208.79 104.165 209.668 104.792C210.545 105.419 211.626 105.732 212.911 105.732C213.694 105.732 214.289 105.654 214.697 105.497C215.104 105.34 215.449 105.199 215.731 105.074C216.013 104.917 216.357 104.839 216.765 104.839C217.203 104.839 217.548 104.98 217.799 105.262C218.049 105.544 218.175 105.92 218.175 106.39C218.175 107.267 217.72 108.066 216.812 108.787C215.903 109.476 214.556 109.821 212.77 109.821ZM207.083 91.585C206.268 91.961 205.626 91.9923 205.156 91.679C204.717 91.3656 204.498 90.9113 204.498 90.316C204.498 89.658 204.654 89.0783 204.968 88.577C205.312 88.0756 206.127 87.59 207.412 87.12C208.54 86.6813 209.809 86.3366 211.219 86.086C212.629 85.804 213.945 85.663 215.167 85.663C216.075 85.663 216.765 85.8666 217.235 86.274C217.705 86.65 217.94 87.167 217.94 87.825C217.94 88.3576 217.783 88.7493 217.47 89C217.156 89.2506 216.686 89.4073 216.06 89.47C214.744 89.564 213.569 89.705 212.535 89.893C211.532 90.081 210.592 90.316 209.715 90.598C208.869 90.88 207.991 91.209 207.083 91.585ZM231.534 109.68C229.153 109.68 227.21 109.241 225.706 108.364C224.234 107.455 223.137 106.233 222.416 104.698C221.727 103.131 221.382 101.345 221.382 99.34C221.382 97.742 221.664 96.144 222.228 94.546C222.824 92.9166 223.67 91.444 224.766 90.128C225.863 88.7806 227.179 87.6996 228.714 86.885C230.25 86.0703 231.973 85.663 233.884 85.663C235.357 85.663 236.642 85.9293 237.738 86.462C238.835 86.9946 239.681 87.7936 240.276 88.859C240.903 89.893 241.216 91.209 241.216 92.807C241.216 94.499 240.699 95.9403 239.665 97.131C238.663 98.2903 237.284 99.1833 235.529 99.81C233.775 100.437 231.801 100.75 229.607 100.75C227.727 100.75 226.411 100.499 225.659 99.998C224.907 99.4653 224.531 98.8856 224.531 98.259C224.531 97.883 224.625 97.6166 224.813 97.46C225.001 97.272 225.315 97.178 225.753 97.178C226.098 97.178 226.521 97.2406 227.022 97.366C227.555 97.46 228.307 97.507 229.278 97.507C230.845 97.507 232.208 97.319 233.367 96.943C234.558 96.5356 235.498 95.9716 236.187 95.251C236.877 94.5303 237.221 93.7 237.221 92.76C237.221 91.6946 236.955 90.8956 236.422 90.363C235.89 89.8303 235.012 89.564 233.79 89.564C232.568 89.564 231.44 89.846 230.406 90.41C229.404 90.974 228.526 91.7416 227.774 92.713C227.054 93.6843 226.49 94.7966 226.082 96.05C225.675 97.272 225.471 98.5566 225.471 99.904C225.471 101.032 225.659 102.05 226.035 102.959C226.411 103.836 227.022 104.557 227.868 105.121C228.714 105.654 229.858 105.92 231.299 105.92C232.991 105.92 234.401 105.716 235.529 105.309C236.689 104.902 237.644 104.447 238.396 103.946C239.148 103.413 239.775 102.959 240.276 102.583C240.809 102.176 241.295 101.972 241.733 101.972C242.172 101.972 242.47 102.097 242.626 102.348C242.783 102.599 242.861 103.006 242.861 103.57C242.861 104.197 242.548 104.87 241.921 105.591C241.326 106.28 240.496 106.938 239.43 107.565C238.365 108.192 237.159 108.709 235.811 109.116C234.464 109.492 233.038 109.68 231.534 109.68ZM251.741 109.774C251.271 109.774 250.863 109.633 250.519 109.351C250.174 109.069 249.908 108.662 249.72 108.129C249.532 107.596 249.438 107.001 249.438 106.343C249.438 104.306 249.406 102.301 249.344 100.327C249.281 98.353 249.156 96.5356 248.968 94.875C248.811 93.2143 248.576 91.8513 248.263 90.786C248.075 90.0653 247.934 89.5013 247.84 89.094C247.777 88.6866 247.746 88.2793 247.746 87.872C247.746 87.308 247.887 86.8536 248.169 86.509C248.482 86.133 248.952 85.945 249.579 85.945C250.143 85.945 250.644 86.2113 251.083 86.744C251.553 87.2453 251.944 88.1383 252.258 89.423C252.571 90.6763 252.79 92.431 252.916 94.687C253.041 96.943 253.072 99.7943 253.01 103.241L251.506 101.878C251.725 98.8386 252.211 96.285 252.963 94.217C253.746 92.1176 254.67 90.4413 255.736 89.188C256.832 87.9346 257.992 87.026 259.214 86.462C260.436 85.898 261.642 85.616 262.833 85.616C263.616 85.616 264.149 85.804 264.431 86.18C264.744 86.556 264.901 87.0103 264.901 87.543C264.901 87.9816 264.76 88.4046 264.478 88.812C264.196 89.188 263.71 89.47 263.021 89.658C261.391 90.034 260.044 90.7076 258.979 91.679C257.913 92.619 257.036 93.8096 256.347 95.251C255.689 96.661 255.172 98.2746 254.796 100.092C254.451 101.909 254.2 103.883 254.044 106.014C253.981 107.017 253.856 107.8 253.668 108.364C253.511 108.897 253.276 109.257 252.963 109.445C252.649 109.664 252.242 109.774 251.741 109.774ZM288.281 109.68C287.686 109.68 287.2 109.492 286.824 109.116C286.448 108.709 286.26 108.051 286.26 107.142C286.26 106.515 286.338 105.889 286.495 105.262C286.683 104.604 286.887 103.789 287.106 102.818C287.357 101.815 287.56 100.546 287.717 99.011C287.905 97.4756 287.999 95.5173 287.999 93.136C287.999 91.7886 287.952 90.3943 287.858 88.953C287.795 87.4803 287.717 86.086 287.623 84.77C287.529 83.4226 287.435 82.2633 287.341 81.292C287.278 80.2893 287.247 79.6 287.247 79.224C287.247 78.284 287.466 77.485 287.905 76.827C288.344 76.169 288.986 75.84 289.832 75.84C291.023 75.84 292.135 76.2473 293.169 77.062C294.234 77.8453 295.221 78.9263 296.13 80.305C297.039 81.6836 297.9 83.2346 298.715 84.958C299.53 86.6813 300.313 88.4673 301.065 90.316C301.817 92.1333 302.553 93.9036 303.274 95.627C303.995 97.3503 304.715 98.9326 305.436 100.374C306.157 101.784 306.893 102.928 307.645 103.805C308.397 104.651 309.196 105.121 310.042 105.215L308.209 106.108C308.679 105.513 309.039 104.886 309.29 104.228C309.572 103.539 309.776 102.724 309.901 101.784C310.026 100.813 310.089 99.6063 310.089 98.165C310.089 96.3163 310.042 94.5303 309.948 92.807C309.885 91.0523 309.838 89.3446 309.807 87.684C309.776 86.0233 309.807 84.4253 309.901 82.89C309.995 81.3233 310.214 79.8036 310.559 78.331C310.747 77.485 310.998 76.8896 311.311 76.545C311.656 76.169 312.126 75.981 312.721 75.981C313.285 75.981 313.739 76.169 314.084 76.545C314.429 76.921 314.648 77.391 314.742 77.955C314.867 78.519 314.867 79.1143 314.742 79.741C314.429 81.245 314.225 82.7176 314.131 84.159C314.037 85.569 314.006 86.9946 314.037 88.436C314.068 89.846 314.115 91.3343 314.178 92.901C314.241 94.4363 314.272 96.0813 314.272 97.836C314.272 100.123 314.147 102.176 313.896 103.993C313.677 105.779 313.222 107.189 312.533 108.223C311.844 109.226 310.81 109.727 309.431 109.727C308.146 109.727 307.003 109.335 306 108.552C305.029 107.769 304.136 106.703 303.321 105.356C302.506 104.009 301.739 102.489 301.018 100.797C300.297 99.0736 299.577 97.2876 298.856 95.439C298.167 93.559 297.415 91.7103 296.6 89.893C295.817 88.0443 294.939 86.3366 293.968 84.77C293.028 83.172 291.947 81.8246 290.725 80.728L291.43 80.54C291.649 82.326 291.806 83.9553 291.9 85.428C291.994 86.9006 292.072 88.2793 292.135 89.564C292.198 90.8173 292.229 92.008 292.229 93.136C292.229 96.0813 292.088 98.7603 291.806 101.173C291.524 103.586 291.07 105.779 290.443 107.753C290.318 108.317 290.067 108.787 289.691 109.163C289.315 109.508 288.845 109.68 288.281 109.68ZM332.791 109.774C330.41 109.774 328.279 109.273 326.399 108.27C324.551 107.236 323.094 105.826 322.028 104.04C320.994 102.223 320.477 100.155 320.477 97.836C320.477 96.0813 320.791 94.499 321.417 93.089C322.075 91.6476 322.89 90.41 323.861 89.376C324.833 88.342 325.804 87.5586 326.775 87.026C327.778 86.462 328.624 86.18 329.313 86.18C329.658 86.18 329.94 86.227 330.159 86.321C330.41 86.415 330.614 86.5716 330.77 86.791C330.927 86.979 331.005 87.2453 331.005 87.59C331.005 88.2166 330.864 88.7806 330.582 89.282C330.332 89.7833 329.799 90.2533 328.984 90.692C327.982 91.2873 327.167 91.9453 326.54 92.666C325.914 93.3553 325.444 94.123 325.13 94.969C324.817 95.7836 324.66 96.6766 324.66 97.648C324.66 100.186 325.381 102.223 326.822 103.758C328.264 105.262 330.206 106.014 332.65 106.014C334.718 106.014 336.379 105.231 337.632 103.664C338.886 102.066 339.512 99.951 339.512 97.319C339.512 94.9063 338.964 93.0263 337.867 91.679C336.802 90.3003 335.329 89.611 333.449 89.611C332.447 89.611 331.648 89.799 331.052 90.175C330.457 90.551 329.846 91.0523 329.219 91.679C328.718 92.149 328.342 92.572 328.091 92.948C327.872 93.324 327.637 93.6216 327.386 93.841C327.136 94.029 326.807 94.123 326.399 94.123C325.961 94.123 325.6 93.9976 325.318 93.747C325.068 93.465 324.942 92.995 324.942 92.337C324.942 91.6163 325.162 90.88 325.6 90.128C326.07 89.3446 326.681 88.6396 327.433 88.013C328.217 87.355 329.078 86.8223 330.018 86.415C330.958 86.0076 331.945 85.804 332.979 85.804C335.204 85.804 337.115 86.2896 338.713 87.261C340.311 88.201 341.533 89.5483 342.379 91.303C343.257 93.0263 343.695 95.0786 343.695 97.46C343.695 99.7786 343.21 101.878 342.238 103.758C341.298 105.607 340.014 107.079 338.384 108.176C336.755 109.241 334.891 109.774 332.791 109.774ZM356.652 109.915C355.743 109.915 354.929 109.476 354.208 108.599C353.519 107.69 352.908 106.108 352.375 103.852C351.968 102.223 351.576 100.515 351.2 98.729C350.855 96.9116 350.432 95.1726 349.931 93.512C349.43 91.82 348.772 90.3316 347.957 89.047C347.487 88.295 347.252 87.684 347.252 87.214C347.252 86.7126 347.409 86.321 347.722 86.039C348.067 85.757 348.505 85.616 349.038 85.616C349.665 85.616 350.244 85.8196 350.777 86.227C351.341 86.603 351.936 87.449 352.563 88.765C353.221 90.0183 353.738 91.397 354.114 92.901C354.49 94.405 354.819 95.9403 355.101 97.507C355.383 99.0736 355.712 100.562 356.088 101.972C356.464 103.382 356.934 104.62 357.498 105.685L356.135 105.826C356.636 105.074 357.075 104.134 357.451 103.006C357.858 101.847 358.234 100.593 358.579 99.246C358.955 97.8986 359.331 96.567 359.707 95.251C360.114 93.9036 360.522 92.6816 360.929 91.585C361.712 89.5483 362.433 88.0756 363.091 87.167C363.78 86.227 364.595 85.757 365.535 85.757C366.851 85.757 367.948 86.368 368.825 87.59C369.702 88.7806 370.642 90.692 371.645 93.324C372.021 94.3266 372.381 95.4076 372.726 96.567C373.102 97.695 373.494 98.823 373.901 99.951C374.308 101.048 374.747 102.066 375.217 103.006C375.687 103.946 376.235 104.729 376.862 105.356L375.875 105.591C376.439 104.557 376.862 103.398 377.144 102.113C377.457 100.828 377.708 99.4966 377.896 98.118C378.084 96.708 378.272 95.3293 378.46 93.982C378.679 92.6346 378.977 91.3656 379.353 90.175C379.666 89.2976 380.027 88.53 380.434 87.872C380.873 87.1826 381.358 86.65 381.891 86.274C382.455 85.8666 383.05 85.663 383.677 85.663C383.99 85.663 384.272 85.7413 384.523 85.898C384.805 86.0233 385.024 86.227 385.181 86.509C385.338 86.7596 385.416 87.0573 385.416 87.402C385.416 87.9033 385.291 88.3733 385.04 88.812C384.821 89.2506 384.523 89.6736 384.147 90.081C383.708 90.551 383.332 91.2403 383.019 92.149C382.737 93.0263 382.486 94.0133 382.267 95.11C382.079 96.2066 381.891 97.3346 381.703 98.494C381.546 99.6533 381.374 100.734 381.186 101.737C380.779 103.962 380.371 105.654 379.964 106.813C379.557 107.972 379.102 108.771 378.601 109.21C378.1 109.617 377.504 109.821 376.815 109.821C375.969 109.821 375.217 109.555 374.559 109.022C373.932 108.458 373.149 107.44 372.209 105.967C371.52 104.745 370.893 103.382 370.329 101.878C369.765 100.374 369.232 98.8543 368.731 97.319C368.23 95.7836 367.713 94.3893 367.18 93.136C366.679 91.8513 366.099 90.8486 365.441 90.128L366.334 89.893C365.739 90.645 365.206 91.632 364.736 92.854C364.266 94.0446 363.812 95.4076 363.373 96.943C362.966 98.447 362.527 100.014 362.057 101.643C361.587 103.241 361.039 104.808 360.412 106.343C359.879 107.69 359.347 108.63 358.814 109.163C358.281 109.664 357.561 109.915 356.652 109.915Z" fill="#52A191"/>
<path d="M349.396 185.658C348.875 185.658 348.365 185.579 347.866 185.42C347.39 185.284 346.948 185.001 346.54 184.57C346.155 184.14 345.815 183.516 345.52 182.7C345.226 181.884 344.988 180.808 344.806 179.47C344.648 178.133 344.568 176.478 344.568 174.506C344.568 172.602 344.602 170.925 344.67 169.474C344.761 168.001 344.874 166.652 345.01 165.428C345.169 164.182 345.35 162.958 345.554 161.756C345.713 160.895 345.906 160.294 346.132 159.954C346.359 159.614 346.665 159.444 347.05 159.444C347.504 159.444 347.866 159.637 348.138 160.022C348.41 160.408 348.546 161.054 348.546 161.96C348.546 162.595 348.501 163.286 348.41 164.034C348.32 164.782 348.206 165.655 348.07 166.652C347.957 167.65 347.855 168.84 347.764 170.222C347.674 171.582 347.628 173.237 347.628 175.186C347.628 176.66 347.674 177.895 347.764 178.892C347.878 179.867 348.014 180.638 348.172 181.204C348.354 181.771 348.569 182.179 348.818 182.428C349.068 182.655 349.317 182.768 349.566 182.768C349.884 182.768 350.133 182.734 350.314 182.666C350.496 182.598 350.643 182.542 350.756 182.496C350.892 182.428 351.04 182.394 351.198 182.394C351.606 182.394 351.878 182.508 352.014 182.734C352.15 182.961 352.218 183.233 352.218 183.55C352.218 183.958 352.082 184.332 351.81 184.672C351.538 184.99 351.187 185.228 350.756 185.386C350.326 185.568 349.872 185.658 349.396 185.658ZM357.046 185.658C356.661 185.658 356.343 185.568 356.094 185.386C355.845 185.205 355.652 184.922 355.516 184.536C355.403 184.151 355.346 183.698 355.346 183.176C355.346 181.408 355.346 179.901 355.346 178.654C355.346 177.408 355.335 176.331 355.312 175.424C355.312 174.495 355.312 173.634 355.312 172.84C355.312 172.047 355.312 171.208 355.312 170.324C355.312 169.916 355.369 169.565 355.482 169.27C355.595 168.976 355.777 168.738 356.026 168.556C356.275 168.375 356.593 168.284 356.978 168.284C357.477 168.284 357.885 168.454 358.202 168.794C358.542 169.134 358.723 169.656 358.746 170.358C358.746 170.857 358.735 171.571 358.712 172.5C358.689 173.407 358.655 174.416 358.61 175.526C358.587 176.637 358.565 177.759 358.542 178.892C358.519 180.003 358.497 181.023 358.474 181.952C358.451 182.882 358.44 183.618 358.44 184.162C358.44 184.593 358.327 184.956 358.1 185.25C357.873 185.522 357.522 185.658 357.046 185.658ZM357.352 165.394C356.513 165.394 355.811 165.145 355.244 164.646C354.677 164.148 354.394 163.547 354.394 162.844C354.394 162.232 354.609 161.734 355.04 161.348C355.493 160.94 356.06 160.736 356.74 160.736C357.307 160.736 357.794 160.872 358.202 161.144C358.633 161.416 358.95 161.768 359.154 162.198C359.358 162.606 359.46 163.037 359.46 163.49C359.46 163.921 359.29 164.352 358.95 164.782C358.633 165.19 358.1 165.394 357.352 165.394ZM365.7 185.59C365.247 185.59 364.884 185.386 364.612 184.978C364.363 184.548 364.181 184.004 364.068 183.346C363.977 182.666 363.932 181.952 363.932 181.204C363.932 180.048 363.977 178.87 364.068 177.668C364.181 176.467 364.238 175.3 364.238 174.166C364.238 173.554 364.181 172.988 364.068 172.466C363.977 171.922 363.932 171.39 363.932 170.868C363.932 170.596 364.034 170.358 364.238 170.154C364.465 169.928 364.771 169.814 365.156 169.814C365.609 169.814 365.961 169.973 366.21 170.29C366.459 170.608 366.641 171.061 366.754 171.65C366.89 172.217 366.958 172.908 366.958 173.724L366.414 174.336C366.777 172.908 367.173 171.752 367.604 170.868C368.057 169.984 368.567 169.338 369.134 168.93C369.701 168.5 370.301 168.284 370.936 168.284C371.752 168.284 372.432 168.624 372.976 169.304C373.543 169.984 374.007 170.959 374.37 172.228C374.733 173.475 375.039 174.948 375.288 176.648C375.515 178.122 375.719 179.232 375.9 179.98C376.081 180.728 376.285 181.318 376.512 181.748L375.56 181.578C376.172 178.949 376.875 176.637 377.668 174.642C378.484 172.648 379.357 171.095 380.286 169.984C381.238 168.851 382.19 168.284 383.142 168.284C384.547 168.284 385.556 168.964 386.168 170.324C386.803 171.662 387.256 173.724 387.528 176.512C387.664 178.031 387.834 179.232 388.038 180.116C388.242 180.978 388.435 181.646 388.616 182.122C388.797 182.576 388.945 182.961 389.058 183.278C389.171 183.573 389.228 183.936 389.228 184.366C389.228 184.797 389.081 185.103 388.786 185.284C388.514 185.488 388.163 185.59 387.732 185.59C387.256 185.59 386.825 185.341 386.44 184.842C386.055 184.321 385.726 183.528 385.454 182.462C385.205 181.374 384.967 179.969 384.74 178.246C384.581 176.841 384.434 175.719 384.298 174.88C384.185 174.019 384.049 173.339 383.89 172.84C383.754 172.342 383.595 171.945 383.414 171.65C383.233 171.356 383.006 171.072 382.734 170.8L383.482 170.698C382.485 171.628 381.646 172.75 380.966 174.064C380.309 175.356 379.731 176.841 379.232 178.518C378.733 180.196 378.212 182.043 377.668 184.06C377.532 184.559 377.305 184.944 376.988 185.216C376.693 185.466 376.353 185.59 375.968 185.59C375.084 185.59 374.404 185.001 373.928 183.822C373.452 182.621 373.067 180.966 372.772 178.858C372.545 177.362 372.33 176.093 372.126 175.05C371.922 174.008 371.673 173.135 371.378 172.432C371.083 171.73 370.698 171.163 370.222 170.732L371.14 170.97C370.46 171.537 369.871 172.308 369.372 173.282C368.896 174.234 368.499 175.311 368.182 176.512C367.887 177.714 367.649 178.949 367.468 180.218C367.287 181.488 367.139 182.734 367.026 183.958C366.981 184.57 366.833 185.001 366.584 185.25C366.335 185.477 366.04 185.59 365.7 185.59ZM395.296 185.658C394.911 185.658 394.593 185.568 394.344 185.386C394.095 185.205 393.902 184.922 393.766 184.536C393.653 184.151 393.596 183.698 393.596 183.176C393.596 181.408 393.596 179.901 393.596 178.654C393.596 177.408 393.585 176.331 393.562 175.424C393.562 174.495 393.562 173.634 393.562 172.84C393.562 172.047 393.562 171.208 393.562 170.324C393.562 169.916 393.619 169.565 393.732 169.27C393.845 168.976 394.027 168.738 394.276 168.556C394.525 168.375 394.843 168.284 395.228 168.284C395.727 168.284 396.135 168.454 396.452 168.794C396.792 169.134 396.973 169.656 396.996 170.358C396.996 170.857 396.985 171.571 396.962 172.5C396.939 173.407 396.905 174.416 396.86 175.526C396.837 176.637 396.815 177.759 396.792 178.892C396.769 180.003 396.747 181.023 396.724 181.952C396.701 182.882 396.69 183.618 396.69 184.162C396.69 184.593 396.577 184.956 396.35 185.25C396.123 185.522 395.772 185.658 395.296 185.658ZM395.602 165.394C394.763 165.394 394.061 165.145 393.494 164.646C392.927 164.148 392.644 163.547 392.644 162.844C392.644 162.232 392.859 161.734 393.29 161.348C393.743 160.94 394.31 160.736 394.99 160.736C395.557 160.736 396.044 160.872 396.452 161.144C396.883 161.416 397.2 161.768 397.404 162.198C397.608 162.606 397.71 163.037 397.71 163.49C397.71 163.921 397.54 164.352 397.2 164.782C396.883 165.19 396.35 165.394 395.602 165.394ZM409.284 185.726C407.539 185.726 406.145 185.307 405.102 184.468C404.059 183.63 403.3 182.451 402.824 180.932C402.371 179.414 402.144 177.646 402.144 175.628C402.144 174.404 402.201 173.305 402.314 172.33C402.45 171.356 402.597 170.426 402.756 169.542C402.915 168.658 403.039 167.774 403.13 166.89C403.243 165.825 403.311 164.964 403.334 164.306C403.379 163.626 403.425 163.003 403.47 162.436C403.515 162.119 403.629 161.836 403.81 161.586C403.991 161.337 404.297 161.212 404.728 161.212C405.453 161.212 405.929 161.643 406.156 162.504C406.383 163.343 406.405 164.624 406.224 166.346C406.111 167.253 405.986 168.058 405.85 168.76C405.737 169.463 405.623 170.154 405.51 170.834C405.419 171.492 405.329 172.194 405.238 172.942C405.17 173.668 405.136 174.518 405.136 175.492C405.136 177.306 405.295 178.745 405.612 179.81C405.929 180.876 406.405 181.635 407.04 182.088C407.675 182.542 408.457 182.768 409.386 182.768C409.953 182.768 410.383 182.712 410.678 182.598C410.973 182.485 411.222 182.383 411.426 182.292C411.63 182.179 411.879 182.122 412.174 182.122C412.491 182.122 412.741 182.224 412.922 182.428C413.103 182.632 413.194 182.904 413.194 183.244C413.194 183.879 412.865 184.457 412.208 184.978C411.551 185.477 410.576 185.726 409.284 185.726ZM405.17 172.534C404.581 172.806 404.116 172.829 403.776 172.602C403.459 172.376 403.3 172.047 403.3 171.616C403.3 171.14 403.413 170.721 403.64 170.358C403.889 169.996 404.479 169.644 405.408 169.304C405.952 169.1 406.541 168.919 407.176 168.76C407.833 168.602 408.491 168.477 409.148 168.386C409.805 168.296 410.429 168.25 411.018 168.25C411.471 168.25 411.834 168.318 412.106 168.454C412.401 168.568 412.627 168.738 412.786 168.964C412.945 169.191 413.024 169.474 413.024 169.814C413.024 170.2 412.911 170.483 412.684 170.664C412.457 170.846 412.117 170.959 411.664 171.004C410.712 171.072 409.862 171.174 409.114 171.31C408.389 171.446 407.709 171.616 407.074 171.82C406.462 172.024 405.827 172.262 405.17 172.534ZM422.859 185.624C421.136 185.624 419.731 185.307 418.643 184.672C417.577 184.015 416.784 183.131 416.263 182.02C415.764 180.887 415.515 179.595 415.515 178.144C415.515 176.988 415.719 175.832 416.127 174.676C416.557 173.498 417.169 172.432 417.963 171.48C418.756 170.506 419.708 169.724 420.819 169.134C421.929 168.545 423.176 168.25 424.559 168.25C426.145 168.25 427.426 168.681 428.401 169.542C429.375 170.404 429.863 171.696 429.863 173.418C429.863 174.642 429.489 175.685 428.741 176.546C428.015 177.385 427.018 178.031 425.749 178.484C424.479 178.938 423.051 179.164 421.465 179.164C420.105 179.164 419.153 178.983 418.609 178.62C418.065 178.235 417.793 177.816 417.793 177.362C417.793 177.09 417.861 176.898 417.997 176.784C418.133 176.648 418.359 176.58 418.677 176.58C418.926 176.58 419.232 176.626 419.595 176.716C419.98 176.784 420.524 176.818 421.227 176.818C422.36 176.818 423.346 176.682 424.185 176.41C425.046 176.116 425.726 175.708 426.225 175.186C426.723 174.665 426.973 174.064 426.973 173.384C426.973 172.614 426.78 172.036 426.395 171.65C426.009 171.265 425.375 171.072 424.491 171.072C423.335 171.072 422.303 171.424 421.397 172.126C420.49 172.829 419.776 173.747 419.255 174.88C418.733 176.014 418.473 177.238 418.473 178.552C418.473 179.368 418.609 180.105 418.881 180.762C419.153 181.397 419.595 181.918 420.207 182.326C420.819 182.712 421.646 182.904 422.689 182.904C423.913 182.904 424.933 182.757 425.749 182.462C426.587 182.168 427.279 181.839 427.823 181.476C428.367 181.091 428.82 180.762 429.183 180.49C429.568 180.196 429.919 180.048 430.237 180.048C430.554 180.048 430.769 180.139 430.883 180.32C430.996 180.502 431.053 180.796 431.053 181.204C431.053 181.658 430.826 182.145 430.373 182.666C429.942 183.165 429.341 183.641 428.571 184.094C427.8 184.548 426.927 184.922 425.953 185.216C424.978 185.488 423.947 185.624 422.859 185.624ZM441.75 185.59C440.685 185.59 439.699 185.33 438.792 184.808C437.908 184.287 437.138 183.573 436.48 182.666C435.846 181.76 435.347 180.717 434.984 179.538C434.622 178.36 434.44 177.113 434.44 175.798C434.44 174.28 434.746 172.954 435.358 171.82C435.993 170.687 436.877 169.803 438.01 169.168C439.144 168.534 440.447 168.228 441.92 168.25C443.054 168.25 444.028 168.409 444.844 168.726C445.66 169.021 446.284 169.44 446.714 169.984C447.168 170.528 447.394 171.152 447.394 171.854C447.394 172.149 447.315 172.387 447.156 172.568C446.998 172.727 446.816 172.806 446.612 172.806C446.318 172.806 446.068 172.727 445.864 172.568C445.66 172.41 445.422 172.228 445.15 172.024C444.901 171.798 444.55 171.605 444.096 171.446C443.643 171.288 443.031 171.208 442.26 171.208C440.719 171.208 439.54 171.616 438.724 172.432C437.908 173.248 437.5 174.37 437.5 175.798C437.5 177.045 437.693 178.19 438.078 179.232C438.486 180.275 438.996 181.102 439.608 181.714C440.243 182.326 440.9 182.632 441.58 182.632C442.782 182.632 443.836 181.816 444.742 180.184C445.672 178.53 446.408 176.127 446.952 172.976C447.496 169.803 447.768 165.961 447.768 161.45C447.768 160.702 447.893 160.181 448.142 159.886C448.414 159.592 448.754 159.444 449.162 159.444C449.706 159.444 450.126 159.716 450.42 160.26C450.715 160.782 450.851 161.552 450.828 162.572C450.806 164.25 450.738 165.746 450.624 167.06C450.534 168.352 450.432 169.622 450.318 170.868C450.228 172.092 450.182 173.441 450.182 174.914C450.182 176.365 450.273 177.566 450.454 178.518C450.658 179.47 450.896 180.241 451.168 180.83C451.463 181.42 451.735 181.896 451.984 182.258C452.256 182.621 452.483 182.95 452.664 183.244C452.868 183.539 452.97 183.868 452.97 184.23C452.97 184.593 452.834 184.922 452.562 185.216C452.313 185.488 451.928 185.624 451.406 185.624C450.885 185.624 450.364 185.352 449.842 184.808C449.344 184.264 448.902 183.516 448.516 182.564C448.154 181.612 447.87 180.536 447.666 179.334C447.485 178.11 447.417 176.83 447.462 175.492L449.026 175.05C448.573 177.589 447.961 179.64 447.19 181.204C446.442 182.746 445.592 183.868 444.64 184.57C443.711 185.25 442.748 185.59 441.75 185.59ZM471.759 185.624C470.762 185.624 469.923 185.5 469.243 185.25C468.563 185.001 468.053 184.684 467.713 184.298C467.396 183.913 467.237 183.516 467.237 183.108C467.237 182.768 467.339 182.485 467.543 182.258C467.747 182.032 468.042 181.918 468.427 181.918C468.654 181.918 468.835 181.964 468.971 182.054C469.13 182.145 469.3 182.247 469.481 182.36C469.685 182.474 469.957 182.576 470.297 182.666C470.637 182.734 471.102 182.768 471.691 182.768C473.142 182.768 474.411 182.598 475.499 182.258C476.61 181.896 477.369 181.284 477.777 180.422C477.618 179.924 477.267 179.527 476.723 179.232C476.202 178.938 475.567 178.688 474.819 178.484C474.071 178.258 473.289 178.031 472.473 177.804C471.68 177.555 470.943 177.272 470.263 176.954C469.583 176.637 469.016 176.206 468.563 175.662C468.132 175.118 467.917 174.427 467.917 173.588C467.917 172.795 468.166 172.07 468.665 171.412C469.164 170.732 469.821 170.154 470.637 169.678C471.476 169.18 472.394 168.806 473.391 168.556C474.388 168.307 475.397 168.182 476.417 168.182C477.029 168.182 477.539 168.284 477.947 168.488C478.355 168.692 478.661 168.942 478.865 169.236C479.092 169.508 479.205 169.792 479.205 170.086C479.205 170.426 479.103 170.698 478.899 170.902C478.718 171.106 478.434 171.208 478.049 171.208C477.913 171.208 477.777 171.197 477.641 171.174C477.505 171.152 477.335 171.14 477.131 171.14C476.95 171.118 476.723 171.106 476.451 171.106C475.091 171.106 473.901 171.322 472.881 171.752C471.884 172.16 471.136 172.784 470.637 173.622C470.75 174.076 471.068 174.45 471.589 174.744C472.133 175.039 472.779 175.288 473.527 175.492C474.298 175.696 475.091 175.923 475.907 176.172C476.723 176.399 477.482 176.682 478.185 177.022C478.91 177.34 479.5 177.77 479.953 178.314C480.406 178.858 480.633 179.55 480.633 180.388C480.633 181.59 480.214 182.587 479.375 183.38C478.559 184.151 477.482 184.718 476.145 185.08C474.808 185.443 473.346 185.624 471.759 185.624ZM491.257 185.624C489.965 185.624 488.854 185.443 487.925 185.08C487.018 184.718 486.259 184.196 485.647 183.516C485.058 182.836 484.616 182.043 484.321 181.136C484.049 180.23 483.913 179.232 483.913 178.144C483.913 176.988 484.117 175.832 484.525 174.676C484.956 173.498 485.568 172.432 486.361 171.48C487.154 170.506 488.106 169.724 489.217 169.134C490.328 168.545 491.574 168.25 492.957 168.25C494.022 168.25 494.952 168.443 495.745 168.828C496.538 169.214 497.15 169.792 497.581 170.562C498.034 171.31 498.261 172.262 498.261 173.418C498.261 174.348 498.046 175.164 497.615 175.866C497.184 176.569 496.584 177.17 495.813 177.668C495.065 178.144 494.181 178.518 493.161 178.79C492.141 179.04 491.042 179.164 489.863 179.164C488.503 179.164 487.551 178.983 487.007 178.62C486.463 178.235 486.191 177.816 486.191 177.362C486.191 177.09 486.259 176.898 486.395 176.784C486.531 176.648 486.758 176.58 487.075 176.58C487.324 176.58 487.63 176.626 487.993 176.716C488.378 176.784 488.922 176.818 489.625 176.818C490.758 176.818 491.744 176.682 492.583 176.41C493.444 176.116 494.124 175.708 494.623 175.186C495.122 174.665 495.371 174.064 495.371 173.384C495.371 172.614 495.178 172.036 494.793 171.65C494.408 171.265 493.773 171.072 492.889 171.072C492.005 171.072 491.189 171.276 490.441 171.684C489.716 172.092 489.081 172.648 488.537 173.35C488.016 174.053 487.608 174.858 487.313 175.764C487.018 176.648 486.871 177.578 486.871 178.552C486.871 179.368 487.007 180.105 487.279 180.762C487.551 181.397 487.993 181.918 488.605 182.326C489.217 182.712 490.044 182.904 491.087 182.904C492.311 182.904 493.331 182.757 494.147 182.462C494.986 182.168 495.677 181.839 496.221 181.476C496.765 181.091 497.218 180.762 497.581 180.49C497.966 180.196 498.318 180.048 498.635 180.048C498.952 180.048 499.168 180.139 499.281 180.32C499.394 180.502 499.451 180.796 499.451 181.204C499.451 181.658 499.224 182.145 498.771 182.666C498.34 183.165 497.74 183.641 496.969 184.094C496.198 184.548 495.326 184.922 494.351 185.216C493.376 185.488 492.345 185.624 491.257 185.624ZM507.803 185.624C506.783 185.624 505.887 185.386 505.117 184.91C504.369 184.434 503.791 183.766 503.383 182.904C502.975 182.043 502.771 181.034 502.771 179.878C502.771 178.79 502.941 177.691 503.281 176.58C503.621 175.47 504.097 174.416 504.709 173.418C505.321 172.421 506.046 171.537 506.885 170.766C507.746 169.996 508.687 169.395 509.707 168.964C510.727 168.511 511.815 168.284 512.971 168.284C513.492 168.284 513.923 168.42 514.263 168.692C514.603 168.964 514.773 169.372 514.773 169.916C514.773 170.188 514.682 170.426 514.501 170.63C514.342 170.812 514.093 170.925 513.753 170.97C512.166 171.174 510.772 171.73 509.571 172.636C508.392 173.543 507.474 174.642 506.817 175.934C506.159 177.226 505.831 178.575 505.831 179.98C505.831 180.638 505.887 181.238 506.001 181.782C506.114 182.304 506.363 182.984 506.749 183.822L504.981 181.476C505.502 181.998 505.933 182.338 506.273 182.496C506.635 182.655 507.123 182.734 507.735 182.734C509.185 182.734 510.477 181.873 511.611 180.15C512.767 178.428 513.605 175.923 514.127 172.636C514.217 172.206 514.376 171.877 514.603 171.65C514.829 171.401 515.135 171.276 515.521 171.276C516.065 171.276 516.529 171.492 516.915 171.922C517.3 172.33 517.538 172.874 517.629 173.554C517.833 174.869 518.048 176.048 518.275 177.09C518.524 178.11 518.875 179.085 519.329 180.014C519.782 180.921 520.394 181.884 521.165 182.904C521.369 183.131 521.482 183.392 521.505 183.686C521.527 183.981 521.482 184.276 521.369 184.57C521.278 184.842 521.119 185.069 520.893 185.25C520.689 185.432 520.439 185.522 520.145 185.522C519.827 185.522 519.567 185.454 519.363 185.318C519.159 185.182 518.966 185.012 518.785 184.808C518.354 184.196 517.946 183.596 517.561 183.006C517.175 182.394 516.824 181.703 516.507 180.932C516.189 180.139 515.917 179.21 515.691 178.144C515.464 177.056 515.305 175.776 515.215 174.302L516.337 174.268C515.929 177.056 515.271 179.289 514.365 180.966C513.458 182.621 512.427 183.811 511.271 184.536C510.115 185.262 508.959 185.624 507.803 185.624ZM531.206 185.726C529.461 185.726 528.067 185.307 527.024 184.468C525.981 183.63 525.222 182.451 524.746 180.932C524.293 179.414 524.066 177.646 524.066 175.628C524.066 174.404 524.123 173.305 524.236 172.33C524.372 171.356 524.519 170.426 524.678 169.542C524.837 168.658 524.961 167.774 525.052 166.89C525.165 165.825 525.233 164.964 525.256 164.306C525.301 163.626 525.347 163.003 525.392 162.436C525.437 162.119 525.551 161.836 525.732 161.586C525.913 161.337 526.219 161.212 526.65 161.212C527.375 161.212 527.851 161.643 528.078 162.504C528.305 163.343 528.327 164.624 528.146 166.346C528.033 167.253 527.908 168.058 527.772 168.76C527.659 169.463 527.545 170.154 527.432 170.834C527.341 171.492 527.251 172.194 527.16 172.942C527.092 173.668 527.058 174.518 527.058 175.492C527.058 177.306 527.217 178.745 527.534 179.81C527.851 180.876 528.327 181.635 528.962 182.088C529.597 182.542 530.379 182.768 531.308 182.768C531.875 182.768 532.305 182.712 532.6 182.598C532.895 182.485 533.144 182.383 533.348 182.292C533.552 182.179 533.801 182.122 534.096 182.122C534.413 182.122 534.663 182.224 534.844 182.428C535.025 182.632 535.116 182.904 535.116 183.244C535.116 183.879 534.787 184.457 534.13 184.978C533.473 185.477 532.498 185.726 531.206 185.726ZM527.092 172.534C526.503 172.806 526.038 172.829 525.698 172.602C525.381 172.376 525.222 172.047 525.222 171.616C525.222 171.14 525.335 170.721 525.562 170.358C525.811 169.996 526.401 169.644 527.33 169.304C528.146 168.987 529.064 168.738 530.084 168.556C531.104 168.352 532.056 168.25 532.94 168.25C533.597 168.25 534.096 168.398 534.436 168.692C534.776 168.964 534.946 169.338 534.946 169.814C534.946 170.2 534.833 170.483 534.606 170.664C534.379 170.846 534.039 170.959 533.586 171.004C532.634 171.072 531.784 171.174 531.036 171.31C530.311 171.446 529.631 171.616 528.996 171.82C528.384 172.024 527.749 172.262 527.092 172.534ZM542.581 185.624C541.584 185.624 540.745 185.5 540.065 185.25C539.385 185.001 538.875 184.684 538.535 184.298C538.218 183.913 538.059 183.516 538.059 183.108C538.059 182.768 538.161 182.485 538.365 182.258C538.569 182.032 538.864 181.918 539.249 181.918C539.476 181.918 539.657 181.964 539.793 182.054C539.952 182.145 540.122 182.247 540.303 182.36C540.507 182.474 540.779 182.576 541.119 182.666C541.459 182.734 541.924 182.768 542.513 182.768C543.964 182.768 545.233 182.598 546.321 182.258C547.432 181.896 548.191 181.284 548.599 180.422C548.441 179.924 548.089 179.527 547.545 179.232C547.024 178.938 546.389 178.688 545.641 178.484C544.893 178.258 544.111 178.031 543.295 177.804C542.502 177.555 541.765 177.272 541.085 176.954C540.405 176.637 539.839 176.206 539.385 175.662C538.955 175.118 538.739 174.427 538.739 173.588C538.739 172.795 538.989 172.07 539.487 171.412C539.986 170.732 540.643 170.154 541.459 169.678C542.298 169.18 543.216 168.806 544.213 168.556C545.211 168.307 546.219 168.182 547.239 168.182C547.851 168.182 548.361 168.284 548.769 168.488C549.177 168.692 549.483 168.942 549.687 169.236C549.914 169.508 550.027 169.792 550.027 170.086C550.027 170.426 549.925 170.698 549.721 170.902C549.54 171.106 549.257 171.208 548.871 171.208C548.735 171.208 548.599 171.197 548.463 171.174C548.327 171.152 548.157 171.14 547.953 171.14C547.772 171.118 547.545 171.106 547.273 171.106C545.913 171.106 544.723 171.322 543.703 171.752C542.706 172.16 541.958 172.784 541.459 173.622C541.573 174.076 541.89 174.45 542.411 174.744C542.955 175.039 543.601 175.288 544.349 175.492C545.12 175.696 545.913 175.923 546.729 176.172C547.545 176.399 548.305 176.682 549.007 177.022C549.733 177.34 550.322 177.77 550.775 178.314C551.229 178.858 551.455 179.55 551.455 180.388C551.455 181.295 551.217 182.077 550.741 182.734C550.265 183.392 549.608 183.936 548.769 184.366C547.953 184.797 547.013 185.114 545.947 185.318C544.882 185.522 543.76 185.624 542.581 185.624ZM349.158 226.624C348.138 226.624 347.243 226.386 346.472 225.91C345.724 225.434 345.146 224.766 344.738 223.904C344.33 223.043 344.126 222.034 344.126 220.878C344.126 219.79 344.296 218.691 344.636 217.58C344.976 216.47 345.452 215.416 346.064 214.418C346.676 213.421 347.402 212.537 348.24 211.766C349.102 210.996 350.042 210.395 351.062 209.964C352.082 209.511 353.17 209.284 354.326 209.284C354.848 209.284 355.278 209.42 355.618 209.692C355.958 209.964 356.128 210.372 356.128 210.916C356.128 211.188 356.038 211.426 355.856 211.63C355.698 211.812 355.448 211.925 355.108 211.97C353.522 212.174 352.128 212.73 350.926 213.636C349.748 214.543 348.83 215.642 348.172 216.934C347.515 218.226 347.186 219.575 347.186 220.98C347.186 221.638 347.243 222.238 347.356 222.782C347.47 223.304 347.719 223.984 348.104 224.822L346.336 222.476C346.858 222.998 347.288 223.338 347.628 223.496C347.991 223.655 348.478 223.734 349.09 223.734C350.541 223.734 351.833 222.873 352.966 221.15C354.122 219.428 354.961 216.923 355.482 213.636C355.573 213.206 355.732 212.877 355.958 212.65C356.185 212.401 356.491 212.276 356.876 212.276C357.42 212.276 357.885 212.492 358.27 212.922C358.656 213.33 358.894 213.874 358.984 214.554C359.188 215.869 359.404 217.048 359.63 218.09C359.88 219.11 360.231 220.085 360.684 221.014C361.138 221.921 361.75 222.884 362.52 223.904C362.724 224.131 362.838 224.392 362.86 224.686C362.883 224.981 362.838 225.276 362.724 225.57C362.634 225.842 362.475 226.069 362.248 226.25C362.044 226.432 361.795 226.522 361.5 226.522C361.183 226.522 360.922 226.454 360.718 226.318C360.514 226.182 360.322 226.012 360.14 225.808C359.71 225.196 359.302 224.596 358.916 224.006C358.531 223.394 358.18 222.703 357.862 221.932C357.545 221.139 357.273 220.21 357.046 219.144C356.82 218.056 356.661 216.776 356.57 215.302L357.692 215.268C357.375 217.354 356.922 219.133 356.332 220.606C355.743 222.057 355.052 223.224 354.258 224.108C353.465 224.97 352.626 225.604 351.742 226.012C350.881 226.42 350.02 226.624 349.158 226.624ZM371.331 226.624C370.945 226.624 370.594 226.5 370.277 226.25C369.982 226.001 369.642 225.616 369.257 225.094C368.917 224.55 368.554 223.825 368.169 222.918C367.783 221.989 367.398 220.98 367.013 219.892C366.627 218.804 366.242 217.773 365.857 216.798C365.381 215.552 364.961 214.577 364.599 213.874C364.259 213.149 363.964 212.594 363.715 212.208C363.488 211.823 363.318 211.506 363.205 211.256C363.091 210.984 363.035 210.678 363.035 210.338C363.035 210.044 363.137 209.783 363.341 209.556C363.545 209.33 363.873 209.216 364.327 209.216C364.961 209.216 365.483 209.42 365.891 209.828C366.321 210.236 366.684 210.769 366.979 211.426C367.296 212.084 367.602 212.786 367.897 213.534C368.305 214.554 368.701 215.654 369.087 216.832C369.472 217.988 369.891 219.122 370.345 220.232C370.798 221.32 371.285 222.295 371.807 223.156L370.651 223.19C371.263 221.921 371.784 220.697 372.215 219.518C372.668 218.317 373.11 217.172 373.541 216.084C373.971 214.974 374.436 213.931 374.935 212.956C375.456 211.959 376.091 211.018 376.839 210.134C377.111 209.84 377.349 209.624 377.553 209.488C377.779 209.352 378.074 209.284 378.437 209.284C378.686 209.284 378.913 209.352 379.117 209.488C379.343 209.624 379.513 209.806 379.627 210.032C379.763 210.236 379.831 210.463 379.831 210.712C379.831 210.984 379.774 211.234 379.661 211.46C379.57 211.687 379.457 211.902 379.321 212.106C378.482 213.149 377.791 214.169 377.247 215.166C376.725 216.141 376.261 217.15 375.853 218.192C375.445 219.212 375.025 220.312 374.595 221.49C374.164 222.646 373.62 223.927 372.963 225.332C372.736 225.808 372.509 226.137 372.283 226.318C372.056 226.522 371.739 226.624 371.331 226.624ZM386.545 226.624C385.525 226.624 384.63 226.386 383.859 225.91C383.111 225.434 382.533 224.766 382.125 223.904C381.717 223.043 381.513 222.034 381.513 220.878C381.513 219.79 381.683 218.691 382.023 217.58C382.363 216.47 382.839 215.416 383.451 214.418C384.063 213.421 384.788 212.537 385.627 211.766C386.488 210.996 387.429 210.395 388.449 209.964C389.469 209.511 390.557 209.284 391.713 209.284C392.234 209.284 392.665 209.42 393.005 209.692C393.345 209.964 393.515 210.372 393.515 210.916C393.515 211.188 393.424 211.426 393.243 211.63C393.084 211.812 392.835 211.925 392.495 211.97C390.908 212.174 389.514 212.73 388.313 213.636C387.134 214.543 386.216 215.642 385.559 216.934C384.902 218.226 384.573 219.575 384.573 220.98C384.573 221.638 384.63 222.238 384.743 222.782C384.856 223.304 385.106 223.984 385.491 224.822L383.723 222.476C384.244 222.998 384.675 223.338 385.015 223.496C385.378 223.655 385.865 223.734 386.477 223.734C387.928 223.734 389.22 222.873 390.353 221.15C391.509 219.428 392.348 216.923 392.869 213.636C392.96 213.206 393.118 212.877 393.345 212.65C393.572 212.401 393.878 212.276 394.263 212.276C394.807 212.276 395.272 212.492 395.657 212.922C396.042 213.33 396.28 213.874 396.371 214.554C396.575 215.869 396.79 217.048 397.017 218.09C397.266 219.11 397.618 220.085 398.071 221.014C398.524 221.921 399.136 222.884 399.907 223.904C400.111 224.131 400.224 224.392 400.247 224.686C400.27 224.981 400.224 225.276 400.111 225.57C400.02 225.842 399.862 226.069 399.635 226.25C399.431 226.432 399.182 226.522 398.887 226.522C398.57 226.522 398.309 226.454 398.105 226.318C397.901 226.182 397.708 226.012 397.527 225.808C397.096 225.196 396.688 224.596 396.303 224.006C395.918 223.394 395.566 222.703 395.249 221.932C394.932 221.139 394.66 220.21 394.433 219.144C394.206 218.056 394.048 216.776 393.957 215.302L395.079 215.268C394.671 218.056 394.014 220.289 393.107 221.966C392.2 223.621 391.169 224.811 390.013 225.536C388.857 226.262 387.701 226.624 386.545 226.624ZM405.556 226.658C405.17 226.658 404.853 226.568 404.604 226.386C404.354 226.205 404.162 225.922 404.026 225.536C403.912 225.151 403.856 224.698 403.856 224.176C403.856 222.408 403.856 220.901 403.856 219.654C403.856 218.408 403.844 217.331 403.822 216.424C403.822 215.495 403.822 214.634 403.822 213.84C403.822 213.047 403.822 212.208 403.822 211.324C403.822 210.916 403.878 210.565 403.992 210.27C404.105 209.976 404.286 209.738 404.536 209.556C404.785 209.375 405.102 209.284 405.488 209.284C405.986 209.284 406.394 209.454 406.712 209.794C407.052 210.134 407.233 210.656 407.256 211.358C407.256 211.857 407.244 212.571 407.222 213.5C407.199 214.407 407.165 215.416 407.12 216.526C407.097 217.637 407.074 218.759 407.052 219.892C407.029 221.003 407.006 222.023 406.984 222.952C406.961 223.882 406.95 224.618 406.95 225.162C406.95 225.593 406.836 225.956 406.61 226.25C406.383 226.522 406.032 226.658 405.556 226.658ZM405.862 206.394C405.023 206.394 404.32 206.145 403.754 205.646C403.187 205.148 402.904 204.547 402.904 203.844C402.904 203.232 403.119 202.734 403.55 202.348C404.003 201.94 404.57 201.736 405.25 201.736C405.816 201.736 406.304 201.872 406.712 202.144C407.142 202.416 407.46 202.768 407.664 203.198C407.868 203.606 407.97 204.037 407.97 204.49C407.97 204.921 407.8 205.352 407.46 205.782C407.142 206.19 406.61 206.394 405.862 206.394ZM417.297 226.658C416.775 226.658 416.265 226.579 415.767 226.42C415.291 226.284 414.849 226.001 414.441 225.57C414.055 225.14 413.715 224.516 413.421 223.7C413.126 222.884 412.888 221.808 412.707 220.47C412.548 219.133 412.469 217.478 412.469 215.506C412.469 213.602 412.503 211.925 412.571 210.474C412.661 209.001 412.775 207.652 412.911 206.428C413.069 205.182 413.251 203.958 413.455 202.756C413.613 201.895 413.806 201.294 414.033 200.954C414.259 200.614 414.565 200.444 414.951 200.444C415.404 200.444 415.767 200.637 416.039 201.022C416.311 201.408 416.447 202.054 416.447 202.96C416.447 203.595 416.401 204.286 416.311 205.034C416.22 205.782 416.107 206.655 415.971 207.652C415.857 208.65 415.755 209.84 415.665 211.222C415.574 212.582 415.529 214.237 415.529 216.186C415.529 217.66 415.574 218.895 415.665 219.892C415.778 220.867 415.914 221.638 416.073 222.204C416.254 222.771 416.469 223.179 416.719 223.428C416.968 223.655 417.217 223.768 417.467 223.768C417.784 223.768 418.033 223.734 418.215 223.666C418.396 223.598 418.543 223.542 418.657 223.496C418.793 223.428 418.94 223.394 419.099 223.394C419.507 223.394 419.779 223.508 419.915 223.734C420.051 223.961 420.119 224.233 420.119 224.55C420.119 224.958 419.983 225.332 419.711 225.672C419.439 225.99 419.087 226.228 418.657 226.386C418.226 226.568 417.773 226.658 417.297 226.658ZM427.086 226.624C426.066 226.624 425.171 226.386 424.4 225.91C423.652 225.434 423.074 224.766 422.666 223.904C422.258 223.043 422.054 222.034 422.054 220.878C422.054 219.79 422.224 218.691 422.564 217.58C422.904 216.47 423.38 215.416 423.992 214.418C424.604 213.421 425.329 212.537 426.168 211.766C427.029 210.996 427.97 210.395 428.99 209.964C430.01 209.511 431.098 209.284 432.254 209.284C432.775 209.284 433.206 209.42 433.546 209.692C433.886 209.964 434.056 210.372 434.056 210.916C434.056 211.188 433.965 211.426 433.784 211.63C433.625 211.812 433.376 211.925 433.036 211.97C431.449 212.174 430.055 212.73 428.854 213.636C427.675 214.543 426.757 215.642 426.1 216.934C425.443 218.226 425.114 219.575 425.114 220.98C425.114 221.638 425.171 222.238 425.284 222.782C425.397 223.304 425.647 223.984 426.032 224.822L424.264 222.476C424.785 222.998 425.216 223.338 425.556 223.496C425.919 223.655 426.406 223.734 427.018 223.734C428.469 223.734 429.761 222.873 430.894 221.15C432.05 219.428 432.889 216.923 433.41 213.636C433.501 213.206 433.659 212.877 433.886 212.65C434.113 212.401 434.419 212.276 434.804 212.276C435.348 212.276 435.813 212.492 436.198 212.922C436.583 213.33 436.821 213.874 436.912 214.554C437.116 215.869 437.331 217.048 437.558 218.09C437.807 219.11 438.159 220.085 438.612 221.014C439.065 221.921 439.677 222.884 440.448 223.904C440.652 224.131 440.765 224.392 440.788 224.686C440.811 224.981 440.765 225.276 440.652 225.57C440.561 225.842 440.403 226.069 440.176 226.25C439.972 226.432 439.723 226.522 439.428 226.522C439.111 226.522 438.85 226.454 438.646 226.318C438.442 226.182 438.249 226.012 438.068 225.808C437.637 225.196 437.229 224.596 436.844 224.006C436.459 223.394 436.107 222.703 435.79 221.932C435.473 221.139 435.201 220.21 434.974 219.144C434.747 218.056 434.589 216.776 434.498 215.302L435.62 215.268C435.212 218.056 434.555 220.289 433.648 221.966C432.741 223.621 431.71 224.811 430.554 225.536C429.398 226.262 428.242 226.624 427.086 226.624ZM447.76 226.624C447.284 226.624 446.808 226.579 446.332 226.488C445.856 226.42 445.414 226.307 445.006 226.148C444.598 225.967 444.27 225.74 444.02 225.468C443.794 225.196 443.68 224.856 443.68 224.448C443.68 224.063 443.794 223.78 444.02 223.598C444.247 223.394 444.542 223.292 444.904 223.292C445.222 223.292 445.596 223.36 446.026 223.496C446.48 223.61 446.922 223.666 447.352 223.666C448.554 223.666 449.698 223.508 450.786 223.19C451.897 222.873 452.872 222.408 453.71 221.796C454.572 221.162 455.24 220.368 455.716 219.416C456.215 218.464 456.464 217.376 456.464 216.152C456.464 215.472 456.385 214.838 456.226 214.248C456.068 213.659 455.773 213.183 455.342 212.82C454.934 212.458 454.345 212.276 453.574 212.276C452.486 212.276 451.534 212.741 450.718 213.67C449.902 214.577 449.211 215.846 448.644 217.478C448.078 219.11 447.59 220.98 447.182 223.088C447.092 223.496 446.956 223.791 446.774 223.972C446.593 224.131 446.378 224.21 446.128 224.21C445.811 224.21 445.528 224.018 445.278 223.632C445.029 223.224 444.848 222.68 444.734 222C444.508 220.776 444.315 219.552 444.156 218.328C444.02 217.082 443.918 215.926 443.85 214.86C443.782 213.795 443.748 212.888 443.748 212.14C443.748 210.826 443.771 209.692 443.816 208.74C443.884 207.766 443.952 206.904 444.02 206.156C444.088 205.408 444.145 204.717 444.19 204.082C444.258 203.425 444.292 202.756 444.292 202.076C444.27 201.646 444.349 201.272 444.53 200.954C444.734 200.637 445.04 200.478 445.448 200.478C445.947 200.478 446.378 200.694 446.74 201.124C447.103 201.555 447.284 202.201 447.284 203.062C447.284 203.72 447.25 204.354 447.182 204.966C447.137 205.578 447.08 206.224 447.012 206.904C446.944 207.584 446.876 208.378 446.808 209.284C446.763 210.168 446.74 211.234 446.74 212.48C446.74 213.364 446.763 214.328 446.808 215.37C446.854 216.413 446.933 217.58 447.046 218.872L446.332 217.75C446.718 215.756 447.307 214.135 448.1 212.888C448.894 211.642 449.778 210.735 450.752 210.168C451.727 209.579 452.679 209.284 453.608 209.284C454.742 209.284 455.75 209.534 456.634 210.032C457.518 210.531 458.21 211.313 458.708 212.378C459.23 213.421 459.49 214.781 459.49 216.458C459.49 218.045 459.162 219.462 458.504 220.708C457.87 221.955 456.997 223.02 455.886 223.904C454.776 224.788 453.518 225.468 452.112 225.944C450.707 226.398 449.256 226.624 447.76 226.624ZM468.396 226.658C467.875 226.658 467.365 226.579 466.866 226.42C466.39 226.284 465.948 226.001 465.54 225.57C465.155 225.14 464.815 224.516 464.52 223.7C464.226 222.884 463.988 221.808 463.806 220.47C463.648 219.133 463.568 217.478 463.568 215.506C463.568 213.602 463.602 211.925 463.67 210.474C463.761 209.001 463.874 207.652 464.01 206.428C464.169 205.182 464.35 203.958 464.554 202.756C464.713 201.895 464.906 201.294 465.132 200.954C465.359 200.614 465.665 200.444 466.05 200.444C466.504 200.444 466.866 200.637 467.138 201.022C467.41 201.408 467.546 202.054 467.546 202.96C467.546 203.595 467.501 204.286 467.41 205.034C467.32 205.782 467.206 206.655 467.07 207.652C466.957 208.65 466.855 209.84 466.764 211.222C466.674 212.582 466.628 214.237 466.628 216.186C466.628 217.66 466.674 218.895 466.764 219.892C466.878 220.867 467.014 221.638 467.172 222.204C467.354 222.771 467.569 223.179 467.818 223.428C468.068 223.655 468.317 223.768 468.566 223.768C468.884 223.768 469.133 223.734 469.314 223.666C469.496 223.598 469.643 223.542 469.756 223.496C469.892 223.428 470.04 223.394 470.198 223.394C470.606 223.394 470.878 223.508 471.014 223.734C471.15 223.961 471.218 224.233 471.218 224.55C471.218 224.958 471.082 225.332 470.81 225.672C470.538 225.99 470.187 226.228 469.756 226.386C469.326 226.568 468.872 226.658 468.396 226.658ZM480.466 226.624C478.743 226.624 477.338 226.307 476.25 225.672C475.185 225.015 474.391 224.131 473.87 223.02C473.371 221.887 473.122 220.595 473.122 219.144C473.122 217.988 473.326 216.832 473.734 215.676C474.165 214.498 474.777 213.432 475.57 212.48C476.363 211.506 477.315 210.724 478.426 210.134C479.537 209.545 480.783 209.25 482.166 209.25C483.753 209.25 485.033 209.681 486.008 210.542C486.983 211.404 487.47 212.696 487.47 214.418C487.47 215.642 487.096 216.685 486.348 217.546C485.623 218.385 484.625 219.031 483.356 219.484C482.087 219.938 480.659 220.164 479.072 220.164C477.712 220.164 476.76 219.983 476.216 219.62C475.672 219.235 475.4 218.816 475.4 218.362C475.4 218.09 475.468 217.898 475.604 217.784C475.74 217.648 475.967 217.58 476.284 217.58C476.533 217.58 476.839 217.626 477.202 217.716C477.587 217.784 478.131 217.818 478.834 217.818C479.967 217.818 480.953 217.682 481.792 217.41C482.653 217.116 483.333 216.708 483.832 216.186C484.331 215.665 484.58 215.064 484.58 214.384C484.58 213.614 484.387 213.036 484.002 212.65C483.617 212.265 482.982 212.072 482.098 212.072C480.942 212.072 479.911 212.424 479.004 213.126C478.097 213.829 477.383 214.747 476.862 215.88C476.341 217.014 476.08 218.238 476.08 219.552C476.08 220.368 476.216 221.105 476.488 221.762C476.76 222.397 477.202 222.918 477.814 223.326C478.426 223.712 479.253 223.904 480.296 223.904C481.52 223.904 482.54 223.757 483.356 223.462C484.195 223.168 484.886 222.839 485.43 222.476C485.974 222.091 486.427 221.762 486.79 221.49C487.175 221.196 487.527 221.048 487.844 221.048C488.161 221.048 488.377 221.139 488.49 221.32C488.603 221.502 488.66 221.796 488.66 222.204C488.66 222.658 488.433 223.145 487.98 223.666C487.549 224.165 486.949 224.641 486.178 225.094C485.407 225.548 484.535 225.922 483.56 226.216C482.585 226.488 481.554 226.624 480.466 226.624ZM494.343 226.658C493.482 226.658 492.757 226.375 492.167 225.808C491.578 225.219 491.283 224.505 491.283 223.666C491.283 223.077 491.465 222.601 491.827 222.238C492.213 221.876 492.677 221.694 493.221 221.694C493.879 221.694 494.434 221.853 494.887 222.17C495.363 222.488 495.715 222.873 495.941 223.326C496.168 223.78 496.281 224.244 496.281 224.72C496.281 225.219 496.134 225.672 495.839 226.08C495.545 226.466 495.046 226.658 494.343 226.658Z" fill="white"/>
</svg>