<svg width="837" height="167" viewBox="0 0 837 167" fill="none" xmlns="http://www.w3.org/2000/svg">
<path d="M830.522 122.38C559.162 137.03 287.802 151.68 16.4423 166.33C18.2823 158.94 27.9423 153.93 25.0223 146.86C22.5623 140.9 9.32231 139.22 6.39231 133.36C2.37231 125.31 20.4523 117.75 19.4423 109.22C18.4523 100.84 -0.237708 96.96 0.00229151 88.51C0.192292 81.77 12.5323 76.9498 14.4623 70.2498C15.9023 65.2498 11.2223 60.7198 7.7923 56.3098C4.3623 51.8998 1.84228 46.4797 7.52228 42.7297C276.662 15.3497 547.882 1.05 817.952 0C824.632 4.09 820.292 12.8899 816.662 18.6299C813.032 24.3699 808.282 30.5998 811.202 36.2498C814.182 42.0398 824.682 45.6801 825.022 51.8601C825.452 59.8801 808.312 66.2799 810.612 74.0999C812.472 80.4399 826.472 83.3201 826.342 89.8401C826.252 94.1601 819.692 97.7799 819.112 102.1C818.562 106.17 823.322 109.42 826.962 112.64C830.602 115.84 834.932 119.24 830.522 122.38Z" fill="#FFD35F"/>
<path d="M834.902 141.87C563.192 138.9 291.482 135.93 19.7722 132.95C22.0522 125.69 31.9922 121.32 29.5022 114.08C27.4022 107.97 14.2922 105.44 11.7222 99.3898C8.19222 91.0898 26.6922 84.7198 26.1922 76.1398C25.7022 67.7098 7.29222 62.6296 8.03222 54.2096C8.62222 47.4896 21.2322 43.4901 23.5622 36.9201C25.3022 32.0201 20.9022 27.1997 17.7422 22.5697C14.5822 17.9497 12.3922 12.3699 18.2922 8.99989C288.552 -0.880108 560.102 2.4398 829.712 18.8998C836.132 23.4098 831.272 31.9098 827.302 37.4098C823.332 42.9098 818.222 48.8098 820.792 54.6398C823.422 60.6098 833.682 64.92 833.642 71.11C833.592 79.14 816.102 84.4198 817.932 92.3698C819.412 98.8198 833.212 102.6 832.682 109.1C832.332 113.41 825.572 116.59 824.732 120.87C823.942 124.89 828.492 128.45 831.932 131.9C835.372 135.35 839.492 139.02 834.902 141.87Z" fill="#EB923B"/>
</svg>
