<svg width="546" height="122" viewBox="0 0 546 122" fill="none" xmlns="http://www.w3.org/2000/svg">
<path d="M19.3257 8.68164L28.1657 109.102L535.096 105.632L538.776 5.22168L19.3257 8.68164Z" fill="#FDD056"/>
<path d="M544.356 55.852C544.606 38.382 546.656 20.2417 544.616 2.82171C545.056 2.08171 544.596 0.98157 543.226 0.93157C518.206 0.07157 493.126 -0.118059 468.086 0.0619411C455.556 0.151941 60.6057 0.371609 48.0857 0.721609C36.7257 1.04161 24.9157 0.911746 13.6757 2.36175C13.6057 2.36175 13.5257 2.37202 13.4557 2.39202C13.3957 2.40202 13.3357 2.40204 13.2757 2.41204C13.0757 2.44204 12.9657 2.53177 12.9057 2.63177C10.6157 3.18177 8.53568 4.27175 6.60568 5.36175C4.66568 6.46175 2.16566 7.65163 0.805662 9.24163C0.655662 9.28163 0.535674 9.37169 0.505674 9.55169C0.495674 9.58169 0.495664 9.61178 0.495664 9.65178C0.375664 9.85178 0.355678 10.0418 0.415678 10.2118C-0.434322 15.9018 0.235663 21.8019 0.525663 27.5019C1.14566 39.3919 2.34566 51.292 3.36566 63.162C4.98566 81.932 5.87568 100.972 9.66568 119.562C9.56568 119.762 9.53567 119.982 9.62567 120.182C9.66567 120.262 9.70567 120.352 9.75567 120.432C9.77567 120.462 9.81567 120.482 9.84567 120.512C9.94567 120.952 10.4357 121.052 10.8557 120.932C11.1157 120.942 11.3657 120.922 11.5657 120.802C11.6757 120.742 11.7757 120.672 11.8757 120.612C34.1257 122.592 439.786 120.932 462.136 120.842C483.746 120.752 505.376 121.092 526.976 120.472C527.516 120.862 528.176 120.942 528.936 120.692C532.026 119.672 534.806 117.242 537.316 115.512C539.666 113.902 542.606 112.402 543.766 110.062C543.896 109.802 543.806 109.542 543.596 109.342C544.956 91.6217 544.096 73.632 544.356 55.852ZM10.7457 114.372C13.9957 112.802 17.6657 111.202 20.7257 109.242C20.8057 110.132 20.8957 111.022 20.9757 111.912C19.3857 112.802 17.9557 113.922 16.4057 114.852C14.7157 115.862 12.9557 116.802 11.1257 117.652C10.9657 116.562 10.8457 115.472 10.7457 114.372ZM10.6757 113.762C10.5657 112.472 10.4757 111.182 10.3957 109.892C12.4757 108.842 14.5557 107.782 16.6157 106.702C17.7857 106.082 19.1157 105.492 20.2957 104.792C20.3957 105.862 20.5057 106.932 20.6057 108.002C17.1457 109.682 13.9157 111.892 10.6757 113.762ZM9.90567 101.732C11.9057 100.622 13.9157 99.512 15.8957 98.372C17.0357 97.712 18.2957 97.052 19.4357 96.332C19.5457 97.392 19.6557 98.4517 19.7657 99.5117C16.4357 101.212 13.2857 103.182 10.1157 105.052C10.0557 103.942 9.98567 102.832 9.90567 101.732ZM16.1157 102.522C17.1057 101.992 18.0757 101.462 19.0557 100.922C19.2757 100.802 19.5657 100.672 19.8657 100.532C19.9757 101.582 20.0757 102.632 20.1757 103.672C18.7257 104.322 17.3957 105.252 16.0857 105.992C14.1557 107.092 12.2557 108.212 10.3557 109.342C10.2857 108.122 10.2157 106.902 10.1457 105.682C12.1357 104.632 14.1357 103.582 16.1157 102.522ZM14.9757 97.872C13.2457 98.912 11.5557 99.9719 9.85568 101.042C9.79568 100.292 9.73568 99.5317 9.66568 98.7817C9.61568 98.2817 9.57567 97.7817 9.53567 97.2817C11.4757 96.2017 13.4457 95.162 15.4357 94.142C16.5857 93.552 17.8557 93.002 19.0357 92.372C19.1357 93.342 19.2357 94.3117 19.3357 95.2817C17.7957 96.0417 16.3857 97.022 14.9757 97.872ZM14.4757 93.5419C12.7657 94.4619 11.1057 95.4416 9.46567 96.4316C9.35567 95.2716 9.26567 94.1116 9.15567 92.9516C12.4357 91.6716 16.0357 90.0718 18.5657 87.9418C18.6857 89.0618 18.7957 90.1719 18.9157 91.2919C17.3557 91.9219 15.8657 92.8019 14.4757 93.5419ZM18.0357 82.7719C16.3757 83.5919 14.9157 84.672 13.3357 85.582C11.8357 86.442 10.3057 87.2617 8.72568 88.0317C8.62568 86.9317 8.52567 85.8416 8.43567 84.7416C11.5557 83.3016 15.1457 81.662 17.7057 79.582C17.8057 80.652 17.9157 81.7119 18.0357 82.7719ZM8.78567 88.7617C11.9957 87.4717 15.6457 85.9117 18.1357 83.7817C18.2457 84.8517 18.3557 85.9319 18.4757 87.0019C16.8457 87.8619 15.3457 88.9217 13.7757 89.8217C12.2657 90.6917 10.6957 91.5017 9.10568 92.2817C8.99568 91.1117 8.88567 89.9317 8.78567 88.7617ZM9.07568 76.6318C11.1957 75.6618 13.2757 74.6416 15.2457 73.4916C15.8057 73.1616 16.3957 72.8319 16.9657 72.4819C17.0557 73.4119 17.1557 74.3417 17.2557 75.2617C16.1957 75.8017 15.1957 76.4317 14.2157 77.0317C12.5157 78.0617 10.8457 79.1316 9.18567 80.2016C8.88567 80.4016 9.27568 80.792 9.60568 80.622C11.5757 79.592 13.5357 78.5518 15.4557 77.4618C16.0857 77.1018 16.7357 76.732 17.3657 76.352C17.4357 77.072 17.5157 77.7919 17.5857 78.5219C16.0457 79.3219 14.6457 80.3516 13.2057 81.2216C11.6257 82.1816 10.0057 83.1019 8.36566 84.0019C7.91566 78.7319 7.47568 73.4716 7.04568 68.2016C7.06568 68.1916 7.08566 68.1916 7.11566 68.1816C9.99566 66.8416 13.4557 65.4317 16.0857 63.5917C16.1757 64.5017 16.2557 65.4119 16.3457 66.3119C15.0757 66.8819 13.9157 67.662 12.8057 68.372C10.9857 69.532 9.23566 70.7519 7.49566 71.9819C7.14566 72.2319 7.65567 72.6118 8.00567 72.3818C9.79567 71.2418 11.6157 70.1317 13.4557 69.0317C14.4357 68.4417 15.4957 67.8616 16.4457 67.2016C16.5757 68.5216 16.7057 69.842 16.8357 71.162C16.0257 71.672 15.2557 72.2318 14.4757 72.7118C12.5857 73.8918 10.6757 75.0317 8.68567 76.1117C8.29567 76.3317 8.64568 76.8218 9.07568 76.6318ZM12.1357 64.6816C10.4557 65.6616 8.73566 66.6017 6.99566 67.5117C6.90566 66.3617 6.80567 65.2217 6.71567 64.0717C9.69567 62.6017 13.0957 60.9718 15.6457 58.9418C15.7557 60.1118 15.8657 61.2918 15.9757 62.4618C14.6457 63.1318 13.3857 63.9516 12.1357 64.6816ZM6.58566 62.5619C6.39566 60.1419 6.20567 57.7319 6.03567 55.3119C7.84567 54.4319 9.65569 53.5518 11.4557 52.6518C12.5957 52.0718 13.8357 51.4919 14.9357 50.8119C15.0357 52.0119 15.1457 53.212 15.2457 54.412C12.5957 55.862 10.2457 57.612 7.39566 58.872C6.94566 59.072 7.34568 59.582 7.79568 59.412C10.3857 58.422 13.3157 57.1518 15.3357 55.4018C15.4157 56.2618 15.4857 57.1219 15.5657 57.9819C14.3257 58.6819 13.1857 59.5116 12.0057 60.2616C10.2657 61.3716 8.48569 62.4416 6.67569 63.4716C6.63569 63.1716 6.61566 62.8719 6.58566 62.5619ZM14.5457 46.0019C13.1657 46.5219 11.8857 47.2618 10.6057 47.8818C8.97568 48.6718 7.33569 49.4516 5.67569 50.2016C5.60569 49.2716 5.54568 48.3518 5.47568 47.4218C5.48568 47.4218 5.49567 47.4218 5.50567 47.4218C8.41567 46.2018 11.6157 44.9217 14.3357 43.2817C14.4057 44.1917 14.4757 45.0919 14.5457 46.0019ZM5.72568 50.9418C7.54568 50.1918 9.36567 49.422 11.1257 48.582C12.2757 48.032 13.5357 47.502 14.6157 46.832C14.6957 47.842 14.7757 48.8517 14.8557 49.8617C13.4557 50.4217 12.1657 51.202 10.9057 51.912C9.25567 52.832 7.62566 53.7716 5.99566 54.7016C5.90566 53.4416 5.81568 52.1918 5.72568 50.9418ZM5.41568 46.7519C5.32568 45.4219 5.22567 44.0916 5.12567 42.7616C8.01567 41.1716 11.1657 39.7717 13.9657 38.0917C14.0557 39.4417 14.1557 40.792 14.2557 42.142C11.2457 43.582 8.40568 45.3219 5.41568 46.7519ZM4.85568 39.142C4.88568 39.132 4.92567 39.1317 4.96567 39.1117C7.04567 38.0917 9.11566 37.0516 11.1157 35.9316C11.9757 35.4516 12.8957 34.952 13.7557 34.412C13.8157 35.352 13.8657 36.2816 13.9257 37.2216C10.7357 38.3616 7.80568 40.1818 5.07568 41.9218C5.00568 41.0018 4.92568 40.072 4.85568 39.142ZM9.92569 35.5517C8.24569 36.5517 6.53566 37.5218 4.80566 38.4618C4.69566 37.0918 4.58568 35.7217 4.47568 34.3417C6.06568 33.4917 7.66566 32.6517 9.24566 31.7817C10.6357 31.0217 12.1757 30.2818 13.4757 29.3818C13.5457 30.6818 13.6057 31.9817 13.6857 33.2817C12.3657 33.9717 11.1357 34.8317 9.92569 35.5517ZM4.13568 30.3617C7.22568 28.6917 10.5857 27.0216 13.2557 24.9916C13.3057 26.1916 13.3657 27.3917 13.4257 28.5917C11.6257 29.3217 9.99567 30.3817 8.37567 31.3217C7.04567 32.0917 5.72567 32.8718 4.40567 33.6518C4.32567 32.5518 4.23568 31.4517 4.13568 30.3617ZM12.9957 16.6518C9.67566 18.0918 6.60567 20.2716 3.65567 22.0116C3.36567 22.1816 3.62569 22.572 3.95569 22.412C6.85569 20.942 10.2457 19.5316 13.0257 17.7616C13.0457 18.5916 13.0857 19.4316 13.1057 20.2616C11.6557 21.0216 10.3357 21.982 9.00567 22.832C7.23567 23.962 5.49566 25.1219 3.74566 26.2719C3.48566 23.6319 3.19567 20.9917 2.87567 18.3617C4.80567 17.3117 6.72566 16.2518 8.61566 15.1518C10.0257 14.3318 11.5557 13.5117 12.9357 12.5917C12.9457 13.9417 12.9657 15.2918 12.9957 16.6518ZM3.79568 26.892C5.53568 25.872 7.27566 24.8617 8.99566 23.8217C10.3357 23.0117 11.8157 22.2117 13.1257 21.3217C13.1557 22.2517 13.1857 23.1817 13.2157 24.1117C9.94567 25.5517 6.96566 27.6517 4.05566 29.5917C3.98566 28.6917 3.88568 27.792 3.79568 26.892ZM7.55566 14.6518C5.93566 15.6318 4.36568 16.652 2.79568 17.662C2.65568 16.502 2.48568 15.3416 2.32568 14.1816C4.32568 12.9516 6.34567 11.7319 8.40567 10.5619C9.85567 9.74194 11.4757 9.01202 12.9057 8.14202C12.9057 9.27202 12.9057 10.4017 12.9157 11.5317C11.0257 12.4417 9.26566 13.6118 7.55566 14.6518ZM2.09567 10.7919C4.49567 9.93192 6.55568 8.03169 8.69568 6.80169C10.0957 5.99169 11.5657 5.23198 12.9057 4.35198C12.8957 5.27198 12.9057 6.18198 12.9057 7.10198C10.7857 7.87198 8.85567 9.15186 7.03567 10.2319C5.35567 11.2319 3.76568 12.3116 2.22568 13.4316C2.10568 12.5716 1.99566 11.7017 1.86566 10.8417C1.93566 10.8317 2.02567 10.8219 2.09567 10.7919ZM11.2357 118.552C11.2157 118.442 11.2057 118.322 11.1857 118.212C11.9357 117.922 12.7157 117.612 13.5157 117.282C12.7657 117.712 12.0157 118.152 11.2357 118.552ZM17.8157 116.832C19.3357 115.862 21.3657 114.872 22.7957 113.662C23.0957 113.642 23.3857 113.562 23.6057 113.412C25.0357 113.462 26.4757 113.482 27.9057 113.522C25.1157 115.072 22.6257 117.232 20.4157 119.242C18.0957 119.352 15.7857 119.472 13.4857 119.632C14.9357 118.702 16.3657 117.752 17.8157 116.832ZM460.236 118.552C458.046 118.572 455.856 118.582 453.666 118.592C454.846 117.662 456.036 116.752 457.256 115.852C458.586 114.882 460.126 113.972 461.446 112.932C463.676 112.882 465.906 112.842 468.136 112.812C467.146 113.422 466.226 114.132 465.326 114.762C463.646 115.942 462.016 117.162 460.386 118.372C460.296 118.432 460.256 118.492 460.236 118.552ZM456.686 114.932C455.106 116.092 453.626 117.332 452.196 118.592C450.806 118.592 66.9957 118.592 65.6057 118.592C66.7557 117.822 450.336 117.062 451.456 116.272C452.886 115.272 454.526 114.272 455.686 113.062C456.926 113.032 458.176 113.012 459.416 112.982C458.456 113.602 457.556 114.292 456.686 114.932ZM450.546 115.562C449.146 116.552 65.3457 117.572 63.9757 118.592C62.0157 118.592 60.0557 118.592 58.0957 118.592C59.0357 117.942 59.9957 117.302 60.9257 116.642C62.4557 115.562 64.1357 114.492 65.4657 113.242C67.5357 113.192 452.026 113.142 454.086 113.092C452.826 113.842 451.686 114.762 450.546 115.562ZM60.1157 116.012C58.9457 116.862 57.8057 117.732 56.6557 118.602C55.0857 118.602 53.5057 118.602 51.9357 118.612C54.7057 117.032 57.4757 115.372 59.6857 113.402C61.0957 113.372 62.5057 113.342 63.9157 113.302C62.5757 114.132 61.3457 115.112 60.1157 116.012ZM49.9557 118.612C47.9257 118.622 45.8957 118.632 43.8757 118.652C45.2757 117.712 46.7057 116.802 48.1957 115.942C49.6457 115.112 51.1957 114.372 52.6357 113.542C54.6257 113.502 56.6257 113.472 58.6157 113.422C55.5157 114.822 52.6957 116.752 49.9557 118.612ZM42.4457 118.662C41.1957 118.672 39.9457 118.682 38.6857 118.702C41.3757 117.292 44.0957 115.892 46.4257 114.202C46.5957 114.082 46.4157 113.812 46.1857 113.882C42.8157 114.942 39.7057 116.812 36.8257 118.732C35.1557 118.762 33.4857 118.792 31.8257 118.832C32.8857 118.112 33.9557 117.412 35.0557 116.732C36.7157 115.692 38.6457 114.772 40.2757 113.672C43.6357 113.662 47.0057 113.622 50.3757 113.572C47.4757 114.922 44.8157 116.812 42.4457 118.662ZM35.0457 115.722C33.4757 116.712 31.9757 117.772 30.5157 118.852C29.4657 118.882 28.4157 118.922 27.3657 118.962C28.1557 118.422 28.9457 117.892 29.7557 117.382C31.5757 116.222 33.8057 115.232 35.3057 113.812C35.3557 113.762 35.3657 113.702 35.3557 113.642C36.3757 113.652 37.4057 113.662 38.4357 113.662C37.2557 114.302 36.1357 115.042 35.0457 115.722ZM29.7257 116.472C28.5357 117.292 27.3957 118.142 26.2657 119.002C24.7657 119.052 23.2657 119.102 21.7757 119.162C22.8757 118.312 23.9957 117.472 25.1657 116.672C26.6657 115.632 28.3457 114.662 29.8057 113.562C31.3957 113.592 32.9857 113.612 34.5857 113.632C32.7757 114.302 31.2057 115.452 29.7257 116.472ZM461.586 118.542C463.156 117.532 464.726 116.532 466.256 115.492C467.506 114.642 468.896 113.792 469.966 112.782C470.976 112.772 471.986 112.752 472.996 112.742C473.786 112.732 474.576 112.732 475.366 112.722C473.996 113.512 472.786 114.602 471.636 115.512C470.376 116.502 469.136 117.502 467.896 118.512C465.986 118.522 464.066 118.532 462.156 118.552C461.956 118.542 461.766 118.542 461.586 118.542ZM469.226 118.502C470.336 117.742 471.436 116.982 472.536 116.212C474.016 115.162 475.846 114.062 476.926 112.712C480.006 112.692 483.086 112.672 486.166 112.662C485.326 113.352 484.526 114.072 483.736 114.712C482.166 115.972 480.586 117.232 479.006 118.482C478.066 118.482 477.116 118.482 476.176 118.482C476.876 117.982 477.576 117.482 478.286 116.992C479.766 115.952 481.656 114.852 482.566 113.452C482.706 113.232 482.426 113.022 482.156 113.132C480.336 113.812 478.876 115.262 477.496 116.382C476.636 117.082 475.776 117.792 474.916 118.492C473.016 118.482 471.116 118.492 469.226 118.502ZM480.406 118.482C481.846 117.482 483.276 116.482 484.666 115.442C485.836 114.572 487.236 113.662 488.356 112.642C489.466 112.642 490.586 112.632 491.696 112.622C491.206 113.032 490.716 113.432 490.216 113.802C488.326 115.202 486.296 116.472 484.306 117.772C483.926 118.022 484.416 118.492 484.826 118.302C487.016 117.292 488.996 116.072 490.886 114.742C491.796 114.102 492.836 113.382 493.756 112.602C495.396 112.592 497.036 112.582 498.686 112.572C497.886 113.132 497.136 113.772 496.446 114.252C494.866 115.342 493.346 116.472 491.816 117.592C491.386 117.912 492.016 118.372 492.446 118.092C493.996 117.112 495.556 116.142 497.066 115.132C497.776 114.652 498.486 114.182 499.196 113.702C499.646 113.392 500.446 112.982 500.936 112.562C502.326 112.552 503.716 112.542 505.106 112.532C501.836 114.302 498.796 116.592 495.856 118.502C490.706 118.512 485.556 118.492 480.406 118.482ZM518.036 118.412C518.646 118.012 519.226 117.562 519.796 117.112C521.766 115.572 524.086 113.992 525.566 112.122C527.836 112.042 530.106 111.962 532.376 111.852C529.096 113.872 526.036 116.082 522.996 118.322C521.356 118.362 519.696 118.392 518.036 118.412ZM520.156 115.472C518.946 116.452 517.766 117.642 516.306 118.432C514.126 118.462 511.946 118.482 509.756 118.492C512.706 116.422 516.116 114.522 518.956 112.312C520.806 112.272 522.656 112.212 524.506 112.162C522.916 113.112 521.536 114.352 520.156 115.472ZM508.846 118.262C508.756 118.332 508.716 118.422 508.726 118.502C507.526 118.512 506.326 118.512 505.126 118.512C506.706 117.462 508.296 116.412 509.856 115.342C511.206 114.412 512.846 113.502 514.116 112.422C514.976 112.402 515.826 112.382 516.686 112.362C513.856 114.132 511.276 116.342 508.846 118.262ZM508.976 114.652C507.226 115.922 505.526 117.222 503.806 118.512C501.716 118.512 499.636 118.512 497.546 118.512C500.986 116.662 504.846 114.802 507.806 112.502C509.156 112.482 510.506 112.472 511.856 112.452C510.856 113.182 509.906 113.982 508.976 114.652ZM531.616 115.622C530.956 116.052 528.666 117.112 527.366 118.242C526.486 118.262 525.606 118.272 524.726 118.292C527.826 116.402 530.646 114.312 533.036 111.832C534.666 111.752 536.296 111.692 537.916 111.602C535.776 112.912 533.686 114.282 531.616 115.622ZM540.686 54.7016C540.406 72.5616 539.396 90.7317 540.846 108.572C518.226 109.372 495.636 109.792 472.986 110.122C450.936 110.442 46.0057 110.302 24.0257 111.922C24.0157 111.902 23.9957 111.892 23.9757 111.872C21.4457 75.762 20.6357 39.1717 14.3757 3.32171C26.4557 3.89171 38.8657 2.93163 50.9557 2.74163C62.9957 2.55163 457.466 2.42178 469.506 2.40178C493.986 2.34178 518.446 2.83161 542.916 3.47161C539.936 20.2116 540.956 37.8716 540.686 54.7016Z" fill="#5B9F8F"/>
</svg>
