<svg width="1100" height="166" viewBox="0 0 1100 166" fill="none" xmlns="http://www.w3.org/2000/svg">
<path d="M1091.56 122.137C734.913 136.758 378.262 151.379 21.6103 166C24.0286 158.625 36.7248 153.625 32.887 146.569C29.6538 140.621 12.2524 138.944 8.40148 133.096C3.11795 125.062 26.8807 117.516 25.5532 109.003C24.252 100.64 -0.312423 96.7677 0.00301176 88.3345C0.252731 81.6079 16.4713 76.7972 19.0079 70.1105C20.9005 65.1204 14.7496 60.5994 10.2415 56.1982C5.73342 51.7969 2.42133 46.3876 9.88661 42.645C363.62 15.3193 720.088 1.04792 1075.04 0C1083.82 4.08189 1078.12 12.8643 1073.35 18.5929C1068.58 24.3216 1062.33 30.5391 1066.17 36.1779C1070.09 41.9564 1083.89 45.5895 1084.34 51.7573C1084.9 59.7614 1062.37 66.1484 1065.4 73.9529C1067.84 80.2803 1086.24 83.1549 1086.07 89.6619C1085.95 93.9734 1077.33 97.586 1076.57 101.897C1075.85 105.959 1082.1 109.203 1086.89 112.417C1091.67 115.61 1097.36 119.004 1091.56 122.137Z" fill="#FFD35F"/>
<path d="M1097.32 141.588C740.21 138.624 383.098 135.66 25.9867 132.686C28.9834 125.441 42.0476 121.079 38.775 113.854C36.0149 107.756 18.7843 105.231 15.4066 99.1927C10.767 90.9092 35.0818 84.5518 34.4246 75.9888C33.7806 67.5755 9.58416 62.5054 10.5567 54.1021C11.3322 47.3954 27.9056 43.4038 30.968 36.8469C33.2549 31.9566 27.4719 27.1458 23.3187 22.525C19.1655 17.9141 16.2872 12.3454 24.0416 8.98205C379.247 -0.878357 736.148 2.43496 1090.5 18.8623C1098.94 23.3634 1092.55 31.8465 1087.33 37.3356C1082.11 42.8247 1075.4 48.713 1078.78 54.5314C1082.23 60.4896 1095.72 64.7913 1095.66 70.969C1095.6 78.9831 1072.61 84.2524 1075.02 92.1866C1076.96 98.6238 1095.1 102.396 1094.4 108.883C1093.94 113.185 1085.06 116.359 1083.95 120.63C1082.92 124.642 1088.9 128.195 1093.42 131.638C1097.94 135.082 1103.35 138.744 1097.32 141.588Z" fill="#EB923B"/>
</svg>
