<svg width="837" height="234" viewBox="0 0 837 234" fill="none" xmlns="http://www.w3.org/2000/svg">
<path d="M830.522 172.094C559.162 192.696 287.802 213.296 16.4423 233.898C18.2823 223.506 27.9423 216.461 25.0223 206.519C22.5623 198.138 9.32231 195.775 6.39231 187.535C2.37231 176.215 20.4523 165.583 19.4423 153.588C18.4523 141.804 -0.237708 136.348 0.00229151 124.465C0.192292 114.987 12.5323 108.209 14.4623 98.7872C15.9023 91.756 11.2223 85.3859 7.7923 79.1844C4.3623 72.983 1.84228 65.3611 7.52228 60.0878C276.662 21.5852 547.882 1.47654 817.952 0C824.632 5.75147 820.292 18.1261 816.662 26.1979C813.032 34.2696 808.282 43.0302 811.202 50.9754C814.182 59.1175 824.682 64.2367 825.022 72.9271C825.452 84.2051 808.312 93.2046 810.612 104.201C812.472 113.117 826.472 117.167 826.342 126.336C826.252 132.411 819.692 137.501 819.112 143.576C818.562 149.299 823.322 153.869 826.962 158.397C830.602 162.897 834.932 167.679 830.522 172.094Z" fill="#FFD35F"/>
<path d="M834.902 199.501C563.192 195.325 291.482 191.148 19.7722 186.958C22.0522 176.749 31.9922 170.603 29.5022 160.422C27.4022 151.83 14.2922 148.272 11.7222 139.765C8.19222 128.093 26.6922 119.135 26.1922 107.07C25.7022 95.2154 7.29222 88.0715 8.03222 76.231C8.62222 66.7812 21.2322 61.1569 23.5622 51.918C25.3022 45.0275 20.9022 38.249 17.7422 31.7381C14.5822 25.2413 12.3922 17.3948 18.2922 12.6558C288.552 -1.23769 560.102 3.43085 829.712 26.5774C836.132 32.9195 831.272 44.8724 827.302 52.6067C823.332 60.3409 818.222 68.6376 820.792 76.836C823.422 85.2311 833.682 91.2923 833.642 99.9968C833.592 111.289 816.102 118.713 817.932 129.893C819.412 138.963 833.212 144.279 832.682 153.419C832.332 159.48 825.572 163.952 824.732 169.97C823.942 175.623 828.492 180.63 831.932 185.482C835.372 190.333 839.492 195.493 834.902 199.501Z" fill="#EB923B"/>
</svg>
